<svg width="50" height="44" viewBox="0 0 50 44" fill="none" xmlns="http://www.w3.org/2000/svg">
    <path d="M45.3125 22H37.5V15.75C37.5 12.3027 40.3027 9.5 43.75 9.5H44.5312C45.8301 9.5 46.875 8.45508 46.875 7.15625V2.46875C46.875 1.16992 45.8301 0.125 44.5312 0.125H43.75C35.1172 0.125 28.125 7.11719 28.125 15.75V39.1875C28.125 41.7754 30.2246 43.875 32.8125 43.875H45.3125C47.9004 43.875 50 41.7754 50 39.1875V26.6875C50 24.0996 47.9004 22 45.3125 22ZM17.1875 22H9.375V15.75C9.375 12.3027 12.1777 9.5 15.625 9.5H16.4062C17.7051 9.5 18.75 8.45508 18.75 7.15625V2.46875C18.75 1.16992 17.7051 0.125 16.4062 0.125H15.625C6.99219 0.125 0 7.11719 0 15.75V39.1875C0 41.7754 2.09961 43.875 4.6875 43.875H17.1875C19.7754 43.875 21.875 41.7754 21.875 39.1875V26.6875C21.875 24.0996 19.7754 22 17.1875 22Z" fill="#878787"/>
</svg>
