<svg id="Layer_1" data-name="Layer 1" xmlns="http://www.w3.org/2000/svg" viewBox="0 0 225.8135 30.0395"><defs><style>.cls-1{fill:#fff;}.cls-2{fill:#636466;}</style></defs><title>logo-small</title><rect class="cls-1" x="1.02258" y="10.70184" width="4.94111" height="4.94147" transform="translate(-8.28987 6.32744) rotate(-44.99639)"/><rect class="cls-1" x="216.14902" y="10.71131" width="4.9402" height="4.94232" transform="translate(54.70957 158.44578) rotate(-44.99918)"/><polygon class="cls-2" points="28.603 13.297 29.876 13.297 29.876 8.209 31.878 8.209 31.878 6.936 28.603 6.936 28.603 13.297"/><path class="cls-2" d="M37.7051,14.2309V6.478a2.79,2.79,0,0,0-1.5674-2.4868,2.72743,2.72743,0,0,1,.2929,1.2129V12.957a2.732,2.732,0,0,1-1.0156,2.146,3.18214,3.18214,0,0,1,1.0156,2.2588v8.6191a2.82831,2.82831,0,0,1-2.7851,2.7852H25.3584v1.2734h9.5615a2.82831,2.82831,0,0,0,2.7852-2.7851V18.6352a3.17938,3.17938,0,0,0-1.0166-2.2597A2.72907,2.72907,0,0,0,37.7051,14.2309Z" transform="translate(0.001)"/><polygon class="cls-2" points="28.603 24.211 29.876 24.211 29.876 19.086 31.878 19.086 31.878 17.813 28.603 17.813 28.603 24.211"/><polygon class="cls-2" points="48.778 24.211 50.052 24.211 50.052 8.209 52.054 8.209 52.054 6.936 48.778 6.936 48.778 24.211"/><path class="cls-2" d="M56.3125,3.9912a2.7017,2.7017,0,0,1,.2939,1.2129V25.9809a2.82831,2.82831,0,0,1-2.7851,2.7852H47.0478a2.72009,2.72009,0,0,1-1.2148-.2949,2.78763,2.78763,0,0,0,2.4863,1.5683h6.7754a2.82831,2.82831,0,0,0,2.7852-2.7851V6.478A2.78821,2.78821,0,0,0,56.3125,3.9912Z" transform="translate(0.001)"/><polygon class="cls-2" points="68.954 13.297 70.228 13.297 70.228 8.209 72.229 8.209 72.229 6.936 68.954 6.936 68.954 13.297"/><path class="cls-2" d="M76.4375,18.8227a2.72913,2.72913,0,0,0,1.5801-2.4843V6.478a2.78132,2.78132,0,0,0-1.5674-2.5039,2.77964,2.77964,0,0,1,.2949,1.231v9.8608a2.73028,2.73028,0,0,1-1.5811,2.4834l1.8819,11.2178h-3.458l0.2138,1.2724h4.5166Z" transform="translate(0.001)"/><polygon class="cls-2" points="70.686 17.813 68.954 17.813 68.954 28.767 65.711 28.767 65.711 30.04 70.228 30.04 70.228 19.086 70.899 19.086 70.686 17.813"/><polygon class="cls-2" points="88.527 24.211 89.802 24.211 89.802 8.209 91.804 8.209 91.804 6.936 88.527 6.936 88.527 24.211"/><path class="cls-2" d="M96.0625,3.9912a2.71412,2.71412,0,0,1,.2929,1.2129V25.9809a2.82764,2.82764,0,0,1-2.7851,2.7852H86.7949a2.72364,2.72364,0,0,1-1.2129-.294,2.78593,2.78593,0,0,0,2.4854,1.5674h6.7753a2.82831,2.82831,0,0,0,2.7852-2.7851V6.478A2.78461,2.78461,0,0,0,96.0625,3.9912Z" transform="translate(0.001)"/><polygon class="cls-2" points="108.704 24.211 109.977 24.211 109.977 8.209 111.979 8.209 111.979 6.936 108.704 6.936 108.704 24.211"/><path class="cls-2" d="M116.2383,3.9912a2.72819,2.72819,0,0,1,.2939,1.2129V25.9809a2.829,2.829,0,0,1-2.7852,2.7852h-8.288v1.2734h9.5605a2.82744,2.82744,0,0,0,2.7842-2.7851V6.478A2.78639,2.78639,0,0,0,116.2383,3.9912Z" transform="translate(0.001)"/><polygon class="cls-2" points="129.105 3.693 129.105 28.767 125.861 28.767 125.861 30.04 130.379 30.04 130.379 3.693 129.105 3.693"/><polygon class="cls-2" points="149.206 3.693 149.206 28.767 145.596 28.767 145.962 30.04 150.478 30.04 150.478 3.693 149.206 3.693"/><polygon class="cls-2" points="141.376 17.248 141.376 28.767 138.134 28.767 138.134 30.04 142.648 30.04 142.648 21.676 141.376 17.248"/><path class="cls-2" d="M161.0937,19.0864h3.7324V17.8139h-5.0068a2.744,2.744,0,0,1-1.2217-.291A2.77415,2.77415,0,0,0,161.0937,19.0864Z" transform="translate(0.001)"/><polygon class="cls-2" points="162.824 20.78 161.553 21.077 161.553 24.211 162.824 24.211 162.824 20.78"/><path class="cls-2" d="M169.0859,3.9912a2.715,2.715,0,0,1,.294,1.2129v5.3447l-3.2813.7593V12.876l4.5547-1.0542V6.478A2.78981,2.78981,0,0,0,169.0859,3.9912Z" transform="translate(0.001)"/><path class="cls-2" d="M169.0859,14.8691a2.71544,2.71544,0,0,1,.294,1.2134v9.8984a2.82833,2.82833,0,0,1-2.7852,2.7852h-6.7744a2.72411,2.72411,0,0,1-1.2149-.2949,2.78846,2.78846,0,0,0,2.4883,1.5683h6.7744a2.82677,2.82677,0,0,0,2.7842-2.7851V17.354A2.78495,2.78495,0,0,0,169.0859,14.8691Z" transform="translate(0.001)"/><polygon class="cls-2" points="161.553 6.936 161.553 13.297 162.824 13.297 162.824 8.209 164.827 8.209 164.827 6.936 161.553 6.936"/><polygon class="cls-2" points="182.143 17.813 181.728 17.813 181.728 28.767 178.483 28.767 178.483 30.04 183.002 30.04 183.002 20.551 182.143 17.813"/><polygon class="cls-2" points="191.394 3.693 189.713 3.693 185.905 15.555 190.121 28.767 186.451 28.767 186.803 29.89 186.841 30.04 191.394 30.04 187.18 16.829 191.394 3.693"/><polygon class="cls-2" points="202.017 3.693 202.017 28.767 198.772 28.767 198.772 30.04 203.29 30.04 203.29 3.693 202.017 3.693"/><rect class="cls-2" x="220.95879" y="17.07741" width="4.94077" height="1.80022" transform="translate(52.75274 163.28065) rotate(-45.00902)"/><rect class="cls-2" x="5.82711" y="17.07561" width="4.94144" height="1.80087" transform="translate(-10.27955 11.13235) rotate(-44.99951)"/><path class="cls-1" d="M34.0117,10.539a2.73361,2.73361,0,0,1-1.0156,2.146,3.17811,3.17811,0,0,1,1.0156,2.2569V23.562a2.82824,2.82824,0,0,1-2.7852,2.7851H21.667V0h9.5595a2.80383,2.80383,0,0,1,2.7852,2.7861V10.539ZM29.458,4.5161H26.1826v6.3608H29.458V4.5161Zm0,10.8789H26.1826v6.3984H29.458V15.395Z" transform="translate(0.001)"/><path class="cls-1" d="M51.4013,0a2.80317,2.80317,0,0,1,2.7852,2.7861V23.562a2.82757,2.82757,0,0,1-2.7852,2.7851H44.6269a2.80374,2.80374,0,0,1-2.7861-2.7851V2.7861A2.78077,2.78077,0,0,1,44.6269,0h6.7744ZM49.6328,4.5161H46.3574V21.7934h3.2754V4.5161Z" transform="translate(0.001)"/><path class="cls-1" d="M70.1093,26.3471L68.2646,15.395H66.5332V26.3471H62.0166V0h9.5615a2.77215,2.77215,0,0,1,2.748,2.7861V12.647a2.73189,2.73189,0,0,1-1.581,2.4838l1.8818,11.2163H70.1093ZM69.8086,4.5161H66.5342v6.3608h3.2744V4.5161Z" transform="translate(0.001)"/><path class="cls-1" d="M91.1513,0a2.80232,2.80232,0,0,1,2.7842,2.7861V23.562a2.8267,2.8267,0,0,1-2.7842,2.7851H84.3769a2.80288,2.80288,0,0,1-2.7851-2.7851V2.7861A2.77928,2.77928,0,0,1,84.3769,0h6.7744ZM89.3828,4.5161H86.1074V21.7934h3.2754V4.5161Z" transform="translate(0.001)"/><path class="cls-1" d="M111.3281,0a2.803,2.803,0,0,1,2.7842,2.7861V23.562a2.8267,2.8267,0,0,1-2.7842,2.7851h-9.5615V0h9.5615Zm-1.7705,4.5161h-3.2744V21.7934h3.2744V4.5161Z" transform="translate(0.001)"/><path class="cls-1" d="M122.1689,0h4.5166V26.3471h-4.5166V0Z" transform="translate(0.001)"/><path class="cls-1" d="M146.7842,0V26.3471h-4.5166l-3.3116-11.517v11.517h-4.5175V0h4.4794l3.3116,10.8032V0h4.5547Z" transform="translate(0.001)"/><path class="cls-1" d="M164.1758,10.8769a2.8042,2.8042,0,0,1,2.7851,2.7852V23.561a2.82892,2.82892,0,0,1-2.7851,2.7852h-6.7764a2.80146,2.80146,0,0,1-2.7842-2.7852V18.1411l4.5156-1.0547v4.7051h3.2744V15.394h-5.0058a2.77838,2.77838,0,0,1-2.7842-2.7861V2.7861A2.77839,2.77839,0,0,1,157.3994,0h6.7754a2.80439,2.80439,0,0,1,2.7851,2.7861V8.1299l-4.5556,1.0542V4.5161h-3.2744v6.3608h5.0459Z" transform="translate(0.001)"/><path class="cls-1" d="M183.4843,13.1357l4.2168,13.2105h-4.5546l-0.0381-.1504L179.7207,15.394h-0.4151V26.3462H174.79V0h4.5156V10.8769h0.3399L183.1084,0h4.5927Z" transform="translate(0.001)"/><path class="cls-1" d="M195.0801,0h4.5156V26.3471h-4.5156V0Z" transform="translate(0.001)"/></svg>