<svg id="Layer_1" data-name="Layer 1" xmlns="http://www.w3.org/2000/svg" viewBox="0 0 369.45709 153.0478"><defs><style>.cls-1{fill:#fff;}.cls-2{fill:#636466;}</style></defs><title>logo-big</title><path class="cls-1" d="M119.8584,11.4267C127.044,8.998,127.5908,0,120.5088,0c-1.9482,0-4.2754,1.3691-5.8838,4.1738l-9.5791,16.5591a13.82847,13.82847,0,0,1-1.3691,2.019c-2.4639-3.3867-1.7432-8.4511,1.7109-10.6738l-1.4375-1.813c-7.458,4.7549-5.2685,18.4751,7.1846,18.4751C121.7754,28.7392,126.7012,15.977,119.8584,11.4267Zm-8.792,14.5752a10.23106,10.23106,0,0,1-5.1308-1.2319,18.43481,18.43481,0,0,0,1.7773-2.5322l5.9863-10.3667,0.958,0.103C123.0059,13.7202,119.6885,26.0019,111.0664,26.0019Zm3.8321-16.2168,2.873-4.9272c2.6006-4.4819,5.9189-1.8472,4.1397,1.5049C120.543,8.9302,118.5244,9.7158,114.8985,9.7851Z" transform="translate(-0.0039)"/><path class="cls-1" d="M259.209,18.9541l-0.2373.2739a16.73761,16.73761,0,0,1-6.502,4.9951c0.5811-.9243,1.0264-1.916,1.4717-2.6689l3.9346-6.7393c3.3193-5.645-2.0527-7.5268-5.6797-4.2759l0.7188-1.2329h-3.5586l-5.5635,9.6548-0.0117-.0058-0.2403.2739a7.664,7.664,0,0,1-5.3711,2.6338l3.3536-5.7808c2.1552-3.729.1718-7.2529-3.1827-7.2529-2.7363,0-4.8564,1.0947-6.9101,4.6538l-1.7451,3.0439-1.4522,2.4864-0.1904.2168c-2.5654,2.977-5.0625,5.3369-6.6377,5.3369-0.7871,0-1.2305-.5469-0.4111-1.9497l5.1328-8.9981c1.539-2.7031.0693-4.6533-1.916-4.6533-1.5391,0-3.1827.855-4.961,2.7041l5.6797-9.8877h-3.5576l-9.9238,17.2149-0.2041.2329a22.14193,22.14193,0,0,1-4.2774,3.8662c1.1319-3.3872.8926-8.5874,3.0801-13.1372l-2.669-1.438c-1.4707,2.02-4.6855,6.6719-7.9023,10.435h0l-0.2393.274c-2.5654,2.977-5.0644,5.3369-6.6367,5.3369-0.7871,0-1.2324-.5469-0.4111-1.9497l3.5586-6.2271c1.2314-2.1553.6494-3.4214-.5137-4.8242l-1.9844-2.394a1.38752,1.38752,0,0,1,.2041-2.0528l-1.8466-2.019c-2.0196,1.813-2.1895,3.832-.9239,5.4741l0.3077,0.4106c-1.5733,2.2232-3.6944,5.2339-6.0206,7.9712l-0.2382.274c-2.5664,2.977-5.8516,5.3369-8.3487,5.3369-2.1894,0-3.4892-1.3677-1.8476-4.2417l0.3418-.6162c2.292,0.958,6.6045.5122,9.2724-4.105l0.5127-.8901c1.916-3.2837.0684-5.7481-2.8408-5.7481a7.52606,7.52606,0,0,0-6.6709,4.106l-3.4473,5.915-0.2138.2441a7.59285,7.59285,0,0,1-5.3711,2.6343l3.3545-5.7812a8.65911,8.65911,0,0,0,1.333-4.0708,3.04375,3.04375,0,0,0-3.2168-3.1822,4.13847,4.13847,0,0,0-2.3262.7871l4.5176-7.8349h-3.627l-9.9746,17.2339-0.1875.2138c-2.5664,2.9771-5.0625,5.337-6.6377,5.337-0.7861,0-1.2314-.5469-0.4101-1.9498l3.5576-6.227c1.2314-2.1553.6494-3.4209-.5127-4.8242l-1.9844-2.3941a1.38681,1.38681,0,0,1,.2051-2.0527l-1.8467-2.019c-2.0205,1.8129-2.1904,3.832-.9248,5.4741l0.3086,0.4106c-1.5742,2.2232-3.6953,5.2344-6.0205,7.9712l-0.2393.2739c-2.5664,2.9771-5.0634,5.337-6.6367,5.337-0.7881,0-1.2334-.5469-0.4121-1.9498l5.749-10.0581H138.166a3.69646,3.69646,0,0,0-3.7285-3.5932c-1.916,0-4.583,1.5054-6.0898,4.1064l-4.9942,8.6206c-1.5068,2.6353-.4443,5.064,2.4287,5.064,1.4366,0,3.2159-.9238,4.9268-2.3267,0.1709,1.3687,1.2666,2.3267,3.0801,2.3267,2.9404,0,6.3281-3.147,9.2715-6.5688h0c1.7109-1.9839,3.0449-3.7632,5.8847-7.629l0.4785,0.5821a1.74893,1.74893,0,0,1,.2051,2.018l-3.7636,6.5347c-1.504,2.6353-.4434,5.064,2.4287,5.064,2.0634,0,4.3447-1.5489,6.5371-3.6519l-0.001.0249c0,2.4292,1.8145,3.7974,4.1064,3.7974a7.87125,7.87125,0,0,0,6.0557-3.3184,6.02426,6.02426,0,0,0,.7861.0342,10.44358,10.44358,0,0,0,4.7246-1.4038c-0.1865,2.5679,1.6768,4.5176,4.8213,4.5176,4.0371,0,8.0391-3.147,10.9815-6.5689,1.7119-1.9839,3.0449-3.7632,5.8847-7.6289l0.4786,0.5821a1.74908,1.74908,0,0,1,.205,2.018l-3.7636,6.5347c-1.5059,2.6352-.4444,5.064,2.4287,5.064,2.9433,0,6.3301-3.147,9.2724-6.5689h0c2.0176-2.3257,3.7979-4.8237,5.0625-6.5-1.4013,3.6963-.6494,10.333-4.0361,10.333a1.98956,1.98956,0,0,1-1.6777-1.2998l-2.2237,1.1641a3.87916,3.87916,0,0,0,3.9004,2.874,9.63327,9.63327,0,0,0,.9903-0.0684c0.0361,0,.0693-0.0337.1045-0.0337a12.54158,12.54158,0,0,0,5.4658-2.3642l-1.2237,2.124h3.5928l5.4043-9.4077c5.4756-6.8765,7.9033-5.9873,6.3633-3.353l-4.6182,8.04c-1.5058,2.6348-.4443,5.064,2.4297,5.064,2.0664,0,4.3535-1.5562,6.5508-3.667-0.0078,4.5366,6.2939,5.4219,10.1455.5527h0.7881a9.80192,9.80192,0,0,0,3.8105-.9438l-6.4794,11.2417h3.5927L249.3946,15.438c3.9677-5.4058,6.4667-3.4209,5.5429-1.813l-5.3701,9.3061a1.3732,1.3732,0,0,1-2.5674,0l-2.0185.958a3.8786,3.8786,0,0,0,3.8994,2.8741h0.206c5.166-.1031,8.5528-3.1822,11.461-6.5694A2.24715,2.24715,0,0,0,259.209,18.9541ZM178.1934,13.959c2.0527-3.524,5.6777-2.9419,3.5576.7519l-0.5127.8902c-1.7109,2.9077-4.0039,2.8398-5.3369,2.3608Zm-45.6055,5.6108c-2.1553,3.3862-4.2773,4.9951-5.749,4.9951-0.7871,0-1.2305-.5468-0.4102-1.9497l4.9629-8.6553c1.9151-3.3188,5.7119-2.4628,3.9678.752Zm26.7881,4.8584a1.32824,1.32824,0,0,1-1.4375-1.3691,4.012,4.012,0,0,1,.6172-1.8472l1.2656-2.189a5.23138,5.23138,0,0,0,2.2578,3.6939A3.34146,3.34146,0,0,1,159.376,24.4282Zm3.7285-3.456a3.84317,3.84317,0,0,1-1.5058-3.2164c0-2.5317,2.4648-6.6709,4.4814-6.6709a1.35769,1.35769,0,0,1,1.335,1.5401,4.33379,4.33379,0,0,1-.6846,2.1211Zm73.0801-1.7784h-0.1699a2.10444,2.10444,0,0,0-2.0889,2.1211,2.34086,2.34086,0,0,0,.3428,1.1983l-0.0342.0678c-1.6758,2.8731-5.7471,2.3262-3.626-1.3691l2.7031-4.688,1.71-2.9077c2.4971-4.2422,5.9189-2.5664,3.7637,1.1289Z" transform="translate(-0.0039)"/><rect class="cls-1" x="1.67796" y="69.23327" width="8.08403" height="8.08375" transform="translate(-50.13187 25.49469) rotate(-44.98796)"/><rect class="cls-1" x="353.66655" y="69.21662" width="8.08389" height="8.0846" transform="translate(52.94698 274.36842) rotate(-44.99498)"/><polygon class="cls-2" points="46.795 73.48 48.878 73.48 48.878 65.156 52.153 65.156 52.153 63.072 46.795 63.072 46.795 73.48"/><path class="cls-2" d="M61.69142,75.0088V62.3242a4.56367,4.56367,0,0,0-2.56352-4.0693,4.45781,4.45781,0,0,1,.4805,1.9863V72.9267a4.47394,4.47394,0,0,1-1.6621,3.5113,5.19577,5.19577,0,0,1,1.6621,3.6938V94.2353a4.62757,4.62757,0,0,1-4.5576,4.5577H41.4912v2.0839H57.1338a4.6275,4.6275,0,0,0,4.55762-4.5576V82.2148a5.19252,5.19252,0,0,0-1.66212-3.6943A4.47417,4.47417,0,0,0,61.69142,75.0088Z" transform="translate(-0.0039)"/><polygon class="cls-2" points="46.795 91.34 48.878 91.34 48.878 82.955 52.153 82.955 52.153 80.871 46.795 80.871 46.795 91.34"/><polygon class="cls-2" points="79.807 91.34 81.89 91.34 81.89 65.156 85.164 65.156 85.164 63.072 79.807 63.072 79.807 91.34"/><path class="cls-2" d="M92.1397,58.2539a4.45839,4.45839,0,0,1,.4795,1.9863V94.2334a4.628,4.628,0,0,1-4.5567,4.5576h-11.084a4.49533,4.49533,0,0,1-1.9873-.4795,4.56464,4.56464,0,0,0,4.07031,2.5635h11.085a4.62735,4.62735,0,0,0,4.5566-4.5576V62.3242A4.56962,4.56962,0,0,0,92.1397,58.2539Z" transform="translate(-0.0039)"/><polygon class="cls-2" points="112.816 73.48 114.899 73.48 114.899 65.156 118.176 65.156 118.176 63.072 112.816 63.072 112.816 73.48"/><path class="cls-2" d="M125.0654,82.5224a4.46793,4.46793,0,0,0,2.586-4.0634V62.3242a4.55677,4.55677,0,0,0-2.5664-4.0981,4.55042,4.55042,0,0,1,.4834,2.0141V76.375a4.465,4.465,0,0,1-2.586,4.0635l3.0791,18.3525h-5.6582l0.3506,2.084h7.3916Z" transform="translate(-0.0039)"/><polygon class="cls-2" points="115.649 80.871 112.816 80.871 112.816 98.791 107.511 98.791 107.511 100.875 114.899 100.875 114.899 82.955 116 82.955 115.649 80.871"/><polygon class="cls-2" points="144.845 91.34 146.928 91.34 146.928 65.156 150.202 65.156 150.202 63.072 144.845 63.072 144.845 91.34"/><path class="cls-2" d="M157.1768,58.2539a4.44578,4.44578,0,0,1,.4804,1.9863V94.2334a4.628,4.628,0,0,1-4.5566,4.5576H142.0147a4.48722,4.48722,0,0,1-1.9854-.4795,4.5607,4.5607,0,0,0,4.0684,2.5635h11.0859a4.62744,4.62744,0,0,0,4.5567-4.5576V62.3242A4.5663,4.5663,0,0,0,157.1768,58.2539Z" transform="translate(-0.0039)"/><polygon class="cls-2" points="177.854 91.34 179.937 91.34 179.937 65.156 183.213 65.156 183.213 63.072 177.854 63.072 177.854 91.34"/><path class="cls-2" d="M190.1885,58.2539a4.45835,4.45835,0,0,1,.4795,1.9863V94.2334a4.628,4.628,0,0,1-4.5567,4.5576H172.5508v2.084h15.6436a4.62742,4.62742,0,0,0,4.5566-4.5576V62.3242A4.56539,4.56539,0,0,0,190.1885,58.2539Z" transform="translate(-0.0039)"/><polygon class="cls-2" points="211.235 57.766 211.235 98.791 205.93 98.791 205.93 100.875 213.318 100.875 213.318 57.766 211.235 57.766"/><polygon class="cls-2" points="244.122 57.766 244.122 98.791 238.217 98.791 238.815 100.875 246.205 100.875 246.205 57.766 244.122 57.766"/><polygon class="cls-2" points="231.312 79.946 231.312 98.791 226.006 98.791 226.006 100.875 233.395 100.875 233.395 87.188 231.312 79.946"/><path class="cls-2" d="M263.5781,82.9551h6.1075v-2.084h-8.1905a4.50983,4.50983,0,0,1-1.998-.4776A4.53162,4.53162,0,0,0,263.5781,82.9551Z" transform="translate(-0.0039)"/><polygon class="cls-2" points="266.406 85.726 264.323 86.211 264.323 91.34 266.406 91.34 266.406 85.726"/><path class="cls-2" d="M276.6563,58.2539a4.45913,4.45913,0,0,1,.48039,1.9863v8.7437l-5.3681,1.2431v2.565l7.4502-1.7251V62.3232A4.56164,4.56164,0,0,0,276.6563,58.2539Z" transform="translate(-0.0039)"/><path class="cls-2" d="M276.6563,76.0517a4.45727,4.45727,0,0,1,.48039,1.9854V94.2334a4.62883,4.62883,0,0,1-4.5576,4.5576H261.4942a4.50168,4.50168,0,0,1-1.9873-.4795,4.56459,4.56459,0,0,0,4.0703,2.5635h11.0849a4.62822,4.62822,0,0,0,4.5576-4.5576V80.1211A4.561,4.561,0,0,0,276.6563,76.0517Z" transform="translate(-0.0039)"/><polygon class="cls-2" points="264.323 63.072 264.323 73.48 266.406 73.48 266.406 65.156 269.683 65.156 269.683 63.072 264.323 63.072"/><polygon class="cls-2" points="298.014 80.871 297.335 80.871 297.335 98.791 292.028 98.791 292.028 100.875 299.418 100.875 299.418 85.352 298.014 80.871"/><polygon class="cls-2" points="313.151 57.766 310.399 57.766 304.171 77.176 311.068 98.791 305.062 98.791 305.64 100.629 305.7 100.875 313.151 100.875 306.254 79.26 313.151 57.766"/><polygon class="cls-2" points="330.531 57.766 330.531 98.791 325.226 98.791 325.226 100.875 332.614 100.875 332.614 57.766 330.531 57.766"/><g id="UUIVGv.tif"><path class="cls-1" d="M167.8985,123.8467h1.4091c5.4287,0.2773,9.6856,1.7275,12.3926,4.7226,2.7383-2.9863,6.9942-4.457,12.4551-4.7226h1.3496c12.1064,0.8222,17.6289,9.4951,27.3018,13.1894a11.11639,11.11639,0,0,0,4.7851.9824c2.4756-.2705,4.0596-2.7812,3.7412-5.5839-0.3418-3.0157-3.2754-5.6084-6.5634-4.1719a4.32081,4.32081,0,0,0-1.1651.7969,1.12565,1.12565,0,0,1-1.166.6132c-0.5986-.4961.0439-1.2265,0.3066-1.6543a6.00978,6.00978,0,0,1,6.0743-3.0078c5.6308,0.4043,10.6748,5.3379,9.8144,12.8223-1.9189,11.209-12.1084,14.1484-24.1719,15.2148h-3.9267a48.27862,48.27862,0,0,1-28.7725-11.0429,49.0692,49.0692,0,0,1-28.8965,11.0429H149.001c-12.1592-1.0722-22.4443-4.0166-24.2324-15.4609-0.6758-8.1582,4.1845-12.1719,9.8154-12.5762a6.11247,6.11247,0,0,1,6.1357,3.0078c0.2774,0.4629.8028,1.1661,0.3067,1.7168a1.2955,1.2955,0,0,1-1.1651-.6132,4.00405,4.00405,0,0,0-2.8222-1.2286c-3.8613-.1386-6.0762,4.1543-4.5401,7.6084a4.33435,4.33435,0,0,0,3.3741,2.5166,11.693,11.693,0,0,0,4.7861-.9824,23.84225,23.84225,0,0,0,3.8652-1.9013C151.8926,130.8135,157.6367,124.7627,167.8985,123.8467Z" transform="translate(-0.0039)"/></g><rect class="cls-2" x="361.51884" y="79.64743" width="8.08446" height="2.94683" transform="translate(49.72295 282.27809) rotate(-45.00501)"/><rect class="cls-2" x="9.53281" y="79.66209" width="8.08478" height="2.94722" transform="translate(-53.39942 33.36321) rotate(-45)"/><path class="cls-1" d="M55.6494,68.9668a4.47389,4.47389,0,0,1-1.6621,3.5112,5.19579,5.19579,0,0,1,1.6621,3.6939V90.2744a4.62815,4.62815,0,0,1-4.5576,4.5576H35.4502V51.7241H51.0928a4.58635,4.58635,0,0,1,4.5576,4.5581V68.9668h-0.001Zm-7.4511-9.8526H42.8399V69.522h5.3584V59.1142Zm0,17.7979H42.8399V87.3808h5.3584V76.9121Z" transform="translate(-0.0039)"/><path class="cls-1" d="M84.1045,51.7241a4.58623,4.58623,0,0,1,4.5567,4.5581V90.2764a4.62724,4.62724,0,0,1-4.5567,4.5566h-11.085A4.5873,4.5873,0,0,1,68.461,90.2764V56.2822a4.54766,4.54766,0,0,1,4.55859-4.5581h11.085ZM81.209,59.1142H75.85158V87.3808H81.209V59.1142Z" transform="translate(-0.0039)"/><path class="cls-1" d="M114.7119,94.832l-3.0175-17.9199h-2.8331V94.832h-7.3896V51.7241h15.6426a4.5338,4.5338,0,0,1,4.4951,4.5581V72.417a4.46659,4.46659,0,0,1-2.5859,4.0639l3.0791,18.3511h-7.3907Zm-0.4912-35.7178h-5.3584V69.522h5.3584V59.1142Z" transform="translate(-0.0039)"/><path class="cls-1" d="M149.1426,51.7241a4.58614,4.58614,0,0,1,4.5566,4.5581V90.2764a4.62715,4.62715,0,0,1-4.5566,4.5566H138.0567a4.58711,4.58711,0,0,1-4.5577-4.5566V56.2822a4.54752,4.54752,0,0,1,4.5577-4.5581h11.0859Zm-2.8955,7.3901h-5.3574V87.3808h5.3574V59.1142Z" transform="translate(-0.0039)"/><path class="cls-1" d="M182.1524,51.7241a4.58614,4.58614,0,0,1,4.5566,4.5581V90.2764a4.62715,4.62715,0,0,1-4.5566,4.5566H166.5098V51.7241h15.6426Zm-2.8946,7.3901h-5.3574V87.3808h5.3574V59.1142Z" transform="translate(-0.0039)"/><path class="cls-1" d="M199.8916,51.7241h7.3897V94.832h-7.3897V51.7241Z" transform="translate(-0.0039)"/><path class="cls-1" d="M240.167,51.7241V94.832h-7.3896l-5.42-18.8428V94.832h-7.3906V51.7241h7.3281l5.42,17.6748V51.7241h7.4521Z" transform="translate(-0.0039)"/><path class="cls-1" d="M268.6211,69.522a4.58712,4.58712,0,0,1,4.5576,4.5571V90.2764a4.628,4.628,0,0,1-4.5576,4.5566H257.5362a4.58711,4.58711,0,0,1-4.5577-4.5566V81.4092l7.3897-1.7246v7.6962h5.3584V76.9121h-8.1904a4.54841,4.54841,0,0,1-4.5577-4.5581V56.2822a4.54688,4.54688,0,0,1,4.5577-4.5581h11.0849a4.587,4.587,0,0,1,4.5576,4.5581v8.7437l-7.4511,1.7251V59.1142h-5.3584V69.522h8.2519Z" transform="translate(-0.0039)"/><path class="cls-1" d="M300.21579,73.2168L307.1133,94.832h-7.45121l-0.0615-.2461-5.543-17.6738h-0.6787V94.832H285.9893V51.7241h7.38959V69.522h0.5557l5.666-17.7979h7.51271Z" transform="translate(-0.0039)"/><path class="cls-1" d="M319.18749,51.7241h7.3897V94.832h-7.3897V51.7241Z" transform="translate(-0.0039)"/></svg>