<svg id="Layer_1" data-name="Layer 1" xmlns="http://www.w3.org/2000/svg" viewBox="0 0 369.45709 100.877"><defs><style>.cls-1{fill:#fff;}.cls-2{fill:#636466;}</style></defs><title>logo-medium</title><path class="cls-1" d="M119.8584,11.4268C127.044,8.998,127.5908,0,120.5088,0c-1.9482,0-4.2754,1.3691-5.8838,4.1738l-9.5791,16.5591a13.83517,13.83517,0,0,1-1.3691,2.0191c-2.4639-3.3868-1.7432-8.4512,1.7109-10.6739l-1.4375-1.813c-7.458,4.7549-5.2685,18.4751,7.1846,18.4751C121.7754,28.7393,126.7012,15.9771,119.8584,11.4268Zm-8.792,14.5752a10.231,10.231,0,0,1-5.1308-1.232,18.42869,18.42869,0,0,0,1.7773-2.5322l5.9863-10.3667,0.958,0.103C123.0059,13.7202,119.6885,26.002,111.0664,26.002Zm3.8321-16.2168,2.873-4.9273c2.6006-4.4819,5.9189-1.8472,4.1397,1.5049C120.543,8.9302,118.5244,9.7158,114.8985,9.7852Z" transform="translate(-0.0039)"/><path class="cls-1" d="M259.209,18.9541l-0.2373.2739a16.73761,16.73761,0,0,1-6.502,4.9951c0.5811-.9243,1.0264-1.916,1.4717-2.6689l3.9346-6.7393c3.3193-5.645-2.0527-7.5268-5.6797-4.2758l0.7188-1.2329h-3.5586l-5.5635,9.6547-0.0117-.0058-0.2403.2739a7.664,7.664,0,0,1-5.3711,2.6338l3.3536-5.7808c2.1552-3.729.1718-7.2529-3.1827-7.2529-2.7363,0-4.8564,1.0947-6.9101,4.6538l-1.7451,3.044-1.4522,2.4863-0.1904.2168c-2.5654,2.977-5.0625,5.3369-6.6377,5.3369-0.7871,0-1.2305-.5469-0.4111-1.9497l5.1328-8.9981c1.539-2.7031.0693-4.6533-1.916-4.6533-1.5391,0-3.1827.855-4.961,2.7041l5.6797-9.8877h-3.5576l-9.9238,17.2149-0.2041.2329a22.14193,22.14193,0,0,1-4.2774,3.8662c1.1319-3.3872.8926-8.5874,3.0801-13.1372l-2.669-1.438c-1.4707,2.02-4.6855,6.6719-7.9023,10.4351h0l-0.2393.2739c-2.5654,2.977-5.0644,5.3369-6.6367,5.3369-0.7871,0-1.2324-.5469-0.4111-1.9497l3.5586-6.2271c1.2314-2.1552.6494-3.4214-.5137-4.8242l-1.9844-2.394a1.38752,1.38752,0,0,1,.2041-2.0528l-1.8466-2.019c-2.0196,1.813-2.1895,3.832-.9239,5.4741l0.3077,0.4107c-1.5733,2.2231-3.6944,5.2338-6.0206,7.9712l-0.2382.2739c-2.5664,2.977-5.8516,5.3369-8.3487,5.3369-2.1894,0-3.4892-1.3677-1.8476-4.2417l0.3418-.6162c2.292,0.958,6.6045.5122,9.2724-4.105l0.5127-.8901c1.916-3.2837.0684-5.7481-2.8408-5.7481a7.52606,7.52606,0,0,0-6.6709,4.106l-3.4473,5.915-0.2138.2442a7.59271,7.59271,0,0,1-5.3711,2.6342l3.3545-5.7812a8.65911,8.65911,0,0,0,1.333-4.0708,3.04367,3.04367,0,0,0-3.2168-3.1821,4.13847,4.13847,0,0,0-2.3262.7871l4.5176-7.835h-3.627l-9.9746,17.2339-0.1875.2139c-2.5664,2.977-5.0625,5.3369-6.6377,5.3369-0.7861,0-1.2314-.5469-0.4101-1.9497l3.5576-6.2271c1.2314-2.1553.6494-3.4209-.5127-4.8242l-1.9844-2.394a1.38691,1.38691,0,0,1,.2051-2.0528l-1.8467-2.019c-2.0205,1.813-2.1904,3.832-.9248,5.4741l0.3086,0.4106c-1.5742,2.2232-3.6953,5.2344-6.0205,7.9712l-0.2393.274c-2.5664,2.977-5.0634,5.3369-6.6367,5.3369-0.7881,0-1.2334-.5469-0.4121-1.9497l5.749-10.0581H138.166a3.69648,3.69648,0,0,0-3.7285-3.5933c-1.916,0-4.583,1.5054-6.0898,4.1064l-4.9942,8.6206c-1.5068,2.6353-.4443,5.064,2.4287,5.064,1.4366,0,3.2159-.9238,4.9268-2.3266,0.1709,1.3686,1.2666,2.3266,3.0801,2.3266,2.9404,0,6.3281-3.147,9.2715-6.5688h0c1.7109-1.9839,3.0449-3.7632,5.8847-7.6289l0.4785,0.582a1.74907,1.74907,0,0,1,.2051,2.0181l-3.7636,6.5346c-1.504,2.6353-.4434,5.064,2.4287,5.064,2.0634,0,4.3447-1.5488,6.5371-3.6519l-0.001.0249c0,2.4292,1.8145,3.7974,4.1064,3.7974a7.87125,7.87125,0,0,0,6.0557-3.3184,6.02426,6.02426,0,0,0,.7861.0342,10.44358,10.44358,0,0,0,4.7246-1.4038c-0.1865,2.5679,1.6768,4.5176,4.8213,4.5176,4.0371,0,8.0391-3.147,10.9815-6.5689,1.7119-1.9838,3.0449-3.7631,5.8847-7.6289l0.4786,0.5821a1.74908,1.74908,0,0,1,.205,2.018l-3.7636,6.5347c-1.5059,2.6353-.4444,5.064,2.4287,5.064,2.9433,0,6.3301-3.147,9.2724-6.5689h0c2.0176-2.3257,3.7979-4.8237,5.0625-6.5-1.4013,3.6963-.6494,10.333-4.0361,10.333a1.98956,1.98956,0,0,1-1.6777-1.2998l-2.2237,1.1641a3.87916,3.87916,0,0,0,3.9004,2.874,9.63327,9.63327,0,0,0,.9903-0.0684c0.0361,0,.0693-0.0336.1045-0.0336a12.543,12.543,0,0,0,5.4658-2.3643l-1.2237,2.124h3.5928l5.4043-9.4077c5.4756-6.8765,7.9033-5.9873,6.3633-3.353l-4.6182,8.04c-1.5058,2.6348-.4443,5.064,2.4297,5.064,2.0664,0,4.3535-1.5562,6.5508-3.667-0.0078,4.5366,6.2939,5.4219,10.1455.5527h0.7881a9.80192,9.80192,0,0,0,3.8105-.9438l-6.4794,11.2417h3.5927L249.3946,15.438c3.9677-5.4058,6.4667-3.4209,5.5429-1.813l-5.3701,9.3062a1.37324,1.37324,0,0,1-2.5674,0l-2.0185.958a3.87856,3.87856,0,0,0,3.8994,2.874h0.206c5.166-.103,8.5528-3.1821,11.461-6.5694A2.24715,2.24715,0,0,0,259.209,18.9541ZM178.1934,13.959c2.0527-3.5239,5.6777-2.9419,3.5576.7519l-0.5127.8902c-1.7109,2.9077-4.0039,2.8398-5.3369,2.3608Zm-45.6055,5.6108c-2.1553,3.3863-4.2773,4.9951-5.749,4.9951-0.7871,0-1.2305-.5468-0.4102-1.9497l4.9629-8.6552c1.9151-3.3189,5.7119-2.4629,3.9678.7519Zm26.7881,4.8584a1.32824,1.32824,0,0,1-1.4375-1.3691,4.012,4.012,0,0,1,.6172-1.8472l1.2656-2.189a5.23138,5.23138,0,0,0,2.2578,3.6939A3.34146,3.34146,0,0,1,159.376,24.4282Zm3.7285-3.456a3.8431,3.8431,0,0,1-1.5058-3.2163c0-2.5318,2.4648-6.6709,4.4814-6.6709a1.3576,1.3576,0,0,1,1.335,1.54,4.33348,4.33348,0,0,1-.6846,2.1211Zm73.0801-1.7784h-0.1699a2.10451,2.10451,0,0,0-2.0889,2.1211,2.34086,2.34086,0,0,0,.3428,1.1983l-0.0342.0679c-1.6758,2.873-5.7471,2.3261-3.626-1.3692l2.7031-4.688,1.71-2.9077c2.4971-4.2422,5.9189-2.5664,3.7637,1.1289Z" transform="translate(-0.0039)"/><rect class="cls-1" x="1.67778" y="69.23302" width="8.08439" height="8.08375" transform="translate(-50.1338 25.49707) rotate(-44.99048)"/><rect class="cls-1" x="353.66681" y="69.21676" width="8.08336" height="8.08407" transform="translate(52.92952 274.34179) rotate(-44.98998)"/><polygon class="cls-2" points="46.795 73.48 48.878 73.48 48.878 65.156 52.153 65.156 52.153 63.072 46.795 63.072 46.795 73.48"/><path class="cls-2" d="M61.69142,75.0088V62.3242a4.56424,4.56424,0,0,0-2.56352-4.0693,4.46108,4.46108,0,0,1,.4805,1.9863V72.9268a4.47215,4.47215,0,0,1-1.6621,3.5107,5.198,5.198,0,0,1,1.6621,3.6943V94.2363a4.62737,4.62737,0,0,1-4.5576,4.5567H41.4912v2.084H57.1338a4.62739,4.62739,0,0,0,4.55762-4.5567V82.2148a5.19872,5.19872,0,0,0-1.66212-3.6953A4.4707,4.4707,0,0,0,61.69142,75.0088Z" transform="translate(-0.0039)"/><polygon class="cls-2" points="46.795 91.34 48.878 91.34 48.878 82.955 52.153 82.955 52.153 80.871 46.795 80.871 46.795 91.34"/><polygon class="cls-2" points="79.807 91.34 81.89 91.34 81.89 65.156 85.164 65.156 85.164 63.072 79.807 63.072 79.807 91.34"/><path class="cls-2" d="M92.1397,58.2539a4.45546,4.45546,0,0,1,.4795,1.9863V94.2344a4.62717,4.62717,0,0,1-4.5567,4.5566h-11.084a4.46915,4.46915,0,0,1-1.9873-.4805,4.56555,4.56555,0,0,0,4.07031,2.5645h11.085a4.62715,4.62715,0,0,0,4.5566-4.5566V62.3242A4.57019,4.57019,0,0,0,92.1397,58.2539Z" transform="translate(-0.0039)"/><polygon class="cls-2" points="112.816 73.48 114.899 73.48 114.899 65.156 118.176 65.156 118.176 63.072 112.816 63.072 112.816 73.48"/><path class="cls-2" d="M125.0654,82.5234a4.46937,4.46937,0,0,0,2.586-4.0644V62.3242a4.55557,4.55557,0,0,0-2.5664-4.0976,4.54531,4.54531,0,0,1,.4834,2.0136V76.375a4.46855,4.46855,0,0,1-2.586,4.0645l3.0791,18.3515h-5.6582l0.3506,2.084h7.3916Z" transform="translate(-0.0039)"/><polygon class="cls-2" points="115.649 80.871 112.816 80.871 112.816 98.791 107.511 98.791 107.511 100.875 114.899 100.875 114.899 82.955 116 82.955 115.649 80.871"/><polygon class="cls-2" points="144.845 91.34 146.928 91.34 146.928 65.156 150.202 65.156 150.202 63.072 144.845 63.072 144.845 91.34"/><path class="cls-2" d="M157.1768,58.2539a4.44286,4.44286,0,0,1,.4804,1.9863V94.2344a4.62708,4.62708,0,0,1-4.5566,4.5566H142.0147a4.46109,4.46109,0,0,1-1.9854-.4805,4.5616,4.5616,0,0,0,4.0684,2.5645h11.0859a4.62724,4.62724,0,0,0,4.5567-4.5566V62.3242A4.56687,4.56687,0,0,0,157.1768,58.2539Z" transform="translate(-0.0039)"/><polygon class="cls-2" points="177.854 91.34 179.937 91.34 179.937 65.156 183.213 65.156 183.213 63.072 177.854 63.072 177.854 91.34"/><path class="cls-2" d="M190.1885,58.2539a4.45542,4.45542,0,0,1,.4795,1.9863V94.2344a4.62717,4.62717,0,0,1-4.5567,4.5566H172.5508v2.084h15.6436a4.62722,4.62722,0,0,0,4.5566-4.5566V62.3242A4.566,4.566,0,0,0,190.1885,58.2539Z" transform="translate(-0.0039)"/><polygon class="cls-2" points="211.235 57.766 211.235 98.791 205.93 98.791 205.93 100.875 213.318 100.875 213.318 57.766 211.235 57.766"/><polygon class="cls-2" points="244.122 57.766 244.122 98.791 238.217 98.791 238.815 100.875 246.205 100.875 246.205 57.766 244.122 57.766"/><polygon class="cls-2" points="231.312 79.947 231.312 98.791 226.006 98.791 226.006 100.875 233.395 100.875 233.395 87.189 231.312 79.947"/><path class="cls-2" d="M263.5781,82.9551h6.1075v-2.084h-8.1905a4.53492,4.53492,0,0,1-1.998-.4766A4.53248,4.53248,0,0,0,263.5781,82.9551Z" transform="translate(-0.0039)"/><polygon class="cls-2" points="266.406 85.725 264.323 86.211 264.323 91.34 266.406 91.34 266.406 85.725"/><path class="cls-2" d="M276.6563,58.2539a4.45619,4.45619,0,0,1,.48039,1.9863v8.7442l-5.3681,1.2422V72.792l7.4502-1.7256V62.3232A4.56221,4.56221,0,0,0,276.6563,58.2539Z" transform="translate(-0.0039)"/><path class="cls-2" d="M276.6563,76.0518a4.45489,4.45489,0,0,1,.48039,1.9853V94.2344a4.628,4.628,0,0,1-4.5576,4.5566H261.4942a4.47543,4.47543,0,0,1-1.9873-.4805,4.56549,4.56549,0,0,0,4.0703,2.5645h11.0849a4.628,4.628,0,0,0,4.5576-4.5566V80.1211A4.56073,4.56073,0,0,0,276.6563,76.0518Z" transform="translate(-0.0039)"/><polygon class="cls-2" points="264.323 63.072 264.323 73.48 266.406 73.48 266.406 65.156 269.683 65.156 269.683 63.072 264.323 63.072"/><polygon class="cls-2" points="298.014 80.871 297.335 80.871 297.335 98.791 292.028 98.791 292.028 100.875 299.418 100.875 299.418 85.352 298.014 80.871"/><polygon class="cls-2" points="313.151 57.766 310.399 57.766 304.171 77.176 311.068 98.791 305.062 98.791 305.64 100.629 305.7 100.875 313.151 100.875 306.254 79.26 313.151 57.766"/><polygon class="cls-2" points="330.531 57.766 330.531 98.791 325.226 98.791 325.226 100.875 332.614 100.875 332.614 57.766 330.531 57.766"/><rect class="cls-2" x="361.51902" y="79.6475" width="8.0841" height="2.94719" transform="translate(49.72278 282.27816) rotate(-45.00501)"/><rect class="cls-2" x="9.53281" y="79.66309" width="8.08478" height="2.94722" transform="translate(-53.40012 33.3635) rotate(-45)"/><path class="cls-1" d="M55.6494,68.9668a4.47562,4.47562,0,0,1-1.6621,3.5117,5.19371,5.19371,0,0,1,1.6621,3.6934V90.2754a4.62728,4.62728,0,0,1-4.5576,4.5566H35.4502V51.7246H51.0928a4.586,4.586,0,0,1,4.5576,4.5576V68.9668h-0.001Zm-7.4511-9.8525H42.8399V69.5215h5.3584V59.1143Zm0,17.7978H42.8399V87.3809h5.3584V76.9121Z" transform="translate(-0.0039)"/><path class="cls-1" d="M84.1045,51.7246a4.58586,4.58586,0,0,1,4.5567,4.5576V90.2754a4.62737,4.62737,0,0,1-4.5567,4.5576h-11.085A4.58744,4.58744,0,0,1,68.461,90.2754V56.2822a4.54723,4.54723,0,0,1,4.55859-4.5576h11.085ZM81.209,59.1143H75.85158V87.3809H81.209V59.1143Z" transform="translate(-0.0039)"/><path class="cls-1" d="M114.7119,94.832l-3.0175-17.9199h-2.8331V94.832h-7.3896V51.7246h15.6426a4.53343,4.53343,0,0,1,4.4951,4.5576V72.417a4.465,4.465,0,0,1-2.5859,4.0635l3.0791,18.3515h-7.3907Zm-0.4912-35.7177h-5.3584V69.5215h5.3584V59.1143Z" transform="translate(-0.0039)"/><path class="cls-1" d="M149.1426,51.7246a4.58578,4.58578,0,0,1,4.5566,4.5576V90.2754a4.62728,4.62728,0,0,1-4.5566,4.5576H138.0567a4.58725,4.58725,0,0,1-4.5577-4.5576V56.2822a4.54709,4.54709,0,0,1,4.5577-4.5576h11.0859Zm-2.8955,7.3897h-5.3574V87.3809h5.3574V59.1143Z" transform="translate(-0.0039)"/><path class="cls-1" d="M182.1524,51.7246a4.58578,4.58578,0,0,1,4.5566,4.5576V90.2754a4.62728,4.62728,0,0,1-4.5566,4.5576H166.5098V51.7246h15.6426Zm-2.8946,7.3897h-5.3574V87.3809h5.3574V59.1143Z" transform="translate(-0.0039)"/><path class="cls-1" d="M199.8916,51.7246h7.3897V94.832h-7.3897V51.7246Z" transform="translate(-0.0039)"/><path class="cls-1" d="M240.167,51.7246V94.832h-7.3896l-5.42-18.8427V94.832h-7.3906V51.7246h7.3281l5.42,17.6738V51.7246h7.4521Z" transform="translate(-0.0039)"/><path class="cls-1" d="M268.6211,69.5215a4.58788,4.58788,0,0,1,4.5576,4.5576V90.2754a4.62815,4.62815,0,0,1-4.5576,4.5576H257.5362a4.58725,4.58725,0,0,1-4.5577-4.5576V81.4092l7.3897-1.7256v7.6973h5.3584V76.9121h-8.1904a4.54851,4.54851,0,0,1-4.5577-4.5586V56.2822a4.54646,4.54646,0,0,1,4.5577-4.5576h11.0849a4.58664,4.58664,0,0,1,4.5576,4.5576v8.7432l-7.4511,1.7256V59.1143h-5.3584V69.5215h8.2519Z" transform="translate(-0.0039)"/><path class="cls-1" d="M300.21579,73.2168L307.1133,94.832h-7.45121l-0.0615-.2461-5.543-17.6738h-0.6787V94.832H285.9893V51.7246h7.38959V69.5215h0.5557l5.666-17.7969h7.51271Z" transform="translate(-0.0039)"/><path class="cls-1" d="M319.18749,51.7246h7.3897V94.832h-7.3897V51.7246Z" transform="translate(-0.0039)"/></svg>