<svg xmlns="http://www.w3.org/2000/svg"><symbol id="beard-icon-2" viewBox="0 0 57.68075 68.6397"><title>hair-2</title><path d="M51.6 22.2c.12-1.696.474-3.51.72-5.4.703-5.426 1.596-11.67-.12-16.8h-.241C50.637 3.743 50.7 8.348 49.8 12.36a19.72 19.72 0 0 1-3.24 7.56 4.364 4.364 0 0 1-1.92 1.802c-.664-3.922-4.284-4.944-7.681-6.362-2.129-.887-3.97-2.015-6.118-2.159a10.776 10.776 0 0 0-2 .23 10.618 10.618 0 0 0-2-.23c-2.149.145-3.99 1.272-6.12 2.16-3.396 1.417-7.017 2.439-7.68 6.36a4.36 4.36 0 0 1-1.921-1.8 19.718 19.718 0 0 1-3.238-7.56C6.983 8.347 7.047 3.742 5.723 0h-.24c-1.719 5.13-.826 11.374-.12 16.8.244 1.891.597 3.704.718 5.4.792 11.052-6.95 23.12-6 28.92.93 7.53 8.396 9.397 14.16 12.36 4.347 2.236 8.313 4.95 13.321 5.16h2.557c5.01-.21 8.976-2.925 13.32-5.16 5.765-2.964 13.23-4.83 14.16-12.36.953-5.8-6.792-17.868-6-28.92zm-22.758 3.745a35.917 35.917 0 0 1-7.16-.505c.663-2.051 4.034-1.56 7.08-1.56h.159c3.046 0 6.417-.491 7.079 1.56a35.976 35.976 0 0 1-7.158.505z"/></symbol><symbol id="beard-icon-3" viewBox="0 0 62.3974 78.4888"><title>beard-3</title><path d="M62.397 42c0-5.212-2.367-7.775-3.598-9.96a56.01 56.01 0 0 1-4.2-17.64c-.067-4.905-1.693-12.446-2.88-14.4-.865 0-1.522 7.78-2.28 11.64-1.428 7.042-3.766 8.934-4.439 9-.758-2.81-4.113-7.364-13.677-7.725-.048-.017-.083-.03-.125-.043-.043.013-.078.026-.126.043-9.561.36-12.918 4.916-13.675 7.724-.673-.065-3.01-1.957-4.438-9C12.199 7.782 11.543 0 10.679 0 9.49 1.954 7.865 9.495 7.799 14.4a56.057 56.057 0 0 1-4.2 17.64C2.367 34.225 0 36.788 0 42c0 3.745 5.2 7.204 5.639 11.399.125 1.223-.032 2.35.12 3.361C7.762 74.244 23.626 78.49 31.197 78.49c7.574 0 23.439-4.244 25.44-21.729.152-1.011-.004-2.138.12-3.361.44-4.195 5.64-7.652 5.64-11.398zm-29.16-15.24a20.633 20.633 0 0 0-4.08 0c-1.731.34-5.76.988-5.76-1.08 0-1.068 6.72-2.295 7.8-2.295S38.998 24.613 39 25.68c0 2.069-4.028 1.42-5.762 1.08z"/></symbol><symbol id="beard-icon-4" viewBox="0 0 57 97.68069"><title>beard-4</title><path d="M51.121 15.24c-.395-5.453-.61-10.852-2.52-15.24-.765 0-1.53 7.314-2.28 10.92-1.477 7.14-3.714 8.283-4.44 8.28-.858-3.857-4.384-4.241-7.8-5.88a11.097 11.097 0 0 0-3.602-1.199 14.578 14.578 0 0 0-1.979.116 14.4 14.4 0 0 0-1.98-.116 11.12 11.12 0 0 0-3.601 1.2c-3.416 1.638-6.941 2.02-7.8 5.88-.725.003-2.964-1.141-4.44-8.281C9.929 7.315 9.164 0 8.399 0 6.49 4.389 6.274 9.787 5.88 15.24 5 38.778 0 51.528 0 62.4c0 26.066 11.708 35.28 28.5 35.28 16.791 0 28.5-9.214 28.5-35.28.001-10.872-4.999-23.622-5.879-47.16zm-16.68 9.719c-2.794 1.174-5.354-.709-5.88-.719-.018 0-.042.006-.06.006s-.042-.007-.06-.006c-.527.01-3.086 1.894-5.88.719-.785-3.583 2.396-4.042 5.94-3.904 3.545-.138 6.725.322 5.94 3.904z"/></symbol><symbol id="beard-icon-5" viewBox="0 0 44.6573 104.78125"><title>beard-5</title><path d="M43.39 0h-.119c-2.816 21.525-5.382 22.56-6.96 22.68-1.428.11-3.644-1.772-4.922-2.52a15.887 15.887 0 0 0-9.06-2.545 15.898 15.898 0 0 0-9.062 2.545c-1.277.748-3.494 2.63-4.92 2.52-1.58-.12-4.143-1.155-6.959-22.68H1.27C-.804 12.208-.29 50.203 2.47 63.6c2.61 18.52 10.11 35.104 13.439 39.6.683 1.038 3.533 1.566 6.42 1.581 2.888-.015 5.738-.543 6.422-1.582 3.329-4.495 10.829-21.08 13.44-39.6C44.946 50.204 45.461 12.209 43.39 0zM22.328 28.15a100.207 100.207 0 0 0-10.142.53c1.135-1.754 8.991-3.24 10.142-3.45 1.15.21 9.006 1.696 10.14 3.45a100.232 100.232 0 0 0-10.14-.53z"/></symbol><symbol id="beard-icon" viewBox="0 0 22.1 21.2"><title>beard-icon</title><path d="M21.8 0h-.1c-1 3.3-1.3 7.3-4 8.8-.5-1.4-1.8-2.1-3.2-2.7A9.5 9.5 0 0 0 11.7 5a.9.9 0 0 0-.6.1.9.9 0 0 0-.7-.1 9.5 9.5 0 0 0-2.8 1.1c-1.4.6-2.7 1.3-3.2 2.7C1.6 7.3 1.3 3.3.4 0H.3A6.3 6.3 0 0 0 0 1a110.5 110.5 0 0 0 .8 12.2c.5 2.7 2.6 4.6 4.6 5.9S9 21.2 11 21.2s4.2-1.2 5.6-2.1 4.1-3.2 4.6-5.9A110.3 110.3 0 0 0 22.1 1a6.1 6.1 0 0 0-.3-1zm-6 12a1.8 1.8 0 0 1-1.4 1.5c-1.3.1-1.9-1.9-3.4-1.9s-2.1 1.9-3.4 1.9A1.8 1.8 0 0 1 6.2 12a3.2 3.2 0 0 1 .7-2.4 3.5 3.5 0 0 1 2-.5 3.7 3.7 0 0 0 2.1-.8 3.7 3.7 0 0 0 2.1.8 3.5 3.5 0 0 1 2 .5 3.2 3.2 0 0 1 .7 2.4z" fill="#83654f"/></symbol><symbol id="locked" viewBox="0 0 15 17"><path data-name="Locked 2" class="cls-1" d="M13 5.451A5.5 5.5 0 0 0 7.389 0a5.366 5.366 0 0 0-5.453 5.453h-.63A1 1 0 0 0 .048 6.532v9.05A1.048 1.048 0 0 0 1.187 17h12.568A1.382 1.382 0 0 0 15 15.58V6.97a1.343 1.343 0 0 0-1.247-1.532zm-1.187-.013a4.284 4.284 0 0 0-8.564 0h8.564zM7.168 7.473A2.01 2.01 0 0 1 9.13 9.527a2.054 2.054 0 0 1-1.263 1.919c-.1.041.661 3.541.661 3.541l-2.64.019a20.682 20.682 0 0 0 .647-3.535 2.05 2.05 0 0 1-1.328-1.944 2.009 2.009 0 0 1 1.965-2.054z"/></symbol><symbol id="mustache-icon" viewBox="0 0 45 12.9"><title>mustache-icon</title><path d="M22.5 8.2a10.5 10.5 0 0 0 8.8 4.7c7.1.3 13.7-5.2 13.7-7.3-2.8 2.5-7.4 2.7-10 1.7S31.9 2.8 29.2.9a5.1 5.1 0 0 0-5.7 0l-1 .8-1-.8a5.1 5.1 0 0 0-5.7 0c-2.8 2-2.1 4.9-5.9 6.4S2.8 8.1 0 5.6c0 2.1 6.5 7.6 13.7 7.3a10.5 10.5 0 0 0 8.8-4.7z" fill="#83654f"/></symbol><symbol id="scissors-icon" viewBox="0 0 21 20"><title>scissors-icon</title><path d="M8 4a4 4 0 1 0-4 4 2.9 2.9 0 0 0 1.6-.4L8 10l-2.4 2.4A2.9 2.9 0 0 0 4 12a4 4 0 1 0 4 4 2.9 2.9 0 0 0-.4-1.6L10 12l7 7h4L7.6 5.6A2.9 2.9 0 0 0 8 4zM4 6a2 2 0 1 1 2-2 2 2 0 0 1-2 2zm0 12a2 2 0 1 1 2-2 2 2 0 0 1-2 2zm6-8.5a.5.5 0 1 1-.5.5.5.5 0 0 1 .5-.5zM21 1h-4l-6 6 2 2 8-8z" fill="#83654f"/></symbol><symbol id="tick" viewBox="0 0 21.7 16.1"><title>tick</title><path d="M21.4.3a1 1 0 0 0-1.4 0L6.7 13.7 1.8 8.8a1 1 0 0 0-1.4 0 1 1 0 0 0 0 1.4L6 15.8a1 1 0 0 0 .7.3 1 1 0 0 0 .7-.3l14-14.1a1 1 0 0 0 0-1.4z"/></symbol></svg>