<?xml version="1.0" encoding="utf-8"?>
<svg version="1.1" id="Шар_1" xmlns="http://www.w3.org/2000/svg" xmlns:xlink="http://www.w3.org/1999/xlink" x="0px" y="0px"
	 viewBox="0 0 237.9 56.7" style="enable-background:new 0 0 237.9 56.7;" xml:space="preserve">
<style type="text/css">
	.st0{fill:#FFFFFF;}
</style>
<path class="st0" d="M42.1,40.3c0,2.6-0.5,4.9-1.6,7c-1,2-2.5,3.8-4.3,5.1c-1.8,1.4-4,2.4-6.6,3.2c-2.6,0.7-5.3,1.1-8.3,1.1
	c-4,0-7.7-0.6-11.2-1.7C6.7,54,3.3,52.1,0,49.4l5.2-6.8c2.4,1.8,5,3.2,7.8,4.2c2.7,1,5.5,1.5,8.3,1.5c3.7,0,6.5-0.7,8.3-2.2
	c1.8-1.5,2.7-3.4,2.7-5.7c0-1.6-0.4-2.9-1.1-3.8c-0.7-1-1.7-1.8-3-2.4C27,33.5,25.6,33,24,32.6c-1.6-0.4-3.3-0.8-5-1.2
	c-2.2-0.5-4.3-1.1-6.3-1.9s-3.8-1.8-5.4-3c-1.6-1.2-2.8-2.7-3.8-4.5c-1-1.8-1.4-3.9-1.4-6.5C2,13.2,2.5,11,3.3,9
	c0.9-2,2.1-3.8,3.8-5.2c1.6-1.5,3.6-2.6,5.9-3.5C15.3-0.6,17.8-1,20.7-1c3.4,0,6.7,0.3,10,1c3.3,0.7,6.4,2,9.4,3.8l-4.2,7.6
	c-2.5-1.5-5-2.6-7.5-3.2c-2.5-0.6-4.9-0.9-7.3-0.9c-1.3,0-2.5,0.2-3.7,0.5c-1.2,0.3-2.2,0.8-3.1,1.5c-0.9,0.7-1.6,1.5-2.2,2.5
	c-0.5,1-0.8,2.2-0.8,3.6c0,1.4,0.4,2.5,1.1,3.4c0.7,0.9,1.6,1.7,2.8,2.3c1.2,0.6,2.5,1.1,4,1.6c1.5,0.4,3.1,0.8,4.7,1.1
	c2.7,0.6,5.1,1.3,7.3,2.1c2.2,0.8,4.2,1.9,5.8,3.1c1.6,1.3,2.9,2.8,3.8,4.6C41.7,35.5,42.1,37.7,42.1,40.3z"/>
<path class="st0" d="M57,15.8v25.3c0,2.7,0.6,4.6,1.9,5.7c1.3,1.1,2.8,1.6,4.5,1.6c3,0,6.6-1.5,10.8-4.4V15.8l8.7,4.1v36.3H75
	l-0.8-3.9c-3.2,1.9-5.7,3.1-7.6,3.6c-1.9,0.5-3.6,0.8-4.9,0.8c-4.4,0-7.7-1.3-10-4c-2.2-2.7-3.3-6.3-3.3-10.8v-26H57z"/>
<path class="st0" d="M100,56.3V31.1c0-2.8-0.6-4.7-1.8-5.7c-1.2-1.1-2.7-1.6-4.5-1.6c-1.5,0-3.1,0.4-5,1.1c-1.9,0.7-3.8,1.7-5.9,3
	v28.4h-7.6l-1-4.1V15.8h7.6H82l0.8,4c1.6-1,3.1-1.8,4.4-2.4c1.3-0.6,2.5-1.1,3.6-1.4c1.1-0.3,2-0.5,2.8-0.6c0.8-0.1,1.6-0.1,2.3-0.1
	c4.2,0,7.4,1.3,9.5,3.8c2.1,2.6,3.1,6.1,3.1,10.6v26.5H100z"/>
<path class="st0" d="M124.8,3.6v52.7h-3.9V3.6h-17.6V0h39v3.6H124.8z"/>
<path class="st0" d="M171.1,42.1c0,4.6-1.4,8.2-4.3,10.7c-2.9,2.6-6.7,3.9-11.5,3.9c-2.3,0-4.5-0.3-6.4-1c-1.9-0.7-3.6-1.7-5-2.9
	c-1.4-1.3-2.5-2.8-3.2-4.6c-0.8-1.8-1.1-3.8-1.1-6V30c0-2.2,0.4-4.2,1.3-5.9c0.8-1.8,2-3.3,3.4-4.5c1.4-1.2,3.1-2.2,5-2.9
	c1.9-0.7,4-1,6.1-1c2.2,0,4.3,0.3,6.3,1c1.9,0.7,3.6,1.6,5,2.9c1.4,1.2,2.5,2.7,3.3,4.5c0.8,1.8,1.2,3.7,1.2,5.9V42.1z M167.4,31.1
	c0-2.2-0.4-4-1.1-5.6c-0.7-1.5-1.7-2.8-2.8-3.7c-1.1-1-2.4-1.7-3.9-2.1c-1.4-0.4-2.9-0.7-4.3-0.7c-1.5,0-2.9,0.2-4.4,0.7
	c-1.5,0.4-2.8,1.1-3.9,2.1c-1.1,1-2.1,2.2-2.8,3.7c-0.7,1.5-1.1,3.4-1.1,5.6v10.2c0,2.2,0.3,4.1,1,5.6c0.7,1.5,1.6,2.8,2.7,3.7
	c1.1,1,2.4,1.7,3.9,2.1c1.5,0.4,3,0.7,4.7,0.7c1.6,0,3.2-0.2,4.6-0.7c1.4-0.5,2.7-1.2,3.8-2.2c1.1-1,2-2.2,2.7-3.8
	c0.7-1.5,1-3.4,1-5.5V31.1z"/>
<path class="st0" d="M207,56.3l-0.6-5.6c-1.9,1.1-3.5,2.1-4.9,2.9c-1.4,0.8-2.7,1.4-3.9,1.9c-1.2,0.5-2.2,0.8-3.2,1
	c-1,0.2-1.9,0.3-2.9,0.3c-4.1,0-7.3-1.1-9.6-3.4c-2.2-2.3-3.3-5.7-3.3-10.3V16.2h3.7v25.9c0,4,0.8,6.8,2.5,8.5c1.7,1.7,4,2.6,7,2.6
	c2,0,4.2-0.6,6.8-1.8c2.6-1.2,5.2-2.7,7.8-4.6V16.2h3.7v40.1H207z"/>
<path class="st0" d="M237.9,19.9c-3.6,0.4-6.7,1.2-9.1,2.4c-2.4,1.2-4.3,2.3-5.6,3.2v30.8h-3.7V16.2h3.1l0.6,6h0.1
	c0.8-0.7,1.8-1.4,2.9-2.2c1.1-0.7,2.3-1.4,3.6-2c1.3-0.6,2.7-1.1,4-1.5c1.4-0.4,2.7-0.6,4-0.7V19.9z"/>
</svg>
