<?xml version="1.0" encoding="UTF-8" standalone="no"?>
<!DOCTYPE svg  PUBLIC '-//W3C//DTD SVG 1.1//EN'  'http://www.w3.org/Graphics/SVG/1.1/DTD/svg11.dtd'>
<svg xmlns="http://www.w3.org/2000/svg" version="1.1">
<defs>
<font id="OpenSans-Regular" horiz-adv-x="1139">
<font-face units-per-em="2048" descent="-410" underline-thickness="102" bbox="-1126 -555 2466 2146" underline-position="-307" font-weight="400" cap-height="1462" ascent="1638" panose-1="2 11 6 6 3 5 4 2 2 4" x-height="1096" font-family="Open Sans" unicode-range="U+0020-FFFD"/>
<missing-glyph d="M193 1462h841v-1462h-841v1462zM297 104h633v1254h-633v-1254z" horiz-adv-x="1229"/>
<glyph d="M1364 967h-279v-967h-166v967h-196v75l196 60v61q0 404 353 404q87 0 204 -35l-43 -133q-96 31 -164 31q-94 0 -139 -62.5t-45 -200.5v-71h279v-129zM670 967h-279v-967h-166v967h-196v75l196 60v61q0 404 353 404q87 0 204 -35l-43 -133q-96 31 -164 31 q-94 0 -139 -62.5t-45 -200.5v-71h279v-129z" glyph-name="ff" horiz-adv-x="1389" unicode="ff"/>
<glyph d="M670 967h-279v-967h-166v967h-196v75l196 60v61q0 404 353 404q87 0 204 -35l-43 -133q-96 31 -164 31q-94 0 -139 -62.5t-45 -200.5v-71h279v-129zM1036 0h-166v1096h166v-1096zM856 1393q0 57 28 83.5t70 26.5q40 0 69 -27t29 -83t-29 -83.5t-69 -27.5q-42 0 -70 27.5 t-28 83.5z" glyph-name="uniFB01" horiz-adv-x="1212" unicode="fi"/>
<glyph d="M670 967h-279v-967h-166v967h-196v75l196 60v61q0 404 353 404q87 0 204 -35l-43 -133q-96 31 -164 31q-94 0 -139 -62.5t-45 -200.5v-71h279v-129zM1036 0h-166v1556h166v-1556z" glyph-name="uniFB02" horiz-adv-x="1212" unicode="fl"/>
<glyph d="M1358 967h-279v-967h-166v967h-196v75l196 60v61q0 404 353 404q87 0 204 -35l-43 -133q-96 31 -164 31q-94 0 -139 -62.5t-45 -200.5v-71h279v-129zM670 967h-279v-967h-166v967h-196v75l196 60v61q0 404 353 404q87 0 204 -35l-43 -133q-96 31 -164 31 q-94 0 -139 -62.5t-45 -200.5v-71h279v-129zM1731 0h-166v1096h166v-1096zM1551 1393q0 57 28 83.5t70 26.5q40 0 69 -27t29 -83t-29 -83.5t-69 -27.5q-42 0 -70 27.5t-28 83.5z" glyph-name="uniFB03" horiz-adv-x="1909" unicode="ffi"/>
<glyph d="M1358 967h-279v-967h-166v967h-196v75l196 60v61q0 404 353 404q87 0 204 -35l-43 -133q-96 31 -164 31q-94 0 -139 -62.5t-45 -200.5v-71h279v-129zM670 967h-279v-967h-166v967h-196v75l196 60v61q0 404 353 404q87 0 204 -35l-43 -133q-96 31 -164 31 q-94 0 -139 -62.5t-45 -200.5v-71h279v-129zM1731 0h-166v1556h166v-1556z" glyph-name="uniFB04" horiz-adv-x="1909" unicode="ffl"/>
<glyph d="M193 1462h841v-1462h-841v1462zM297 104h633v1254h-633v-1254z" glyph-name=".notdef" horiz-adv-x="1229"/>
<glyph glyph-name=".null" horiz-adv-x="0"/>
<glyph glyph-name="nonmarkingreturn" horiz-adv-x="1044"/>
<glyph glyph-name="space" horiz-adv-x="532" unicode=" "/>
<glyph d="M326 403h-105l-51 1059h207zM152 106q0 136 120 136q58 0 89.5 -35t31.5 -101q0 -64 -32 -99.5t-89 -35.5q-52 0 -86 31.5t-34 103.5z" glyph-name="exclam" horiz-adv-x="547" unicode="!"/>
<glyph d="M319 1462l-40 -528h-105l-41 528h186zM688 1462l-41 -528h-104l-41 528h186z" glyph-name="quotedbl" horiz-adv-x="821" unicode='&quot;'/>
<glyph d="M981 899l-66 -340h283v-129h-307l-84 -430h-137l84 430h-303l-82 -430h-136l80 430h-262v129h287l68 340h-277v127h299l82 436h139l-82 -436h305l84 436h134l-84 -436h264v-127h-289zM475 559h303l66 340h-303z" glyph-name="numbersign" horiz-adv-x="1323" unicode="#"/>
<glyph d="M1036 449q0 -136 -102 -224.5t-285 -111.5v-232h-129v223q-112 0 -217 17.5t-172 48.5v156q83 -37 191.5 -60.5t197.5 -23.5v440q-205 65 -287.5 151t-82.5 222q0 131 101.5 215t268.5 102v182h129v-180q184 -5 355 -74l-52 -131q-149 59 -303 70v-434q157 -50 235 -97.5 t115 -109t37 -149.5zM866 436q0 72 -44.5 116.5t-172.5 88.5v-389q217 30 217 184zM319 1057q0 -76 45 -122t156 -87v387q-99 -16 -150 -62.5t-51 -115.5z" glyph-name="dollar" horiz-adv-x="1171" unicode="$"/>
<glyph d="M242 1026q0 -170 37 -255t120 -85q164 0 164 340q0 338 -164 338q-83 0 -120 -84t-37 -254zM700 1026q0 -228 -76.5 -344.5t-224.5 -116.5q-140 0 -217.5 119t-77.5 342q0 227 74.5 342t220.5 115q145 0 223 -119t78 -338zM1122 440q0 -171 37 -255.5t121 -84.5t124 83.5 t40 256.5q0 171 -40 253.5t-124 82.5t-121 -82.5t-37 -253.5zM1581 440q0 -227 -76.5 -343.5t-224.5 -116.5q-142 0 -218.5 119t-76.5 341q0 227 74.5 342t220.5 115q142 0 221.5 -117.5t79.5 -339.5zM1323 1462l-811 -1462h-147l811 1462h147z" glyph-name="percent" horiz-adv-x="1686" unicode="%"/>
<glyph d="M414 1171q0 -69 36 -131.5t123 -150.5q129 75 179.5 138.5t50.5 146.5q0 77 -51.5 125.5t-137.5 48.5q-89 0 -144.5 -48t-55.5 -129zM569 129q241 0 400 154l-437 424q-111 -68 -157 -112.5t-68 -95.5t-22 -116q0 -117 77.5 -185.5t206.5 -68.5zM113 379q0 130 69.5 230 t249.5 202q-85 95 -115.5 144t-48.5 102t-18 110q0 150 98 234t273 84q162 0 255 -83.5t93 -232.5q0 -107 -68 -197.5t-225 -183.5l407 -391q56 62 89.5 145.5t56.5 182.5h168q-68 -286 -205 -434l299 -291h-229l-185 178q-118 -106 -240 -152t-272 -46q-215 0 -333.5 106 t-118.5 293z" glyph-name="ampersand" horiz-adv-x="1495" unicode="&amp;"/>
<glyph d="M319 1462l-40 -528h-105l-41 528h186z" glyph-name="quotesingle" horiz-adv-x="453" unicode="&apos;"/>
<glyph d="M82 561q0 265 77.5 496t223.5 405h162q-144 -193 -216.5 -424t-72.5 -475q0 -240 74 -469t213 -418h-160q-147 170 -224 397t-77 488z" glyph-name="parenleft" horiz-adv-x="606" unicode="("/>
<glyph d="M524 561q0 -263 -77.5 -490t-223.5 -395h-160q139 188 213 417.5t74 469.5q0 244 -72.5 475t-216.5 424h162q147 -175 224 -406.5t77 -494.5z" glyph-name="parenright" horiz-adv-x="606" unicode=")"/>
<glyph d="M657 1556l-43 -395l398 111l26 -182l-381 -31l248 -326l-172 -94l-176 362l-160 -362l-176 94l242 326l-377 31l29 182l391 -111l-43 395h194z" glyph-name="asterisk" horiz-adv-x="1130" unicode="*"/>
<glyph d="M653 791h412v-138h-412v-426h-139v426h-410v138h410v428h139v-428z" glyph-name="plus" horiz-adv-x="1171" unicode="+"/>
<glyph d="M350 238l15 -23q-26 -100 -75 -232.5t-102 -246.5h-125q27 104 59.5 257t45.5 245h182z" glyph-name="comma" horiz-adv-x="502" unicode=","/>
<glyph d="M84 473v152h491v-152h-491z" glyph-name="hyphen" horiz-adv-x="659" unicode="-"/>
<glyph d="M152 106q0 67 30.5 101.5t87.5 34.5q58 0 90.5 -34.5t32.5 -101.5q0 -65 -33 -100t-90 -35q-51 0 -84.5 31.5t-33.5 103.5z" glyph-name="period" horiz-adv-x="545" unicode="."/>
<glyph d="M731 1462l-545 -1462h-166l545 1462h166z" glyph-name="slash" horiz-adv-x="752" unicode="/"/>
<glyph d="M1069 733q0 -379 -119.5 -566t-365.5 -187q-236 0 -359 191.5t-123 561.5q0 382 119 567t363 185q238 0 361.5 -193t123.5 -559zM270 733q0 -319 75 -464.5t239 -145.5q166 0 240.5 147.5t74.5 462.5t-74.5 461.5t-240.5 146.5q-164 0 -239 -144.5t-75 -463.5z" glyph-name="zero" horiz-adv-x="1171" unicode="0"/>
<glyph d="M715 0h-162v1042q0 130 8 246q-21 -21 -47 -44t-238 -195l-88 114l387 299h140v-1462z" glyph-name="one" horiz-adv-x="1171" unicode="1"/>
<glyph d="M1061 0h-961v143l385 387q176 178 232 254t84 148t28 155q0 117 -71 185.5t-197 68.5q-91 0 -172.5 -30t-181.5 -109l-88 113q202 168 440 168q206 0 323 -105.5t117 -283.5q0 -139 -78 -275t-292 -344l-320 -313v-8h752v-154z" glyph-name="two" horiz-adv-x="1171" unicode="2"/>
<glyph d="M1006 1118q0 -140 -78.5 -229t-222.5 -119v-8q176 -22 261 -112t85 -236q0 -209 -145 -321.5t-412 -112.5q-116 0 -212.5 17.5t-187.5 61.5v158q95 -47 202.5 -71.5t203.5 -24.5q379 0 379 297q0 266 -418 266h-144v143h146q171 0 271 75.5t100 209.5q0 107 -73.5 168 t-199.5 61q-96 0 -181 -26t-194 -96l-84 112q90 71 207.5 111.5t247.5 40.5q213 0 331 -97.5t118 -267.5z" glyph-name="three" horiz-adv-x="1171" unicode="3"/>
<glyph d="M1130 336h-217v-336h-159v336h-711v145l694 989h176v-983h217v-151zM754 487v486q0 143 10 323h-8q-48 -96 -90 -159l-457 -650h545z" glyph-name="four" horiz-adv-x="1171" unicode="4"/>
<glyph d="M557 893q231 0 363.5 -114.5t132.5 -313.5q0 -227 -144.5 -356t-398.5 -129q-247 0 -377 79v160q70 -45 174 -70.5t205 -25.5q176 0 273.5 83t97.5 240q0 306 -375 306q-95 0 -254 -29l-86 55l55 684h727v-153h-585l-37 -439q115 23 229 23z" glyph-name="five" horiz-adv-x="1171" unicode="5"/>
<glyph d="M117 625q0 431 167.5 644.5t495.5 213.5q113 0 178 -19v-143q-77 25 -176 25q-235 0 -359 -146.5t-136 -460.5h12q110 172 348 172q197 0 310.5 -119t113.5 -323q0 -228 -124.5 -358.5t-336.5 -130.5q-227 0 -360 170.5t-133 474.5zM608 121q142 0 220.5 89.5t78.5 258.5 q0 145 -73 228t-218 83q-90 0 -165 -37t-119.5 -102t-44.5 -135q0 -103 40 -192t113.5 -141t167.5 -52z" glyph-name="six" horiz-adv-x="1171" unicode="6"/>
<glyph d="M285 0l606 1309h-797v153h973v-133l-598 -1329h-184z" glyph-name="seven" horiz-adv-x="1171" unicode="7"/>
<glyph d="M584 1483q200 0 317 -93t117 -257q0 -108 -67 -197t-214 -162q178 -85 253 -178.5t75 -216.5q0 -182 -127 -290.5t-348 -108.5q-234 0 -360 102.5t-126 290.5q0 251 306 391q-138 78 -198 168.5t-60 202.5q0 159 117.5 253.5t314.5 94.5zM268 369q0 -120 83.5 -187 t234.5 -67q149 0 232 70t83 192q0 97 -78 172.5t-272 146.5q-149 -64 -216 -141.5t-67 -185.5zM582 1348q-125 0 -196 -60t-71 -160q0 -92 59 -158t218 -132q143 60 202.5 129t59.5 161q0 101 -72.5 160.5t-199.5 59.5z" glyph-name="eight" horiz-adv-x="1171" unicode="8"/>
<glyph d="M1061 838q0 -858 -664 -858q-116 0 -184 20v143q80 -26 182 -26q240 0 362.5 148.5t133.5 455.5h-12q-55 -83 -146 -126.5t-205 -43.5q-194 0 -308 116t-114 324q0 228 127.5 360t335.5 132q149 0 260.5 -76.5t171.5 -223t60 -345.5zM569 1341q-143 0 -221 -92t-78 -256 q0 -144 72 -226.5t219 -82.5q91 0 167.5 37t120.5 101t44 134q0 105 -41 194t-114.5 140t-168.5 51z" glyph-name="nine" horiz-adv-x="1171" unicode="9"/>
<glyph d="M152 106q0 67 30.5 101.5t87.5 34.5q58 0 90.5 -34.5t32.5 -101.5q0 -65 -33 -100t-90 -35q-51 0 -84.5 31.5t-33.5 103.5zM152 989q0 135 118 135q123 0 123 -135q0 -65 -33 -100t-90 -35q-51 0 -84.5 31.5t-33.5 103.5z" glyph-name="colon" horiz-adv-x="545" unicode=":"/>
<glyph d="M350 238l15 -23q-26 -100 -75 -232.5t-102 -246.5h-125q27 104 59.5 257t45.5 245h182zM147 989q0 135 119 135q123 0 123 -135q0 -65 -33 -100t-90 -35q-58 0 -88.5 35t-30.5 100z" glyph-name="semicolon" horiz-adv-x="545" unicode=";"/>
<glyph d="M1065 242l-961 422v98l961 479v-149l-782 -371l782 -328v-151z" glyph-name="less" horiz-adv-x="1171" unicode="&lt;"/>
<glyph d="M119 858v137h930v-137h-930zM119 449v137h930v-137h-930z" glyph-name="equal" horiz-adv-x="1171" unicode="="/>
<glyph d="M104 393l783 326l-783 373v149l961 -479v-98l-961 -422v151z" glyph-name="greater" horiz-adv-x="1171" unicode="&gt;"/>
<glyph d="M289 403v54q0 117 36 192.5t134 159.5q136 115 171.5 173t35.5 140q0 102 -65.5 157.5t-188.5 55.5q-79 0 -154 -18.5t-172 -67.5l-59 135q189 99 395 99q191 0 297 -94t106 -265q0 -73 -19.5 -128.5t-57.5 -105t-164 -159.5q-101 -86 -133.5 -143t-32.5 -152v-33h-129z M240 106q0 136 120 136q58 0 89.5 -35t31.5 -101q0 -64 -32 -99.5t-89 -35.5q-52 0 -86 31.5t-34 103.5z" glyph-name="question" horiz-adv-x="879" unicode="?"/>
<glyph d="M1720 729q0 -142 -44 -260t-124 -183t-184 -65q-86 0 -145 52t-70 133h-8q-40 -87 -114.5 -136t-176.5 -49q-150 0 -234.5 102.5t-84.5 278.5q0 204 118 331.5t310 127.5q68 0 154 -12.5t155 -34.5l-25 -470v-22q0 -178 133 -178q91 0 148 107.5t57 279.5q0 181 -74 317 t-210.5 209.5t-313.5 73.5q-223 0 -388 -92.5t-252 -264t-87 -396.5q0 -305 161 -469t464 -164q210 0 436 86v-133q-192 -84 -436 -84q-363 0 -563.5 199.5t-200.5 557.5q0 260 107 463t305 314.5t454 111.5q215 0 382.5 -90.5t259 -257t91.5 -383.5zM686 598 q0 -254 195 -254q207 0 225 313l14 261q-72 20 -157 20q-130 0 -203.5 -90t-73.5 -250z" glyph-name="at" horiz-adv-x="1841" unicode="@"/>
<glyph d="M1120 0l-182 465h-586l-180 -465h-172l578 1468h143l575 -1468h-176zM885 618l-170 453q-33 86 -68 211q-22 -96 -63 -211l-172 -453h473z" glyph-name="A" horiz-adv-x="1296" unicode="A"/>
<glyph d="M201 1462h413q291 0 421 -87t130 -275q0 -130 -72.5 -214.5t-211.5 -109.5v-10q333 -57 333 -350q0 -196 -132.5 -306t-370.5 -110h-510v1462zM371 836h280q180 0 259 56.5t79 190.5q0 123 -88 177.5t-280 54.5h-250v-479zM371 692v-547h305q177 0 266.5 68.5t89.5 214.5 q0 136 -91.5 200t-278.5 64h-291z" glyph-name="B" horiz-adv-x="1327" unicode="B"/>
<glyph d="M827 1331q-241 0 -380.5 -160.5t-139.5 -439.5q0 -287 134.5 -443.5t383.5 -156.5q153 0 349 55v-149q-152 -57 -375 -57q-323 0 -498.5 196t-175.5 557q0 226 84.5 396t244 262t375.5 92q230 0 402 -84l-72 -146q-166 78 -332 78z" glyph-name="C" horiz-adv-x="1292" unicode="C"/>
<glyph d="M1368 745q0 -362 -196.5 -553.5t-565.5 -191.5h-405v1462h448q341 0 530 -189t189 -528zM1188 739q0 286 -143.5 431t-426.5 145h-247v-1168h207q304 0 457 149.5t153 442.5z" glyph-name="D" horiz-adv-x="1493" unicode="D"/>
<glyph d="M1016 0h-815v1462h815v-151h-645v-471h606v-150h-606v-538h645v-152z" glyph-name="E" unicode="E"/>
<glyph d="M371 0h-170v1462h815v-151h-645v-535h606v-151h-606v-625z" glyph-name="F" horiz-adv-x="1057" unicode="F"/>
<glyph d="M844 766h497v-711q-116 -37 -236 -56t-278 -19q-332 0 -517 197.5t-185 553.5q0 228 91.5 399.5t263.5 262t403 90.5q234 0 436 -86l-66 -150q-198 84 -381 84q-267 0 -417 -159t-150 -441q0 -296 144.5 -449t424.5 -153q152 0 297 35v450h-327v152z" glyph-name="G" horiz-adv-x="1491" unicode="G"/>
<glyph d="M1311 0h-170v688h-770v-688h-170v1462h170v-622h770v622h170v-1462z" glyph-name="H" horiz-adv-x="1511" unicode="H"/>
<glyph d="M201 0v1462h170v-1462h-170z" glyph-name="I" horiz-adv-x="571" unicode="I"/>
<glyph d="M-12 -385q-94 0 -148 27v145q71 -20 148 -20q99 0 150.5 60t51.5 173v1462h170v-1448q0 -190 -96 -294.5t-276 -104.5z" glyph-name="J" horiz-adv-x="547" unicode="J"/>
<glyph d="M1257 0h-200l-533 709l-153 -136v-573h-170v1462h170v-725l663 725h201l-588 -635z" glyph-name="K" horiz-adv-x="1257" unicode="K"/>
<glyph d="M201 0v1462h170v-1308h645v-154h-815z" glyph-name="L" horiz-adv-x="1063" unicode="L"/>
<glyph d="M848 0l-496 1296h-8q14 -154 14 -366v-930h-157v1462h256l463 -1206h8l467 1206h254v-1462h-170v942q0 162 14 352h-8l-500 -1294h-137z" glyph-name="M" horiz-adv-x="1849" unicode="M"/>
<glyph d="M1343 0h-194l-799 1227h-8q16 -216 16 -396v-831h-157v1462h192l797 -1222h8q-2 27 -9 173.5t-5 209.5v839h159v-1462z" glyph-name="N" horiz-adv-x="1544" unicode="N"/>
<glyph d="M1470 733q0 -351 -177.5 -552t-493.5 -201q-323 0 -498.5 197.5t-175.5 557.5q0 357 176 553.5t500 196.5q315 0 492 -200t177 -552zM305 733q0 -297 126.5 -450.5t367.5 -153.5q243 0 367 153t124 451q0 295 -123.5 447.5t-365.5 152.5q-243 0 -369.5 -153.5 t-126.5 -446.5z" glyph-name="O" horiz-adv-x="1595" unicode="O"/>
<glyph d="M1128 1036q0 -222 -151.5 -341.5t-433.5 -119.5h-172v-575h-170v1462h379q548 0 548 -426zM371 721h153q226 0 327 73t101 234q0 145 -95 216t-296 71h-190v-594z" glyph-name="P" horiz-adv-x="1233" unicode="P"/>
<glyph d="M1470 733q0 -281 -113 -467t-319 -252l348 -362h-247l-285 330l-55 -2q-323 0 -498.5 197.5t-175.5 557.5q0 357 176 553.5t500 196.5q315 0 492 -200t177 -552zM305 733q0 -297 126.5 -450.5t367.5 -153.5q243 0 367 153t124 451q0 295 -123.5 447.5t-365.5 152.5 q-243 0 -369.5 -153.5t-126.5 -446.5z" glyph-name="Q" horiz-adv-x="1595" unicode="Q"/>
<glyph d="M371 608v-608h-170v1462h401q269 0 397.5 -103t128.5 -310q0 -290 -294 -392l397 -657h-201l-354 608h-305zM371 754h233q180 0 264 71.5t84 214.5q0 145 -85.5 209t-274.5 64h-221v-559z" glyph-name="R" horiz-adv-x="1266" unicode="R"/>
<glyph d="M1026 389q0 -193 -140 -301t-380 -108q-260 0 -400 67v164q90 -38 196 -60t210 -22q170 0 256 64.5t86 179.5q0 76 -30.5 124.5t-102 89.5t-217.5 93q-204 73 -291.5 173t-87.5 261q0 169 127 269t336 100q218 0 401 -80l-53 -148q-181 76 -352 76q-135 0 -211 -58 t-76 -161q0 -76 28 -124.5t94.5 -89t203.5 -89.5q230 -82 316.5 -176t86.5 -244z" glyph-name="S" horiz-adv-x="1124" unicode="S"/>
<glyph d="M651 0h-170v1311h-463v151h1096v-151h-463v-1311z" glyph-name="T" horiz-adv-x="1133" unicode="T"/>
<glyph d="M1305 1462v-946q0 -250 -151 -393t-415 -143t-408.5 144t-144.5 396v942h170v-954q0 -183 100 -281t294 -98q185 0 285 98.5t100 282.5v952h170z" glyph-name="U" horiz-adv-x="1491" unicode="U"/>
<glyph d="M1036 1462h183l-527 -1462h-168l-524 1462h180l336 -946q58 -163 92 -317q36 162 94 323z" glyph-name="V" horiz-adv-x="1219" unicode="V"/>
<glyph d="M1477 0h-168l-295 979q-21 65 -47 164t-27 119q-22 -132 -70 -289l-286 -973h-168l-389 1462h180l231 -903q48 -190 70 -344q27 183 80 358l262 889h180l275 -897q48 -155 81 -350q19 142 72 346l230 901h180z" glyph-name="W" horiz-adv-x="1896" unicode="W"/>
<glyph d="M1174 0h-193l-393 643l-400 -643h-180l486 764l-453 698h188l363 -579l366 579h181l-453 -692z" glyph-name="X" horiz-adv-x="1182" unicode="X"/>
<glyph d="M573 731l390 731h184l-488 -895v-567h-172v559l-487 903h186z" glyph-name="Y" horiz-adv-x="1147" unicode="Y"/>
<glyph d="M1087 0h-1005v133l776 1176h-752v153h959v-133l-776 -1175h798v-154z" glyph-name="Z" horiz-adv-x="1169" unicode="Z"/>
<glyph d="M623 -324h-457v1786h457v-141h-289v-1503h289v-142z" glyph-name="bracketleft" horiz-adv-x="674" unicode="["/>
<glyph d="M186 1462l547 -1462h-166l-544 1462h163z" glyph-name="backslash" horiz-adv-x="752" unicode="\"/>
<glyph d="M51 -182h289v1503h-289v141h457v-1786h-457v142z" glyph-name="bracketright" horiz-adv-x="674" unicode="]"/>
<glyph d="M49 551l434 922h99l477 -922h-152l-372 745l-334 -745h-152z" glyph-name="asciicircum" horiz-adv-x="1110" unicode="^"/>
<glyph d="M922 -315h-926v131h926v-131z" glyph-name="underscore" horiz-adv-x="918" unicode="_"/>
<glyph d="M786 1241h-110q-65 52 -154 148t-129 159v21h203q32 -69 89 -159.5t101 -143.5v-25z" glyph-name="grave" horiz-adv-x="1182" unicode="`"/>
<glyph d="M850 0l-33 156h-8q-82 -103 -163.5 -139.5t-203.5 -36.5q-163 0 -255.5 84t-92.5 239q0 332 531 348l186 6v68q0 129 -55.5 190.5t-177.5 61.5q-137 0 -310 -84l-51 127q81 44 177.5 69t193.5 25q196 0 290.5 -87t94.5 -279v-748h-123zM475 117q155 0 243.5 85t88.5 238 v99l-166 -7q-198 -7 -285.5 -61.5t-87.5 -169.5q0 -90 54.5 -137t152.5 -47z" glyph-name="a" unicode="a"/>
<glyph d="M686 1114q216 0 335.5 -147.5t119.5 -417.5t-120.5 -419.5t-334.5 -149.5q-107 0 -195.5 39.5t-148.5 121.5h-12l-35 -141h-119v1556h166v-378q0 -127 -8 -228h8q116 164 344 164zM662 975q-170 0 -245 -97.5t-75 -328.5t77 -330.5t247 -99.5q153 0 228 111.5t75 320.5 q0 214 -75 319t-232 105z" glyph-name="b" horiz-adv-x="1255" unicode="b"/>
<glyph d="M614 -20q-238 0 -368.5 146.5t-130.5 414.5q0 275 132.5 425t377.5 150q79 0 158 -17t124 -40l-51 -141q-55 22 -120 36.5t-115 14.5q-334 0 -334 -426q0 -202 81.5 -310t241.5 -108q137 0 281 59v-147q-110 -57 -277 -57z" glyph-name="c" horiz-adv-x="975" unicode="c"/>
<glyph d="M922 147h-9q-115 -167 -344 -167q-215 0 -334.5 147t-119.5 418t120 421t334 150q223 0 342 -162h13l-7 79l-4 77v446h166v-1556h-135zM590 119q170 0 246.5 92.5t76.5 298.5v35q0 233 -77.5 332.5t-247.5 99.5q-146 0 -223.5 -113.5t-77.5 -320.5q0 -210 77 -317 t226 -107z" glyph-name="d" horiz-adv-x="1255" unicode="d"/>
<glyph d="M639 -20q-243 0 -383.5 148t-140.5 411q0 265 130.5 421t350.5 156q206 0 326 -135.5t120 -357.5v-105h-755q5 -193 97.5 -293t260.5 -100q177 0 350 74v-148q-88 -38 -166.5 -54.5t-189.5 -16.5zM594 977q-132 0 -210.5 -86t-92.5 -238h573q0 157 -70 240.5t-200 83.5z " glyph-name="e" horiz-adv-x="1149" unicode="e"/>
<glyph d="M670 967h-279v-967h-166v967h-196v75l196 60v61q0 404 353 404q87 0 204 -35l-43 -133q-96 31 -164 31q-94 0 -139 -62.5t-45 -200.5v-71h279v-129z" glyph-name="f" horiz-adv-x="694" unicode="f"/>
<glyph d="M1073 1096v-105l-203 -24q28 -35 50 -91.5t22 -127.5q0 -161 -110 -257t-302 -96q-49 0 -92 8q-106 -56 -106 -141q0 -45 37 -66.5t127 -21.5h194q178 0 273.5 -75t95.5 -218q0 -182 -146 -277.5t-426 -95.5q-215 0 -331.5 80t-116.5 226q0 100 64 173t180 99 q-42 19 -70.5 59t-28.5 93q0 60 32 105t101 87q-85 35 -138.5 119t-53.5 192q0 180 108 277.5t306 97.5q86 0 155 -20h379zM199 -184q0 -89 75 -135t215 -46q209 0 309.5 62.5t100.5 169.5q0 89 -55 123.5t-207 34.5h-199q-113 0 -176 -54t-63 -155zM289 745q0 -115 65 -174 t181 -59q243 0 243 236q0 247 -246 247q-117 0 -180 -63t-63 -187z" glyph-name="g" horiz-adv-x="1122" unicode="g"/>
<glyph d="M926 0v709q0 134 -61 200t-191 66q-173 0 -252.5 -94t-79.5 -308v-573h-166v1556h166v-471q0 -85 -8 -141h10q49 79 139.5 124.5t206.5 45.5q201 0 301.5 -95.5t100.5 -303.5v-715h-166z" glyph-name="h" horiz-adv-x="1257" unicode="h"/>
<glyph d="M342 0h-166v1096h166v-1096zM162 1393q0 57 28 83.5t70 26.5q40 0 69 -27t29 -83t-29 -83.5t-69 -27.5q-42 0 -70 27.5t-28 83.5z" glyph-name="i" horiz-adv-x="518" unicode="i"/>
<glyph d="M43 -492q-95 0 -154 25v135q69 -20 136 -20q78 0 114.5 42.5t36.5 129.5v1276h166v-1264q0 -324 -299 -324zM162 1393q0 57 28 83.5t70 26.5q40 0 69 -27t29 -83t-29 -83.5t-69 -27.5q-42 0 -70 27.5t-28 83.5z" glyph-name="j" horiz-adv-x="518" unicode="j"/>
<glyph d="M340 561q43 61 131 160l354 375h197l-444 -467l475 -629h-201l-387 518l-125 -108v-410h-164v1556h164v-825q0 -55 -8 -170h8z" glyph-name="k" horiz-adv-x="1075" unicode="k"/>
<glyph d="M342 0h-166v1556h166v-1556z" glyph-name="l" horiz-adv-x="518" unicode="l"/>
<glyph d="M1573 0v713q0 131 -56 196.5t-174 65.5q-155 0 -229 -89t-74 -274v-612h-166v713q0 131 -56 196.5t-175 65.5q-156 0 -228.5 -93.5t-72.5 -306.5v-575h-166v1096h135l27 -150h8q47 80 132.5 125t191.5 45q257 0 336 -186h8q49 86 142 136t212 50q186 0 278.5 -95.5 t92.5 -305.5v-715h-166z" glyph-name="m" horiz-adv-x="1905" unicode="m"/>
<glyph d="M926 0v709q0 134 -61 200t-191 66q-172 0 -252 -93t-80 -307v-575h-166v1096h135l27 -150h8q51 81 143 125.5t205 44.5q198 0 298 -95.5t100 -305.5v-715h-166z" glyph-name="n" horiz-adv-x="1257" unicode="n"/>
<glyph d="M1122 549q0 -268 -135 -418.5t-373 -150.5q-147 0 -261 69t-176 198t-62 302q0 268 134 417.5t372 149.5q230 0 365.5 -153t135.5 -414zM287 549q0 -210 84 -320t247 -110t247.5 109.5t84.5 320.5q0 209 -84.5 317.5t-249.5 108.5q-163 0 -246 -107t-83 -319z" glyph-name="o" horiz-adv-x="1237" unicode="o"/>
<glyph d="M686 -20q-107 0 -195.5 39.5t-148.5 121.5h-12q12 -96 12 -182v-451h-166v1588h135l23 -150h8q64 90 149 130t195 40q218 0 336.5 -149t118.5 -418q0 -270 -120.5 -419.5t-334.5 -149.5zM662 975q-168 0 -243 -93t-77 -296v-37q0 -231 77 -330.5t247 -99.5 q142 0 222.5 115t80.5 317q0 205 -80.5 314.5t-226.5 109.5z" glyph-name="p" horiz-adv-x="1255" unicode="p"/>
<glyph d="M590 119q166 0 242 89t81 300v37q0 230 -78 331t-247 101q-146 0 -223.5 -113.5t-77.5 -320.5t76.5 -315.5t226.5 -108.5zM565 -20q-212 0 -331 149t-119 416q0 269 120 420t334 151q225 0 346 -170h9l24 150h131v-1588h-166v469q0 100 11 170h-13q-115 -167 -346 -167z " glyph-name="q" horiz-adv-x="1255" unicode="q"/>
<glyph d="M676 1116q73 0 131 -12l-23 -154q-68 15 -120 15q-133 0 -227.5 -108t-94.5 -269v-588h-166v1096h137l19 -203h8q61 107 147 165t189 58z" glyph-name="r" horiz-adv-x="836" unicode="r"/>
<glyph d="M883 299q0 -153 -114 -236t-320 -83q-218 0 -340 69v154q79 -40 169.5 -63t174.5 -23q130 0 200 41.5t70 126.5q0 64 -55.5 109.5t-216.5 107.5q-153 57 -217.5 99.5t-96 96.5t-31.5 129q0 134 109 211.5t299 77.5q177 0 346 -72l-59 -135q-165 68 -299 68 q-118 0 -178 -37t-60 -102q0 -44 22.5 -75t72.5 -59t192 -81q195 -71 263.5 -143t68.5 -181z" glyph-name="s" horiz-adv-x="977" unicode="s"/>
<glyph d="M530 117q44 0 85 6.5t65 13.5v-127q-27 -13 -79.5 -21.5t-94.5 -8.5q-318 0 -318 335v652h-157v80l157 69l70 234h96v-254h318v-129h-318v-645q0 -99 47 -152t129 -53z" glyph-name="t" horiz-adv-x="723" unicode="t"/>
<glyph d="M332 1096v-711q0 -134 61 -200t191 -66q172 0 251.5 94t79.5 307v576h166v-1096h-137l-24 147h-9q-51 -81 -141.5 -124t-206.5 -43q-200 0 -299.5 95t-99.5 304v717h168z" glyph-name="u" horiz-adv-x="1257" unicode="u"/>
<glyph d="M416 0l-416 1096h178l236 -650q80 -228 94 -296h8q11 53 69.5 219.5t262.5 726.5h178l-416 -1096h-194z" glyph-name="v" horiz-adv-x="1026" unicode="v"/>
<glyph d="M1071 0l-201 643q-19 59 -71 268h-8q-40 -175 -70 -270l-207 -641h-192l-299 1096h174q106 -413 161.5 -629t63.5 -291h8q11 57 35.5 147.5t42.5 143.5l201 629h180l196 -629q56 -172 76 -289h8q4 36 21.5 111t208.5 807h172l-303 -1096h-197z" glyph-name="w" horiz-adv-x="1593" unicode="w"/>
<glyph d="M440 561l-381 535h189l289 -420l288 420h187l-381 -535l401 -561h-188l-307 444l-310 -444h-188z" glyph-name="x" horiz-adv-x="1073" unicode="x"/>
<glyph d="M2 1096h178l240 -625q79 -214 98 -309h8q13 51 54.5 174.5t271.5 759.5h178l-471 -1248q-70 -185 -163.5 -262.5t-229.5 -77.5q-76 0 -150 17v133q55 -12 123 -12q171 0 244 192l61 156z" glyph-name="y" horiz-adv-x="1032" unicode="y"/>
<glyph d="M877 0h-795v113l598 854h-561v129h743v-129l-590 -838h605v-129z" glyph-name="z" horiz-adv-x="958" unicode="z"/>
<glyph d="M475 12q0 -102 58.5 -148t171.5 -48v-140q-190 2 -294 87t-104 239v303q0 104 -63 148.5t-183 44.5v141q130 2 188 48t58 142v306q0 155 108 241t290 86v-139q-230 -6 -230 -199v-295q0 -215 -223 -254v-12q223 -39 223 -254v-297z" glyph-name="braceleft" horiz-adv-x="776" unicode="{"/>
<glyph d="M494 1556h141v-2052h-141v2052z" glyph-name="bar" horiz-adv-x="1128" unicode="|"/>
<glyph d="M522 575q-223 39 -223 254v295q0 193 -227 199v139q184 0 289.5 -87t105.5 -240v-306q0 -97 59 -142.5t189 -47.5v-141q-122 0 -185 -44.5t-63 -148.5v-303q0 -153 -102.5 -238.5t-292.5 -87.5v140q111 2 169 48t58 148v297q0 114 55 174t168 80v12z" glyph-name="braceright" horiz-adv-x="776" unicode="}"/>
<glyph d="M338 713q-53 0 -116.5 -33.5t-117.5 -87.5v151q100 109 244 109q68 0 124.5 -14t145.5 -52q66 -28 115 -41.5t96 -13.5q54 0 118 32t118 89v-150q-102 -110 -244 -110q-72 0 -135 16.5t-135 48.5q-75 32 -120 44t-93 12z" glyph-name="asciitilde" horiz-adv-x="1171" unicode="~"/>
<glyph glyph-name="nonbreakingspace" horiz-adv-x="532" unicode=" "/>
<glyph d="M219 684h105l51 -1057h-207zM393 983q0 -135 -121 -135q-60 0 -90 35.5t-30 99.5q0 63 31.5 99t88.5 36q51 0 86 -32t35 -103z" glyph-name="exclamdown" horiz-adv-x="547" unicode="¡"/>
<glyph d="M971 240q-105 -54 -252 -60v-200h-133v206q-203 32 -299.5 168.5t-96.5 386.5q0 508 396 570v172h135v-164q75 -3 146 -19.5t120 -39.5l-49 -140q-133 51 -242 51q-172 0 -253 -105.5t-81 -322.5q0 -212 79.5 -313.5t246.5 -101.5q141 0 283 59v-147z" glyph-name="cent" horiz-adv-x="1171" unicode="¢"/>
<glyph d="M682 1481q190 0 360 -84l-61 -133q-154 77 -297 77q-123 0 -185.5 -62t-62.5 -202v-295h422v-127h-422v-221q0 -100 -32.5 -168t-106.5 -112h795v-154h-1029v141q205 47 205 291v223h-198v127h198v316q0 178 112 280.5t302 102.5z" glyph-name="sterling" horiz-adv-x="1171" unicode="£"/>
<glyph d="M184 723q0 122 74 229l-135 140l94 92l135 -133q104 73 234 73q127 0 229 -73l137 133l95 -92l-134 -138q74 -113 74 -231q0 -131 -74 -234l131 -135l-92 -92l-137 133q-102 -71 -229 -71q-134 0 -234 73l-135 -133l-92 92l133 136q-74 107 -74 231zM313 723 q0 -112 78.5 -192t194.5 -80t195 79.5t79 192.5q0 114 -80 195t-194 81q-116 0 -194.5 -82t-78.5 -194z" glyph-name="currency" horiz-adv-x="1171" unicode="¤"/>
<glyph d="M584 735l379 727h174l-416 -770h262v-127h-317v-170h317v-127h-317v-268h-164v268h-316v127h316v170h-316v127h256l-411 770h178z" glyph-name="yen" horiz-adv-x="1171" unicode="¥"/>
<glyph d="M494 1556h141v-776h-141v776zM494 281h141v-777h-141v777z" glyph-name="brokenbar" horiz-adv-x="1128" unicode="¦"/>
<glyph d="M139 809q0 86 43 154.5t121 105.5q-74 40 -116 95.5t-42 140.5q0 121 103.5 190.5t300.5 69.5q94 0 173.5 -14.5t176.5 -53.5l-53 -131q-98 39 -165.5 52.5t-143.5 13.5q-116 0 -174 -29.5t-58 -93.5q0 -60 61.5 -102t215.5 -97q186 -68 261 -143.5t75 -182.5 q0 -90 -41 -160.5t-115 -111.5q153 -81 153 -227q0 -140 -117 -216.5t-329 -76.5q-218 0 -346 65v148q78 -37 175 -59.5t179 -22.5q134 0 204.5 38t70.5 109q0 46 -24 75t-78 58t-169 72q-142 52 -209 97t-100 102t-33 135zM285 829q0 -77 66 -129.5t233 -113.5l49 -19 q137 80 137 191q0 83 -73.5 139t-258.5 113q-68 -19 -110.5 -69t-42.5 -112z" glyph-name="section" horiz-adv-x="1057" unicode="§"/>
<glyph d="M309 1393q0 52 26.5 75t63.5 23q38 0 65.5 -23t27.5 -75q0 -50 -27.5 -74.5t-65.5 -24.5q-37 0 -63.5 24.5t-26.5 74.5zM690 1393q0 52 26.5 75t63.5 23t64.5 -23t27.5 -75q0 -50 -27.5 -74.5t-64.5 -24.5t-63.5 24.5t-26.5 74.5z" glyph-name="dieresis" horiz-adv-x="1182" unicode="¨"/>
<glyph d="M893 1059q-125 0 -192.5 -87t-67.5 -241q0 -168 63.5 -249t194.5 -81q86 0 211 45v-124q-48 -20 -98.5 -34t-120.5 -14q-194 0 -298 120.5t-104 336.5q0 209 110.5 332t301.5 123q128 0 246 -60l-58 -118q-108 51 -188 51zM100 731q0 200 100 375t275 276t377 101 q200 0 375 -100t276 -275t101 -377q0 -197 -97 -370t-272 -277t-383 -104q-207 0 -382 103.5t-272.5 276.5t-97.5 371zM205 731q0 -173 87 -323.5t237.5 -237t322.5 -86.5q174 0 323 87t236.5 235.5t87.5 324.5q0 174 -87 323t-235.5 236.5t-324.5 87.5q-174 0 -323 -87 t-236.5 -235.5t-87.5 -324.5z" glyph-name="copyright" horiz-adv-x="1704" unicode="©"/>
<glyph d="M532 801l-24 84q-92 -97 -232 -97q-95 0 -150.5 49.5t-55.5 151.5t77 154.5t242 58.5l117 4v39q0 133 -148 133q-100 0 -204 -51l-43 96q114 56 247 56q130 0 198.5 -52.5t68.5 -173.5v-452h-93zM193 989q0 -100 112 -100q201 0 201 180v49l-98 -4q-112 -4 -163.5 -32.5 t-51.5 -92.5z" glyph-name="ordfeminine" horiz-adv-x="725" unicode="ª"/>
<glyph d="M82 551l342 407l119 -69l-289 -350l289 -351l-119 -71l-342 407v27zM477 551l344 407l117 -69l-287 -350l287 -351l-117 -71l-344 407v27z" glyph-name="guillemotleft" horiz-adv-x="1018" unicode="«"/>
<glyph d="M1065 791v-527h-137v389h-824v138h961z" glyph-name="logicalnot" horiz-adv-x="1171" unicode="¬"/>
<glyph d="M84 473v152h491v-152h-491z" glyph-name="uni00AD" horiz-adv-x="659" unicode="­"/>
<glyph d="M723 762h108q80 0 128.5 41.5t48.5 105.5q0 75 -43 107.5t-136 32.5h-106v-287zM1157 913q0 -80 -42.5 -141.5t-119.5 -91.5l238 -395h-168l-207 354h-135v-354h-148v891h261q166 0 243.5 -65t77.5 -198zM100 731q0 200 100 375t275 276t377 101q200 0 375 -100t276 -275 t101 -377q0 -197 -97 -370t-272 -277t-383 -104q-207 0 -382 103.5t-272.5 276.5t-97.5 371zM205 731q0 -173 87 -323.5t237.5 -237t322.5 -86.5q174 0 323 87t236.5 235.5t87.5 324.5q0 174 -87 323t-235.5 236.5t-324.5 87.5q-174 0 -323 -87t-236.5 -235.5t-87.5 -324.5z " glyph-name="registered" horiz-adv-x="1704" unicode="®"/>
<glyph d="M1030 1556h-1036v127h1036v-127z" glyph-name="overscore" horiz-adv-x="1024" unicode="¯"/>
<glyph d="M127 1171q0 130 90.5 221t220.5 91t221 -90.5t91 -221.5q0 -84 -41 -155.5t-114 -113.5t-157 -42q-130 0 -220.5 90t-90.5 221zM242 1171q0 -82 58.5 -139t139.5 -57q80 0 137.5 56.5t57.5 139.5q0 84 -56.5 140.5t-138.5 56.5q-83 0 -140.5 -57t-57.5 -140z" glyph-name="degree" horiz-adv-x="877" unicode="°"/>
<glyph d="M653 791h412v-138h-412v-426h-139v426h-410v138h410v428h139v-428zM104 1v138h961v-138h-961z" glyph-name="plusminus" horiz-adv-x="1171" unicode="±"/>
<glyph d="M653 586h-604v104l236 230q89 86 130 134.5t57.5 86.5t16.5 92q0 68 -40 102.5t-103 34.5q-52 0 -101 -19t-118 -69l-66 88q131 111 283 111q132 0 205.5 -65t73.5 -177q0 -80 -44.5 -155.5t-191.5 -213.5l-174 -165h440v-119z" glyph-name="twosuperior" horiz-adv-x="711" unicode="²"/>
<glyph d="M627 1255q0 -80 -41 -131.5t-109 -74.5q176 -47 176 -209q0 -128 -92 -199.5t-260 -71.5q-152 0 -268 56v123q147 -68 270 -68q211 0 211 162q0 145 -231 145h-117v107h119q103 0 152.5 39.5t49.5 107.5q0 61 -40 95t-107 34q-66 0 -122 -21.5t-112 -56.5l-69 90 q63 45 133 72t164 27q136 0 214.5 -59.5t78.5 -166.5z" glyph-name="threesuperior" horiz-adv-x="711" unicode="³"/>
<glyph d="M393 1266q48 62 103.5 150t87.5 153h202v-21q-44 -65 -131 -160t-151 -147h-111v25z" glyph-name="acute" horiz-adv-x="1182" unicode="´"/>
<glyph d="M342 381q0 -262 254 -262q171 0 250.5 94.5t79.5 306.5v576h166v-1096h-136l-26 147h-10q-111 -167 -340 -167q-150 0 -238 92h-10q10 -84 10 -244v-320h-166v1588h166v-715z" glyph-name="mu" horiz-adv-x="1268" unicode="µ"/>
<glyph d="M1120 -260h-114v1712h-213v-1712h-115v819q-62 -18 -146 -18q-216 0 -317.5 125t-101.5 376q0 260 109 387t341 127h557v-1816z" glyph-name="paragraph" horiz-adv-x="1341" unicode="¶"/>
<glyph d="M152 723q0 66 31 100.5t87 34.5q58 0 90.5 -34.5t32.5 -100.5q0 -65 -33 -100t-90 -35q-51 0 -84.5 31.5t-33.5 103.5z" glyph-name="periodcentered" horiz-adv-x="545" unicode="·"/>
<glyph d="M436 -289q0 -97 -76.5 -150t-226.5 -53q-51 0 -96 9v106q45 -8 104 -8q79 0 119.5 20t40.5 74q0 43 -39.5 69.5t-148.5 43.5l88 178h110l-55 -115q180 -39 180 -174z" glyph-name="cedilla" horiz-adv-x="465" unicode="¸"/>
<glyph d="M338 1462h143v-876h-133v579q0 91 6 181q-22 -22 -49 -44.5t-162 -117.5l-67 96z" glyph-name="onesuperior" horiz-adv-x="711" unicode="¹"/>
<glyph d="M702 1135q0 -164 -85.5 -255.5t-235.5 -91.5q-146 0 -230.5 93t-84.5 254q0 163 84 253.5t235 90.5q152 0 234.5 -91t82.5 -253zM188 1135q0 -122 45.5 -183t149.5 -61q105 0 151 61t46 183q0 123 -46 182t-151 59q-103 0 -149 -59t-46 -182z" glyph-name="ordmasculine" horiz-adv-x="768" unicode="º"/>
<glyph d="M936 524l-344 -407l-117 71l287 351l-287 350l117 69l344 -407v-27zM541 524l-344 -407l-117 71l287 351l-287 350l117 69l344 -407v-27z" glyph-name="guillemotright" horiz-adv-x="1018" unicode="»"/>
<glyph d="M1298 1462l-903 -1462h-143l903 1462h143zM337 1462h143v-876h-133v579q0 91 6 181q-22 -22 -49 -44.5t-162 -117.5l-67 96zM1489 203h-125v-202h-145v202h-402v101l408 579h139v-563h125v-117zM1219 320v195q0 134 6 209q-5 -12 -17 -31.5t-27 -42l-30 -45t-26 -39.5 l-168 -246h262z" glyph-name="onequarter" horiz-adv-x="1597" unicode="¼"/>
<glyph d="M1230 1462l-903 -1462h-143l903 1462h143zM308 1462h143v-876h-133v579q0 91 6 181q-22 -22 -49 -44.5t-162 -117.5l-67 96zM1499 1h-604v104l236 230q89 86 130 134.5t57.5 86.5t16.5 92q0 68 -40 102.5t-103 34.5q-52 0 -101 -19t-118 -69l-66 88q131 111 283 111 q132 0 205.5 -65t73.5 -177q0 -80 -44.5 -155.5t-191.5 -213.5l-174 -165h440v-119z" glyph-name="onehalf" horiz-adv-x="1597" unicode="½"/>
<glyph d="M620 1255q0 -80 -41 -131.5t-109 -74.5q176 -47 176 -209q0 -128 -92 -199.5t-260 -71.5q-152 0 -268 56v123q147 -68 270 -68q211 0 211 162q0 145 -231 145h-117v107h119q103 0 152.5 39.5t49.5 107.5q0 61 -40 95t-107 34q-66 0 -122 -21.5t-112 -56.5l-69 90 q63 45 133 72t164 27q136 0 214.5 -59.5t78.5 -166.5zM1390 1462l-903 -1462h-143l903 1462h143zM1569 203h-125v-202h-145v202h-402v101l408 579h139v-563h125v-117zM1299 320v195q0 134 6 209q-5 -12 -17 -31.5t-27 -42l-30 -45t-26 -39.5l-168 -246h262z" glyph-name="threequarters" horiz-adv-x="1597" unicode="¾"/>
<glyph d="M590 684v-51q0 -122 -37.5 -196t-134.5 -158q-121 -106 -151.5 -143.5t-43 -76t-12.5 -94.5q0 -100 66 -156.5t188 -56.5q80 0 155 19t173 67l59 -135q-197 -96 -395 -96q-190 0 -298 93t-108 263q0 70 17.5 122.5t49.5 97t76.5 85.5t98.5 88q101 88 133.5 146t32.5 151 v31h131zM639 983q0 -135 -121 -135q-59 0 -90 34.5t-31 100.5q0 64 33 99.5t88 35.5q51 0 86 -32t35 -103z" glyph-name="questiondown" horiz-adv-x="879" unicode="¿"/>
<glyph d="M1120 0l-182 465h-586l-180 -465h-172l578 1468h143l575 -1468h-176zM885 618l-170 453q-33 86 -68 211q-22 -96 -63 -211l-172 -453h473zM724 1579h-110q-65 52 -154 148t-129 159v21h203q32 -69 89 -159.5t101 -143.5v-25z" glyph-name="Agrave" horiz-adv-x="1296" unicode="À"/>
<glyph d="M1120 0l-182 465h-586l-180 -465h-172l578 1468h143l575 -1468h-176zM885 618l-170 453q-33 86 -68 211q-22 -96 -63 -211l-172 -453h473zM526 1604q48 62 103.5 150t87.5 153h202v-21q-44 -65 -131 -160t-151 -147h-111v25z" glyph-name="Aacute" horiz-adv-x="1296" unicode="Á"/>
<glyph d="M1120 0l-182 465h-586l-180 -465h-172l578 1468h143l575 -1468h-176zM885 618l-170 453q-33 86 -68 211q-22 -96 -63 -211l-172 -453h473zM303 1602q127 136 178 200t74 105h166q22 -42 76.5 -108.5t179.5 -196.5v-23h-119q-88 55 -221 186q-136 -134 -219 -186h-115v23z " glyph-name="Acircumflex" horiz-adv-x="1296" unicode="Â"/>
<glyph d="M1120 0l-182 465h-586l-180 -465h-172l578 1468h143l575 -1468h-176zM885 618l-170 453q-33 86 -68 211q-22 -96 -63 -211l-172 -453h473zM792 1581q-43 0 -84 18.5t-80.5 41t-76 41t-70.5 18.5q-50 0 -75.5 -30t-39.5 -91h-98q13 121 70.5 189.5t148.5 68.5 q46 0 89 -18.5t82 -41t75 -41t68 -18.5q49 0 73 29.5t39 91.5h99q-13 -121 -69.5 -189.5t-150.5 -68.5z" glyph-name="Atilde" horiz-adv-x="1296" unicode="Ã"/>
<glyph d="M1120 0l-182 465h-586l-180 -465h-172l578 1468h143l575 -1468h-176zM885 618l-170 453q-33 86 -68 211q-22 -96 -63 -211l-172 -453h473zM364 1731q0 52 26.5 75t63.5 23q38 0 65.5 -23t27.5 -75q0 -50 -27.5 -74.5t-65.5 -24.5q-37 0 -63.5 24.5t-26.5 74.5zM745 1731 q0 52 26.5 75t63.5 23t64.5 -23t27.5 -75q0 -50 -27.5 -74.5t-64.5 -24.5t-63.5 24.5t-26.5 74.5z" glyph-name="Adieresis" horiz-adv-x="1296" unicode="Ä"/>
<glyph d="M1120 0l-182 465h-586l-180 -465h-172l578 1468h143l575 -1468h-176zM885 618l-170 453q-33 86 -68 211q-22 -96 -63 -211l-172 -453h473zM870 1587q0 -98 -61.5 -157.5t-163.5 -59.5q-101 0 -161 58.5t-60 156.5t60.5 155.5t160.5 57.5q101 0 163 -59.5t62 -151.5z M762 1585q0 56 -33 86.5t-84 30.5t-84 -30.5t-33 -86.5t30 -86.5t87 -30.5q52 0 84.5 30.5t32.5 86.5z" glyph-name="Aring" horiz-adv-x="1296" unicode="Å"/>
<glyph d="M1665 0h-750v465h-514l-227 -465h-176l698 1462h969v-151h-580v-471h541v-150h-541v-538h580v-152zM469 618h446v693h-118z" glyph-name="AE" horiz-adv-x="1788" unicode="Æ"/>
<glyph d="M827 1331q-241 0 -380.5 -160.5t-139.5 -439.5q0 -287 134.5 -443.5t383.5 -156.5q153 0 349 55v-149q-152 -57 -375 -57q-323 0 -498.5 196t-175.5 557q0 226 84.5 396t244 262t375.5 92q230 0 402 -84l-72 -146q-166 78 -332 78zM950 -289q0 -97 -76.5 -150t-226.5 -53 q-51 0 -96 9v106q45 -8 104 -8q79 0 119.5 20t40.5 74q0 43 -39.5 69.5t-148.5 43.5l88 178h110l-55 -115q180 -39 180 -174z" glyph-name="Ccedilla" horiz-adv-x="1292" unicode="Ç"/>
<glyph d="M1016 0h-815v1462h815v-151h-645v-471h606v-150h-606v-538h645v-152zM713 1579h-110q-65 52 -154 148t-129 159v21h203q32 -69 89 -159.5t101 -143.5v-25z" glyph-name="Egrave" unicode="È"/>
<glyph d="M1016 0h-815v1462h815v-151h-645v-471h606v-150h-606v-538h645v-152zM456 1604q48 62 103.5 150t87.5 153h202v-21q-44 -65 -131 -160t-151 -147h-111v25z" glyph-name="Eacute" unicode="É"/>
<glyph d="M1016 0h-815v1462h815v-151h-645v-471h606v-150h-606v-538h645v-152zM263 1602q127 136 178 200t74 105h166q22 -42 76.5 -108.5t179.5 -196.5v-23h-119q-88 55 -221 186q-136 -134 -219 -186h-115v23z" glyph-name="Ecircumflex" unicode="Ê"/>
<glyph d="M1016 0h-815v1462h815v-151h-645v-471h606v-150h-606v-538h645v-152zM327 1731q0 52 26.5 75t63.5 23q38 0 65.5 -23t27.5 -75q0 -50 -27.5 -74.5t-65.5 -24.5q-37 0 -63.5 24.5t-26.5 74.5zM708 1731q0 52 26.5 75t63.5 23t64.5 -23t27.5 -75q0 -50 -27.5 -74.5 t-64.5 -24.5t-63.5 24.5t-26.5 74.5z" glyph-name="Edieresis" unicode="Ë"/>
<glyph d="M201 0v1462h170v-1462h-170zM398 1579h-110q-65 52 -154 148t-129 159v21h203q32 -69 89 -159.5t101 -143.5v-25z" glyph-name="Igrave" horiz-adv-x="571" unicode="Ì"/>
<glyph d="M201 0v1462h170v-1462h-170zM179 1604q48 62 103.5 150t87.5 153h202v-21q-44 -65 -131 -160t-151 -147h-111v25z" glyph-name="Iacute" horiz-adv-x="571" unicode="Í"/>
<glyph d="M201 0v1462h170v-1462h-170zM-57 1602q127 136 178 200t74 105h166q22 -42 76.5 -108.5t179.5 -196.5v-23h-119q-88 55 -221 186q-136 -134 -219 -186h-115v23z" glyph-name="Icircumflex" horiz-adv-x="571" unicode="Î"/>
<glyph d="M201 0v1462h170v-1462h-170zM5 1731q0 52 26.5 75t63.5 23q38 0 65.5 -23t27.5 -75q0 -50 -27.5 -74.5t-65.5 -24.5q-37 0 -63.5 24.5t-26.5 74.5zM386 1731q0 52 26.5 75t63.5 23t64.5 -23t27.5 -75q0 -50 -27.5 -74.5t-64.5 -24.5t-63.5 24.5t-26.5 74.5z" glyph-name="Idieresis" horiz-adv-x="571" unicode="Ï"/>
<glyph d="M1352 745q0 -362 -196.5 -553.5t-565.5 -191.5h-389v649h-154v150h154v663h434q337 0 527 -187.5t190 -529.5zM1171 739q0 576 -569 576h-231v-516h379v-150h-379v-502h190q610 0 610 592z" glyph-name="Eth" horiz-adv-x="1479" unicode="Ð"/>
<glyph d="M1343 0h-194l-799 1227h-8q16 -216 16 -396v-831h-157v1462h192l797 -1222h8q-2 27 -9 173.5t-5 209.5v839h159v-1462zM935 1581q-43 0 -84 18.5t-80.5 41t-76 41t-70.5 18.5q-50 0 -75.5 -30t-39.5 -91h-98q13 121 70.5 189.5t148.5 68.5q46 0 89 -18.5t82 -41t75 -41 t68 -18.5q49 0 73 29.5t39 91.5h99q-13 -121 -69.5 -189.5t-150.5 -68.5z" glyph-name="Ntilde" horiz-adv-x="1544" unicode="Ñ"/>
<glyph d="M1470 733q0 -351 -177.5 -552t-493.5 -201q-323 0 -498.5 197.5t-175.5 557.5q0 357 176 553.5t500 196.5q315 0 492 -200t177 -552zM305 733q0 -297 126.5 -450.5t367.5 -153.5q243 0 367 153t124 451q0 295 -123.5 447.5t-365.5 152.5q-243 0 -369.5 -153.5 t-126.5 -446.5zM907 1579h-110q-65 52 -154 148t-129 159v21h203q32 -69 89 -159.5t101 -143.5v-25z" glyph-name="Ograve" horiz-adv-x="1595" unicode="Ò"/>
<glyph d="M1470 733q0 -351 -177.5 -552t-493.5 -201q-323 0 -498.5 197.5t-175.5 557.5q0 357 176 553.5t500 196.5q315 0 492 -200t177 -552zM305 733q0 -297 126.5 -450.5t367.5 -153.5q243 0 367 153t124 451q0 295 -123.5 447.5t-365.5 152.5q-243 0 -369.5 -153.5 t-126.5 -446.5zM659 1604q48 62 103.5 150t87.5 153h202v-21q-44 -65 -131 -160t-151 -147h-111v25z" glyph-name="Oacute" horiz-adv-x="1595" unicode="Ó"/>
<glyph d="M1470 733q0 -351 -177.5 -552t-493.5 -201q-323 0 -498.5 197.5t-175.5 557.5q0 357 176 553.5t500 196.5q315 0 492 -200t177 -552zM305 733q0 -297 126.5 -450.5t367.5 -153.5q243 0 367 153t124 451q0 295 -123.5 447.5t-365.5 152.5q-243 0 -369.5 -153.5 t-126.5 -446.5zM448 1602q127 136 178 200t74 105h166q22 -42 76.5 -108.5t179.5 -196.5v-23h-119q-88 55 -221 186q-136 -134 -219 -186h-115v23z" glyph-name="Ocircumflex" horiz-adv-x="1595" unicode="Ô"/>
<glyph d="M1470 733q0 -351 -177.5 -552t-493.5 -201q-323 0 -498.5 197.5t-175.5 557.5q0 357 176 553.5t500 196.5q315 0 492 -200t177 -552zM305 733q0 -297 126.5 -450.5t367.5 -153.5q243 0 367 153t124 451q0 295 -123.5 447.5t-365.5 152.5q-243 0 -369.5 -153.5 t-126.5 -446.5zM942 1581q-43 0 -84 18.5t-80.5 41t-76 41t-70.5 18.5q-50 0 -75.5 -30t-39.5 -91h-98q13 121 70.5 189.5t148.5 68.5q46 0 89 -18.5t82 -41t75 -41t68 -18.5q49 0 73 29.5t39 91.5h99q-13 -121 -69.5 -189.5t-150.5 -68.5z" glyph-name="Otilde" horiz-adv-x="1595" unicode="Õ"/>
<glyph d="M1470 733q0 -351 -177.5 -552t-493.5 -201q-323 0 -498.5 197.5t-175.5 557.5q0 357 176 553.5t500 196.5q315 0 492 -200t177 -552zM305 733q0 -297 126.5 -450.5t367.5 -153.5q243 0 367 153t124 451q0 295 -123.5 447.5t-365.5 152.5q-243 0 -369.5 -153.5 t-126.5 -446.5zM522 1731q0 52 26.5 75t63.5 23q38 0 65.5 -23t27.5 -75q0 -50 -27.5 -74.5t-65.5 -24.5q-37 0 -63.5 24.5t-26.5 74.5zM903 1731q0 52 26.5 75t63.5 23t64.5 -23t27.5 -75q0 -50 -27.5 -74.5t-64.5 -24.5t-63.5 24.5t-26.5 74.5z" glyph-name="Odieresis" horiz-adv-x="1595" unicode="Ö"/>
<glyph d="M940 1176l96 -99l-352 -354l350 -352l-96 -99l-354 351l-348 -351l-101 99l350 352l-352 352l100 101l353 -355z" glyph-name="multiply" horiz-adv-x="1171" unicode="×"/>
<glyph d="M1470 733q0 -351 -177.5 -552t-493.5 -201q-235 0 -383 100l-101 -141l-120 79l108 154q-178 198 -178 563q0 357 176 553.5t500 196.5q209 0 366 -94l97 135l120 -80l-106 -148q192 -202 192 -565zM1290 733q0 272 -110 426l-672 -948q115 -82 291 -82q243 0 367 153 t124 451zM305 733q0 -262 101 -416l669 943q-106 73 -274 73q-243 0 -369.5 -153.5t-126.5 -446.5z" glyph-name="Oslash" horiz-adv-x="1595" unicode="Ø"/>
<glyph d="M1305 1462v-946q0 -250 -151 -393t-415 -143t-408.5 144t-144.5 396v942h170v-954q0 -183 100 -281t294 -98q185 0 285 98.5t100 282.5v952h170zM856 1579h-110q-65 52 -154 148t-129 159v21h203q32 -69 89 -159.5t101 -143.5v-25z" glyph-name="Ugrave" horiz-adv-x="1491" unicode="Ù"/>
<glyph d="M1305 1462v-946q0 -250 -151 -393t-415 -143t-408.5 144t-144.5 396v942h170v-954q0 -183 100 -281t294 -98q185 0 285 98.5t100 282.5v952h170zM600 1604q48 62 103.5 150t87.5 153h202v-21q-44 -65 -131 -160t-151 -147h-111v25z" glyph-name="Uacute" horiz-adv-x="1491" unicode="Ú"/>
<glyph d="M1305 1462v-946q0 -250 -151 -393t-415 -143t-408.5 144t-144.5 396v942h170v-954q0 -183 100 -281t294 -98q185 0 285 98.5t100 282.5v952h170zM393 1602q127 136 178 200t74 105h166q22 -42 76.5 -108.5t179.5 -196.5v-23h-119q-88 55 -221 186q-136 -134 -219 -186 h-115v23z" glyph-name="Ucircumflex" horiz-adv-x="1491" unicode="Û"/>
<glyph d="M1305 1462v-946q0 -250 -151 -393t-415 -143t-408.5 144t-144.5 396v942h170v-954q0 -183 100 -281t294 -98q185 0 285 98.5t100 282.5v952h170zM461 1731q0 52 26.5 75t63.5 23q38 0 65.5 -23t27.5 -75q0 -50 -27.5 -74.5t-65.5 -24.5q-37 0 -63.5 24.5t-26.5 74.5z M842 1731q0 52 26.5 75t63.5 23t64.5 -23t27.5 -75q0 -50 -27.5 -74.5t-64.5 -24.5t-63.5 24.5t-26.5 74.5z" glyph-name="Udieresis" horiz-adv-x="1491" unicode="Ü"/>
<glyph d="M573 731l390 731h184l-488 -895v-567h-172v559l-487 903h186zM442 1604q48 62 103.5 150t87.5 153h202v-21q-44 -65 -131 -160t-151 -147h-111v25z" glyph-name="Yacute" horiz-adv-x="1147" unicode="Ý"/>
<glyph d="M1145 784q0 -227 -151.5 -346t-438.5 -119h-184v-319h-170v1462h170v-256h215q281 0 420 -103.5t139 -318.5zM371 465h168q226 0 327 71.5t101 235.5q0 149 -95 218t-297 69h-204v-594z" glyph-name="Thorn" horiz-adv-x="1251" unicode="Þ"/>
<glyph d="M1049 1266q0 -135 -143 -250q-88 -70 -116 -103.5t-28 -66.5q0 -32 13.5 -53t49 -49.5t113.5 -79.5q140 -95 191 -173.5t51 -179.5q0 -160 -97 -245.5t-276 -85.5q-188 0 -295 69v154q63 -39 141 -62.5t150 -23.5q215 0 215 182q0 75 -41.5 128.5t-151.5 123.5 q-127 82 -175 143.5t-48 145.5q0 63 34.5 116t105.5 106q75 57 107 102t32 98q0 80 -68 122.5t-195 42.5q-276 0 -276 -223v-1204h-166v1202q0 178 110 271.5t332 93.5q206 0 318.5 -78.5t112.5 -222.5z" glyph-name="germandbls" horiz-adv-x="1274" unicode="ß"/>
<glyph d="M850 0l-33 156h-8q-82 -103 -163.5 -139.5t-203.5 -36.5q-163 0 -255.5 84t-92.5 239q0 332 531 348l186 6v68q0 129 -55.5 190.5t-177.5 61.5q-137 0 -310 -84l-51 127q81 44 177.5 69t193.5 25q196 0 290.5 -87t94.5 -279v-748h-123zM475 117q155 0 243.5 85t88.5 238 v99l-166 -7q-198 -7 -285.5 -61.5t-87.5 -169.5q0 -90 54.5 -137t152.5 -47zM672 1241h-110q-65 52 -154 148t-129 159v21h203q32 -69 89 -159.5t101 -143.5v-25z" glyph-name="agrave" unicode="à"/>
<glyph d="M850 0l-33 156h-8q-82 -103 -163.5 -139.5t-203.5 -36.5q-163 0 -255.5 84t-92.5 239q0 332 531 348l186 6v68q0 129 -55.5 190.5t-177.5 61.5q-137 0 -310 -84l-51 127q81 44 177.5 69t193.5 25q196 0 290.5 -87t94.5 -279v-748h-123zM475 117q155 0 243.5 85t88.5 238 v99l-166 -7q-198 -7 -285.5 -61.5t-87.5 -169.5q0 -90 54.5 -137t152.5 -47zM436 1266q48 62 103.5 150t87.5 153h202v-21q-44 -65 -131 -160t-151 -147h-111v25z" glyph-name="aacute" unicode="á"/>
<glyph d="M850 0l-33 156h-8q-82 -103 -163.5 -139.5t-203.5 -36.5q-163 0 -255.5 84t-92.5 239q0 332 531 348l186 6v68q0 129 -55.5 190.5t-177.5 61.5q-137 0 -310 -84l-51 127q81 44 177.5 69t193.5 25q196 0 290.5 -87t94.5 -279v-748h-123zM475 117q155 0 243.5 85t88.5 238 v99l-166 -7q-198 -7 -285.5 -61.5t-87.5 -169.5q0 -90 54.5 -137t152.5 -47zM228 1264q127 136 178 200t74 105h166q22 -42 76.5 -108.5t179.5 -196.5v-23h-119q-88 55 -221 186q-136 -134 -219 -186h-115v23z" glyph-name="acircumflex" unicode="â"/>
<glyph d="M850 0l-33 156h-8q-82 -103 -163.5 -139.5t-203.5 -36.5q-163 0 -255.5 84t-92.5 239q0 332 531 348l186 6v68q0 129 -55.5 190.5t-177.5 61.5q-137 0 -310 -84l-51 127q81 44 177.5 69t193.5 25q196 0 290.5 -87t94.5 -279v-748h-123zM475 117q155 0 243.5 85t88.5 238 v99l-166 -7q-198 -7 -285.5 -61.5t-87.5 -169.5q0 -90 54.5 -137t152.5 -47zM721 1243q-43 0 -84 18.5t-80.5 41t-76 41t-70.5 18.5q-50 0 -75.5 -30t-39.5 -91h-98q13 121 70.5 189.5t148.5 68.5q46 0 89 -18.5t82 -41t75 -41t68 -18.5q49 0 73 29.5t39 91.5h99 q-13 -121 -69.5 -189.5t-150.5 -68.5z" glyph-name="atilde" unicode="ã"/>
<glyph d="M850 0l-33 156h-8q-82 -103 -163.5 -139.5t-203.5 -36.5q-163 0 -255.5 84t-92.5 239q0 332 531 348l186 6v68q0 129 -55.5 190.5t-177.5 61.5q-137 0 -310 -84l-51 127q81 44 177.5 69t193.5 25q196 0 290.5 -87t94.5 -279v-748h-123zM475 117q155 0 243.5 85t88.5 238 v99l-166 -7q-198 -7 -285.5 -61.5t-87.5 -169.5q0 -90 54.5 -137t152.5 -47zM279 1393q0 52 26.5 75t63.5 23q38 0 65.5 -23t27.5 -75q0 -50 -27.5 -74.5t-65.5 -24.5q-37 0 -63.5 24.5t-26.5 74.5zM660 1393q0 52 26.5 75t63.5 23t64.5 -23t27.5 -75q0 -50 -27.5 -74.5 t-64.5 -24.5t-63.5 24.5t-26.5 74.5z" glyph-name="adieresis" unicode="ä"/>
<glyph d="M850 0l-33 156h-8q-82 -103 -163.5 -139.5t-203.5 -36.5q-163 0 -255.5 84t-92.5 239q0 332 531 348l186 6v68q0 129 -55.5 190.5t-177.5 61.5q-137 0 -310 -84l-51 127q81 44 177.5 69t193.5 25q196 0 290.5 -87t94.5 -279v-748h-123zM475 117q155 0 243.5 85t88.5 238 v99l-166 -7q-198 -7 -285.5 -61.5t-87.5 -169.5q0 -90 54.5 -137t152.5 -47zM804 1458q0 -98 -61.5 -157.5t-163.5 -59.5q-101 0 -161 58.5t-60 156.5t60.5 155.5t160.5 57.5q101 0 163 -59.5t62 -151.5zM696 1456q0 56 -33 86.5t-84 30.5t-84 -30.5t-33 -86.5t30 -86.5 t87 -30.5q52 0 84.5 30.5t32.5 86.5z" glyph-name="aring" unicode="å"/>
<glyph d="M94 303q0 161 124 250.5t378 97.5l184 6v68q0 129 -58 190.5t-177 61.5q-144 0 -307 -84l-52 127q74 41 173.5 67.5t197.5 26.5q130 0 212.5 -43.5t123.5 -138.5q53 88 138.5 136t195.5 48q192 0 308 -133.5t116 -355.5v-107h-701q8 -395 322 -395q91 0 169.5 17.5 t162.5 56.5v-148q-86 -38 -160.5 -54.5t-175.5 -16.5q-289 0 -414 233q-81 -127 -179.5 -180t-232.5 -53q-163 0 -255.5 85t-92.5 238zM268 301q0 -95 53.5 -139.5t141.5 -44.5q145 0 229 84.5t84 238.5v99l-158 -7q-186 -8 -268 -62.5t-82 -168.5zM1225 977 q-121 0 -190.5 -83t-80.5 -241h519q0 156 -64 240t-184 84z" glyph-name="ae" horiz-adv-x="1757" unicode="æ"/>
<glyph d="M614 -20q-238 0 -368.5 146.5t-130.5 414.5q0 275 132.5 425t377.5 150q79 0 158 -17t124 -40l-51 -141q-55 22 -120 36.5t-115 14.5q-334 0 -334 -426q0 -202 81.5 -310t241.5 -108q137 0 281 59v-147q-110 -57 -277 -57zM762 -289q0 -97 -76.5 -150t-226.5 -53 q-51 0 -96 9v106q45 -8 104 -8q79 0 119.5 20t40.5 74q0 43 -39.5 69.5t-148.5 43.5l88 178h110l-55 -115q180 -39 180 -174z" glyph-name="ccedilla" horiz-adv-x="975" unicode="ç"/>
<glyph d="M639 -20q-243 0 -383.5 148t-140.5 411q0 265 130.5 421t350.5 156q206 0 326 -135.5t120 -357.5v-105h-755q5 -193 97.5 -293t260.5 -100q177 0 350 74v-148q-88 -38 -166.5 -54.5t-189.5 -16.5zM594 977q-132 0 -210.5 -86t-92.5 -238h573q0 157 -70 240.5t-200 83.5z M711 1241h-110q-65 52 -154 148t-129 159v21h203q32 -69 89 -159.5t101 -143.5v-25z" glyph-name="egrave" horiz-adv-x="1149" unicode="è"/>
<glyph d="M639 -20q-243 0 -383.5 148t-140.5 411q0 265 130.5 421t350.5 156q206 0 326 -135.5t120 -357.5v-105h-755q5 -193 97.5 -293t260.5 -100q177 0 350 74v-148q-88 -38 -166.5 -54.5t-189.5 -16.5zM594 977q-132 0 -210.5 -86t-92.5 -238h573q0 157 -70 240.5t-200 83.5z M471 1266q48 62 103.5 150t87.5 153h202v-21q-44 -65 -131 -160t-151 -147h-111v25z" glyph-name="eacute" horiz-adv-x="1149" unicode="é"/>
<glyph d="M639 -20q-243 0 -383.5 148t-140.5 411q0 265 130.5 421t350.5 156q206 0 326 -135.5t120 -357.5v-105h-755q5 -193 97.5 -293t260.5 -100q177 0 350 74v-148q-88 -38 -166.5 -54.5t-189.5 -16.5zM594 977q-132 0 -210.5 -86t-92.5 -238h573q0 157 -70 240.5t-200 83.5z M259 1264q127 136 178 200t74 105h166q22 -42 76.5 -108.5t179.5 -196.5v-23h-119q-88 55 -221 186q-136 -134 -219 -186h-115v23z" glyph-name="ecircumflex" horiz-adv-x="1149" unicode="ê"/>
<glyph d="M639 -20q-243 0 -383.5 148t-140.5 411q0 265 130.5 421t350.5 156q206 0 326 -135.5t120 -357.5v-105h-755q5 -193 97.5 -293t260.5 -100q177 0 350 74v-148q-88 -38 -166.5 -54.5t-189.5 -16.5zM594 977q-132 0 -210.5 -86t-92.5 -238h573q0 157 -70 240.5t-200 83.5z M319 1393q0 52 26.5 75t63.5 23q38 0 65.5 -23t27.5 -75q0 -50 -27.5 -74.5t-65.5 -24.5q-37 0 -63.5 24.5t-26.5 74.5zM700 1393q0 52 26.5 75t63.5 23t64.5 -23t27.5 -75q0 -50 -27.5 -74.5t-64.5 -24.5t-63.5 24.5t-26.5 74.5z" glyph-name="edieresis" horiz-adv-x="1149" unicode="ë"/>
<glyph d="M342 0h-166v1096h166v-1096zM355 1241h-110q-65 52 -154 148t-129 159v21h203q32 -69 89 -159.5t101 -143.5v-25z" glyph-name="igrave" horiz-adv-x="518" unicode="ì"/>
<glyph d="M342 0h-166v1096h166v-1096zM169 1266q48 62 103.5 150t87.5 153h202v-21q-44 -65 -131 -160t-151 -147h-111v25z" glyph-name="iacute" horiz-adv-x="518" unicode="í"/>
<glyph d="M342 0h-166v1096h166v-1096zM-77 1264q127 136 178 200t74 105h166q22 -42 76.5 -108.5t179.5 -196.5v-23h-119q-88 55 -221 186q-136 -134 -219 -186h-115v23z" glyph-name="icircumflex" horiz-adv-x="518" unicode="î"/>
<glyph d="M342 0h-166v1096h166v-1096zM-20 1393q0 52 26.5 75t63.5 23q38 0 65.5 -23t27.5 -75q0 -50 -27.5 -74.5t-65.5 -24.5q-37 0 -63.5 24.5t-26.5 74.5zM361 1393q0 52 26.5 75t63.5 23t64.5 -23t27.5 -75q0 -50 -27.5 -74.5t-64.5 -24.5t-63.5 24.5t-26.5 74.5z" glyph-name="idieresis" horiz-adv-x="518" unicode="ï"/>
<glyph d="M1122 563q0 -281 -130.5 -432t-377.5 -151q-222 0 -361.5 134.5t-139.5 360.5q0 230 131.5 361t351.5 131q226 0 326 -121l8 4q-57 214 -262 405l-271 -155l-73 108l233 133q-92 62 -186 111l69 117q156 -73 258 -148l238 138l76 -107l-207 -119q152 -143 234.5 -342 t82.5 -428zM954 512q0 147 -90 232t-246 85q-337 0 -337 -360q0 -167 87.5 -258.5t249.5 -91.5q175 0 255.5 100.5t80.5 292.5z" glyph-name="eth" horiz-adv-x="1221" unicode="ð"/>
<glyph d="M926 0v709q0 134 -61 200t-191 66q-172 0 -252 -93t-80 -307v-575h-166v1096h135l27 -150h8q51 81 143 125.5t205 44.5q198 0 298 -95.5t100 -305.5v-715h-166zM802 1243q-43 0 -84 18.5t-80.5 41t-76 41t-70.5 18.5q-50 0 -75.5 -30t-39.5 -91h-98q13 121 70.5 189.5 t148.5 68.5q46 0 89 -18.5t82 -41t75 -41t68 -18.5q49 0 73 29.5t39 91.5h99q-13 -121 -69.5 -189.5t-150.5 -68.5z" glyph-name="ntilde" horiz-adv-x="1257" unicode="ñ"/>
<glyph d="M1122 549q0 -268 -135 -418.5t-373 -150.5q-147 0 -261 69t-176 198t-62 302q0 268 134 417.5t372 149.5q230 0 365.5 -153t135.5 -414zM287 549q0 -210 84 -320t247 -110t247.5 109.5t84.5 320.5q0 209 -84.5 317.5t-249.5 108.5q-163 0 -246 -107t-83 -319zM742 1241 h-110q-65 52 -154 148t-129 159v21h203q32 -69 89 -159.5t101 -143.5v-25z" glyph-name="ograve" horiz-adv-x="1237" unicode="ò"/>
<glyph d="M1122 549q0 -268 -135 -418.5t-373 -150.5q-147 0 -261 69t-176 198t-62 302q0 268 134 417.5t372 149.5q230 0 365.5 -153t135.5 -414zM287 549q0 -210 84 -320t247 -110t247.5 109.5t84.5 320.5q0 209 -84.5 317.5t-249.5 108.5q-163 0 -246 -107t-83 -319zM479 1266 q48 62 103.5 150t87.5 153h202v-21q-44 -65 -131 -160t-151 -147h-111v25z" glyph-name="oacute" horiz-adv-x="1237" unicode="ó"/>
<glyph d="M1122 549q0 -268 -135 -418.5t-373 -150.5q-147 0 -261 69t-176 198t-62 302q0 268 134 417.5t372 149.5q230 0 365.5 -153t135.5 -414zM287 549q0 -210 84 -320t247 -110t247.5 109.5t84.5 320.5q0 209 -84.5 317.5t-249.5 108.5q-163 0 -246 -107t-83 -319zM282 1264 q127 136 178 200t74 105h166q22 -42 76.5 -108.5t179.5 -196.5v-23h-119q-88 55 -221 186q-136 -134 -219 -186h-115v23z" glyph-name="ocircumflex" horiz-adv-x="1237" unicode="ô"/>
<glyph d="M1122 549q0 -268 -135 -418.5t-373 -150.5q-147 0 -261 69t-176 198t-62 302q0 268 134 417.5t372 149.5q230 0 365.5 -153t135.5 -414zM287 549q0 -210 84 -320t247 -110t247.5 109.5t84.5 320.5q0 209 -84.5 317.5t-249.5 108.5q-163 0 -246 -107t-83 -319zM773 1243 q-43 0 -84 18.5t-80.5 41t-76 41t-70.5 18.5q-50 0 -75.5 -30t-39.5 -91h-98q13 121 70.5 189.5t148.5 68.5q46 0 89 -18.5t82 -41t75 -41t68 -18.5q49 0 73 29.5t39 91.5h99q-13 -121 -69.5 -189.5t-150.5 -68.5z" glyph-name="otilde" horiz-adv-x="1237" unicode="õ"/>
<glyph d="M1122 549q0 -268 -135 -418.5t-373 -150.5q-147 0 -261 69t-176 198t-62 302q0 268 134 417.5t372 149.5q230 0 365.5 -153t135.5 -414zM287 549q0 -210 84 -320t247 -110t247.5 109.5t84.5 320.5q0 209 -84.5 317.5t-249.5 108.5q-163 0 -246 -107t-83 -319zM336 1393 q0 52 26.5 75t63.5 23q38 0 65.5 -23t27.5 -75q0 -50 -27.5 -74.5t-65.5 -24.5q-37 0 -63.5 24.5t-26.5 74.5zM717 1393q0 52 26.5 75t63.5 23t64.5 -23t27.5 -75q0 -50 -27.5 -74.5t-64.5 -24.5t-63.5 24.5t-26.5 74.5z" glyph-name="odieresis" horiz-adv-x="1237" unicode="ö"/>
<glyph d="M104 653v138h961v-138h-961zM471 373q0 60 29.5 90.5t83.5 30.5q52 0 81 -31.5t29 -89.5q0 -57 -29.5 -89t-80.5 -32q-52 0 -82.5 31.5t-30.5 89.5zM471 1071q0 60 29.5 90.5t83.5 30.5q52 0 81 -31.5t29 -89.5q0 -57 -29.5 -89t-80.5 -32q-52 0 -82.5 31.5t-30.5 89.5z " glyph-name="divide" horiz-adv-x="1171" unicode="÷"/>
<glyph d="M1122 549q0 -268 -135 -418.5t-373 -150.5q-154 0 -266 69l-84 -117l-114 78l94 131q-129 152 -129 408q0 268 134 417.5t372 149.5q154 0 270 -76l84 119l117 -76l-97 -133q127 -152 127 -401zM287 549q0 -171 53 -273l465 646q-75 53 -189 53q-163 0 -246 -107 t-83 -319zM950 549q0 164 -51 264l-465 -643q71 -51 184 -51q163 0 247.5 109.5t84.5 320.5z" glyph-name="oslash" horiz-adv-x="1237" unicode="ø"/>
<glyph d="M332 1096v-711q0 -134 61 -200t191 -66q172 0 251.5 94t79.5 307v576h166v-1096h-137l-24 147h-9q-51 -81 -141.5 -124t-206.5 -43q-200 0 -299.5 95t-99.5 304v717h168zM726 1241h-110q-65 52 -154 148t-129 159v21h203q32 -69 89 -159.5t101 -143.5v-25z" glyph-name="ugrave" horiz-adv-x="1257" unicode="ù"/>
<glyph d="M332 1096v-711q0 -134 61 -200t191 -66q172 0 251.5 94t79.5 307v576h166v-1096h-137l-24 147h-9q-51 -81 -141.5 -124t-206.5 -43q-200 0 -299.5 95t-99.5 304v717h168zM506 1266q48 62 103.5 150t87.5 153h202v-21q-44 -65 -131 -160t-151 -147h-111v25z" glyph-name="uacute" horiz-adv-x="1257" unicode="ú"/>
<glyph d="M332 1096v-711q0 -134 61 -200t191 -66q172 0 251.5 94t79.5 307v576h166v-1096h-137l-24 147h-9q-51 -81 -141.5 -124t-206.5 -43q-200 0 -299.5 95t-99.5 304v717h168zM286 1264q127 136 178 200t74 105h166q22 -42 76.5 -108.5t179.5 -196.5v-23h-119q-88 55 -221 186 q-136 -134 -219 -186h-115v23z" glyph-name="ucircumflex" horiz-adv-x="1257" unicode="û"/>
<glyph d="M332 1096v-711q0 -134 61 -200t191 -66q172 0 251.5 94t79.5 307v576h166v-1096h-137l-24 147h-9q-51 -81 -141.5 -124t-206.5 -43q-200 0 -299.5 95t-99.5 304v717h168zM342 1393q0 52 26.5 75t63.5 23q38 0 65.5 -23t27.5 -75q0 -50 -27.5 -74.5t-65.5 -24.5 q-37 0 -63.5 24.5t-26.5 74.5zM723 1393q0 52 26.5 75t63.5 23t64.5 -23t27.5 -75q0 -50 -27.5 -74.5t-64.5 -24.5t-63.5 24.5t-26.5 74.5z" glyph-name="udieresis" horiz-adv-x="1257" unicode="ü"/>
<glyph d="M2 1096h178l240 -625q79 -214 98 -309h8q13 51 54.5 174.5t271.5 759.5h178l-471 -1248q-70 -185 -163.5 -262.5t-229.5 -77.5q-76 0 -150 17v133q55 -12 123 -12q171 0 244 192l61 156zM411 1266q48 62 103.5 150t87.5 153h202v-21q-44 -65 -131 -160t-151 -147h-111v25 z" glyph-name="yacute" horiz-adv-x="1032" unicode="ý"/>
<glyph d="M344 948q66 89 151 128.5t191 39.5q215 0 335 -150t120 -417q0 -268 -120.5 -418.5t-334.5 -150.5q-222 0 -344 161h-12l4 -34q8 -77 8 -140v-459h-166v2048h166v-466q0 -52 -6 -142h8zM664 975q-168 0 -244 -92t-78 -293v-41q0 -231 77 -330.5t247 -99.5q303 0 303 432 q0 215 -74 319.5t-231 104.5z" glyph-name="thorn" horiz-adv-x="1255" unicode="þ"/>
<glyph d="M2 1096h178l240 -625q79 -214 98 -309h8q13 51 54.5 174.5t271.5 759.5h178l-471 -1248q-70 -185 -163.5 -262.5t-229.5 -77.5q-76 0 -150 17v133q55 -12 123 -12q171 0 244 192l61 156zM234 1393q0 52 26.5 75t63.5 23q38 0 65.5 -23t27.5 -75q0 -50 -27.5 -74.5 t-65.5 -24.5q-37 0 -63.5 24.5t-26.5 74.5zM615 1393q0 52 26.5 75t63.5 23t64.5 -23t27.5 -75q0 -50 -27.5 -74.5t-64.5 -24.5t-63.5 24.5t-26.5 74.5z" glyph-name="ydieresis" horiz-adv-x="1032" unicode="ÿ"/>
<glyph d="M1120 0l-182 465h-586l-180 -465h-172l578 1468h143l575 -1468h-176zM885 618l-170 453q-33 86 -68 211q-22 -96 -63 -211l-172 -453h473zM364 1716h600v-137h-600v137z" glyph-name="Amacron" horiz-adv-x="1296" unicode="Ā"/>
<glyph d="M850 0l-33 156h-8q-82 -103 -163.5 -139.5t-203.5 -36.5q-163 0 -255.5 84t-92.5 239q0 332 531 348l186 6v68q0 129 -55.5 190.5t-177.5 61.5q-137 0 -310 -84l-51 127q81 44 177.5 69t193.5 25q196 0 290.5 -87t94.5 -279v-748h-123zM475 117q155 0 243.5 85t88.5 238 v99l-166 -7q-198 -7 -285.5 -61.5t-87.5 -169.5q0 -90 54.5 -137t152.5 -47zM290 1378h600v-137h-600v137z" glyph-name="amacron" unicode="ā"/>
<glyph d="M1120 0l-182 465h-586l-180 -465h-172l578 1468h143l575 -1468h-176zM885 618l-170 453q-33 86 -68 211q-22 -96 -63 -211l-172 -453h473zM641 1579q-140 0 -218 68.5t-87 199.5h104q6 -49 26.5 -77t57 -41t121.5 -13q101 0 149 32t58 99h104q-10 -126 -93.5 -197 t-221.5 -71z" glyph-name="Abreve" horiz-adv-x="1296" unicode="Ă"/>
<glyph d="M850 0l-33 156h-8q-82 -103 -163.5 -139.5t-203.5 -36.5q-163 0 -255.5 84t-92.5 239q0 332 531 348l186 6v68q0 129 -55.5 190.5t-177.5 61.5q-137 0 -310 -84l-51 127q81 44 177.5 69t193.5 25q196 0 290.5 -87t94.5 -279v-748h-123zM475 117q155 0 243.5 85t88.5 238 v99l-166 -7q-198 -7 -285.5 -61.5t-87.5 -169.5q0 -90 54.5 -137t152.5 -47zM570 1241q-140 0 -218 68.5t-87 199.5h104q6 -49 26.5 -77t57 -41t121.5 -13q101 0 149 32t58 99h104q-10 -126 -93.5 -197t-221.5 -71z" glyph-name="abreve" unicode="ă"/>
<glyph d="M1120 0l-182 465h-586l-180 -465h-172l578 1468h143l575 -1468h-176zM885 618l-170 453q-33 86 -68 211q-22 -96 -63 -211l-172 -453h473zM1106 -238q0 -94 94 -94q42 0 97 13v-109q-65 -18 -125 -18q-207 0 -207 188q0 70 43 137.5t115 120.5h120q-68 -66 -102.5 -120.5 t-34.5 -117.5z" glyph-name="Aogonek" horiz-adv-x="1296" unicode="Ą"/>
<glyph d="M850 0l-33 156h-8q-82 -103 -163.5 -139.5t-203.5 -36.5q-163 0 -255.5 84t-92.5 239q0 332 531 348l186 6v68q0 129 -55.5 190.5t-177.5 61.5q-137 0 -310 -84l-51 127q81 44 177.5 69t193.5 25q196 0 290.5 -87t94.5 -279v-748h-123zM475 117q155 0 243.5 85t88.5 238 v99l-166 -7q-198 -7 -285.5 -61.5t-87.5 -169.5q0 -90 54.5 -137t152.5 -47zM833 -238q0 -94 94 -94q42 0 97 13v-109q-65 -18 -125 -18q-207 0 -207 188q0 70 43 137.5t115 120.5h120q-68 -66 -102.5 -120.5t-34.5 -117.5z" glyph-name="aogonek" unicode="ą"/>
<glyph d="M827 1331q-241 0 -380.5 -160.5t-139.5 -439.5q0 -287 134.5 -443.5t383.5 -156.5q153 0 349 55v-149q-152 -57 -375 -57q-323 0 -498.5 196t-175.5 557q0 226 84.5 396t244 262t375.5 92q230 0 402 -84l-72 -146q-166 78 -332 78zM657 1604q48 62 103.5 150t87.5 153 h202v-21q-44 -65 -131 -160t-151 -147h-111v25z" glyph-name="Cacute" horiz-adv-x="1292" unicode="Ć"/>
<glyph d="M614 -20q-238 0 -368.5 146.5t-130.5 414.5q0 275 132.5 425t377.5 150q79 0 158 -17t124 -40l-51 -141q-55 22 -120 36.5t-115 14.5q-334 0 -334 -426q0 -202 81.5 -310t241.5 -108q137 0 281 59v-147q-110 -57 -277 -57zM461 1266q48 62 103.5 150t87.5 153h202v-21 q-44 -65 -131 -160t-151 -147h-111v25z" glyph-name="cacute" horiz-adv-x="975" unicode="ć"/>
<glyph d="M827 1331q-241 0 -380.5 -160.5t-139.5 -439.5q0 -287 134.5 -443.5t383.5 -156.5q153 0 349 55v-149q-152 -57 -375 -57q-323 0 -498.5 196t-175.5 557q0 226 84.5 396t244 262t375.5 92q230 0 402 -84l-72 -146q-166 78 -332 78zM440 1602q127 136 178 200t74 105h166 q22 -42 76.5 -108.5t179.5 -196.5v-23h-119q-88 55 -221 186q-136 -134 -219 -186h-115v23z" glyph-name="Ccircumflex" horiz-adv-x="1292" unicode="Ĉ"/>
<glyph d="M614 -20q-238 0 -368.5 146.5t-130.5 414.5q0 275 132.5 425t377.5 150q79 0 158 -17t124 -40l-51 -141q-55 22 -120 36.5t-115 14.5q-334 0 -334 -426q0 -202 81.5 -310t241.5 -108q137 0 281 59v-147q-110 -57 -277 -57zM224 1264q127 136 178 200t74 105h166 q22 -42 76.5 -108.5t179.5 -196.5v-23h-119q-88 55 -221 186q-136 -134 -219 -186h-115v23z" glyph-name="ccircumflex" horiz-adv-x="975" unicode="ĉ"/>
<glyph d="M827 1331q-241 0 -380.5 -160.5t-139.5 -439.5q0 -287 134.5 -443.5t383.5 -156.5q153 0 349 55v-149q-152 -57 -375 -57q-323 0 -498.5 196t-175.5 557q0 226 84.5 396t244 262t375.5 92q230 0 402 -84l-72 -146q-166 78 -332 78zM701 1731q0 57 28 83.5t70 26.5 q40 0 69 -27t29 -83t-29 -83.5t-69 -27.5q-42 0 -70 27.5t-28 83.5z" glyph-name="Cdot" horiz-adv-x="1292" unicode="Ċ"/>
<glyph d="M614 -20q-238 0 -368.5 146.5t-130.5 414.5q0 275 132.5 425t377.5 150q79 0 158 -17t124 -40l-51 -141q-55 22 -120 36.5t-115 14.5q-334 0 -334 -426q0 -202 81.5 -310t241.5 -108q137 0 281 59v-147q-110 -57 -277 -57zM498 1393q0 57 28 83.5t70 26.5q40 0 69 -27 t29 -83t-29 -83.5t-69 -27.5q-42 0 -70 27.5t-28 83.5z" glyph-name="cdot" horiz-adv-x="975" unicode="ċ"/>
<glyph d="M827 1331q-241 0 -380.5 -160.5t-139.5 -439.5q0 -287 134.5 -443.5t383.5 -156.5q153 0 349 55v-149q-152 -57 -375 -57q-323 0 -498.5 196t-175.5 557q0 226 84.5 396t244 262t375.5 92q230 0 402 -84l-72 -146q-166 78 -332 78zM461 1907h115q114 -74 219 -189 q130 130 221 189h119v-25l-66 -68q-144 -148 -190 -235h-166q-23 41 -74 104t-178 199v25z" glyph-name="Ccaron" horiz-adv-x="1292" unicode="Č"/>
<glyph d="M614 -20q-238 0 -368.5 146.5t-130.5 414.5q0 275 132.5 425t377.5 150q79 0 158 -17t124 -40l-51 -141q-55 22 -120 36.5t-115 14.5q-334 0 -334 -426q0 -202 81.5 -310t241.5 -108q137 0 281 59v-147q-110 -57 -277 -57zM255 1569h115q114 -74 219 -189 q130 130 221 189h119v-25l-66 -68q-144 -148 -190 -235h-166q-23 41 -74 104t-178 199v25z" glyph-name="ccaron" horiz-adv-x="975" unicode="č"/>
<glyph d="M1368 745q0 -362 -196.5 -553.5t-565.5 -191.5h-405v1462h448q341 0 530 -189t189 -528zM1188 739q0 286 -143.5 431t-426.5 145h-247v-1168h207q304 0 457 149.5t153 442.5zM356 1907h115q114 -74 219 -189q130 130 221 189h119v-25l-66 -68q-144 -148 -190 -235h-166 q-23 41 -74 104t-178 199v25z" glyph-name="Dcaron" horiz-adv-x="1493" unicode="Ď"/>
<glyph d="M922 147h-9q-115 -167 -344 -167q-215 0 -334.5 147t-119.5 418t120 421t334 150q223 0 342 -162h13l-7 79l-4 77v446h166v-1556h-135zM590 119q170 0 246.5 92.5t76.5 298.5v35q0 233 -77.5 332.5t-247.5 99.5q-146 0 -223.5 -113.5t-77.5 -320.5q0 -210 77 -317 t226 -107zM1173 1253q19 55 38.5 138.5t29.5 164.5h168v-18q-11 -51 -55 -145t-91 -164h-90v24z" glyph-name="dcaron" horiz-adv-x="1255" unicode="ď"/>
<glyph d="M1352 745q0 -362 -196.5 -553.5t-565.5 -191.5h-389v649h-154v150h154v663h434q337 0 527 -187.5t190 -529.5zM1171 739q0 576 -569 576h-231v-516h379v-150h-379v-502h190q610 0 610 592z" glyph-name="Dcroat" horiz-adv-x="1479" unicode="Đ"/>
<glyph d="M922 147h-9q-115 -167 -344 -167q-215 0 -334.5 147t-119.5 418t120 421t334 150q223 0 342 -162h13q-11 83 -11 156v133h-448v129h448v184h166v-184h156v-129h-156v-1243h-135zM590 119q170 0 246.5 92.5t76.5 298.5v35q0 233 -77.5 332.5t-247.5 99.5 q-146 0 -223.5 -113.5t-77.5 -320.5q0 -210 77 -317t226 -107z" glyph-name="dcroat" horiz-adv-x="1255" unicode="đ"/>
<glyph d="M1016 0h-815v1462h815v-151h-645v-471h606v-150h-606v-538h645v-152zM319 1716h600v-137h-600v137z" glyph-name="Emacron" unicode="Ē"/>
<glyph d="M639 -20q-243 0 -383.5 148t-140.5 411q0 265 130.5 421t350.5 156q206 0 326 -135.5t120 -357.5v-105h-755q5 -193 97.5 -293t260.5 -100q177 0 350 74v-148q-88 -38 -166.5 -54.5t-189.5 -16.5zM594 977q-132 0 -210.5 -86t-92.5 -238h573q0 157 -70 240.5t-200 83.5z M311 1378h600v-137h-600v137z" glyph-name="emacron" horiz-adv-x="1149" unicode="ē"/>
<glyph d="M1016 0h-815v1462h815v-151h-645v-471h606v-150h-606v-538h645v-152zM614 1579q-140 0 -218 68.5t-87 199.5h104q6 -49 26.5 -77t57 -41t121.5 -13q101 0 149 32t58 99h104q-10 -126 -93.5 -197t-221.5 -71z" glyph-name="Ebreve" unicode="Ĕ"/>
<glyph d="M639 -20q-243 0 -383.5 148t-140.5 411q0 265 130.5 421t350.5 156q206 0 326 -135.5t120 -357.5v-105h-755q5 -193 97.5 -293t260.5 -100q177 0 350 74v-148q-88 -38 -166.5 -54.5t-189.5 -16.5zM594 977q-132 0 -210.5 -86t-92.5 -238h573q0 157 -70 240.5t-200 83.5z M593 1241q-140 0 -218 68.5t-87 199.5h104q6 -49 26.5 -77t57 -41t121.5 -13q101 0 149 32t58 99h104q-10 -126 -93.5 -197t-221.5 -71z" glyph-name="ebreve" horiz-adv-x="1149" unicode="ĕ"/>
<glyph d="M1016 0h-815v1462h815v-151h-645v-471h606v-150h-606v-538h645v-152zM529 1702q0 57 28 83.5t70 26.5q40 0 69 -27t29 -83t-29 -83.5t-69 -27.5q-42 0 -70 27.5t-28 83.5z" glyph-name="Edotaccent" unicode="Ė"/>
<glyph d="M639 -20q-243 0 -383.5 148t-140.5 411q0 265 130.5 421t350.5 156q206 0 326 -135.5t120 -357.5v-105h-755q5 -193 97.5 -293t260.5 -100q177 0 350 74v-148q-88 -38 -166.5 -54.5t-189.5 -16.5zM594 977q-132 0 -210.5 -86t-92.5 -238h573q0 157 -70 240.5t-200 83.5z M502 1393q0 57 28 83.5t70 26.5q40 0 69 -27t29 -83t-29 -83.5t-69 -27.5q-42 0 -70 27.5t-28 83.5z" glyph-name="edotaccent" horiz-adv-x="1149" unicode="ė"/>
<glyph d="M1016 0h-815v1462h815v-151h-645v-471h606v-150h-606v-538h645v-152zM805 -238q0 -94 94 -94q42 0 97 13v-109q-65 -18 -125 -18q-207 0 -207 188q0 70 43 137.5t115 120.5h120q-68 -66 -102.5 -120.5t-34.5 -117.5z" glyph-name="Eogonek" unicode="Ę"/>
<glyph d="M639 -20q-243 0 -383.5 148t-140.5 411q0 265 130.5 421t350.5 156q206 0 326 -135.5t120 -357.5v-105h-755q5 -193 97.5 -293t260.5 -100q177 0 350 74v-148q-88 -38 -166.5 -54.5t-189.5 -16.5zM594 977q-132 0 -210.5 -86t-92.5 -238h573q0 157 -70 240.5t-200 83.5z M792 -207q0 -94 94 -94q42 0 97 13v-109q-65 -18 -125 -18q-207 0 -207 188q0 70 43 137.5t115 120.5h120q-68 -66 -102.5 -120.5t-34.5 -117.5z" glyph-name="eogonek" horiz-adv-x="1149" unicode="ę"/>
<glyph d="M1016 0h-815v1462h815v-151h-645v-471h606v-150h-606v-538h645v-152zM284 1907h115q114 -74 219 -189q130 130 221 189h119v-25l-66 -68q-144 -148 -190 -235h-166q-23 41 -74 104t-178 199v25z" glyph-name="Ecaron" unicode="Ě"/>
<glyph d="M639 -20q-243 0 -383.5 148t-140.5 411q0 265 130.5 421t350.5 156q206 0 326 -135.5t120 -357.5v-105h-755q5 -193 97.5 -293t260.5 -100q177 0 350 74v-148q-88 -38 -166.5 -54.5t-189.5 -16.5zM594 977q-132 0 -210.5 -86t-92.5 -238h573q0 157 -70 240.5t-200 83.5z M263 1569h115q114 -74 219 -189q130 130 221 189h119v-25l-66 -68q-144 -148 -190 -235h-166q-23 41 -74 104t-178 199v25z" glyph-name="ecaron" horiz-adv-x="1149" unicode="ě"/>
<glyph d="M844 766h497v-711q-116 -37 -236 -56t-278 -19q-332 0 -517 197.5t-185 553.5q0 228 91.5 399.5t263.5 262t403 90.5q234 0 436 -86l-66 -150q-198 84 -381 84q-267 0 -417 -159t-150 -441q0 -296 144.5 -449t424.5 -153q152 0 297 35v450h-327v152zM501 1602 q127 136 178 200t74 105h166q22 -42 76.5 -108.5t179.5 -196.5v-23h-119q-88 55 -221 186q-136 -134 -219 -186h-115v23z" glyph-name="Gcircumflex" horiz-adv-x="1491" unicode="Ĝ"/>
<glyph d="M1073 1096v-105l-203 -24q28 -35 50 -91.5t22 -127.5q0 -161 -110 -257t-302 -96q-49 0 -92 8q-106 -56 -106 -141q0 -45 37 -66.5t127 -21.5h194q178 0 273.5 -75t95.5 -218q0 -182 -146 -277.5t-426 -95.5q-215 0 -331.5 80t-116.5 226q0 100 64 173t180 99 q-42 19 -70.5 59t-28.5 93q0 60 32 105t101 87q-85 35 -138.5 119t-53.5 192q0 180 108 277.5t306 97.5q86 0 155 -20h379zM199 -184q0 -89 75 -135t215 -46q209 0 309.5 62.5t100.5 169.5q0 89 -55 123.5t-207 34.5h-199q-113 0 -176 -54t-63 -155zM289 745q0 -115 65 -174 t181 -59q243 0 243 236q0 247 -246 247q-117 0 -180 -63t-63 -187zM214 1264q127 136 178 200t74 105h166q22 -42 76.5 -108.5t179.5 -196.5v-23h-119q-88 55 -221 186q-136 -134 -219 -186h-115v23z" glyph-name="gcircumflex" horiz-adv-x="1122" unicode="ĝ"/>
<glyph d="M844 766h497v-711q-116 -37 -236 -56t-278 -19q-332 0 -517 197.5t-185 553.5q0 228 91.5 399.5t263.5 262t403 90.5q234 0 436 -86l-66 -150q-198 84 -381 84q-267 0 -417 -159t-150 -441q0 -296 144.5 -449t424.5 -153q152 0 297 35v450h-327v152zM854 1579 q-140 0 -218 68.5t-87 199.5h104q6 -49 26.5 -77t57 -41t121.5 -13q101 0 149 32t58 99h104q-10 -126 -93.5 -197t-221.5 -71z" glyph-name="Gbreve" horiz-adv-x="1491" unicode="Ğ"/>
<glyph d="M1073 1096v-105l-203 -24q28 -35 50 -91.5t22 -127.5q0 -161 -110 -257t-302 -96q-49 0 -92 8q-106 -56 -106 -141q0 -45 37 -66.5t127 -21.5h194q178 0 273.5 -75t95.5 -218q0 -182 -146 -277.5t-426 -95.5q-215 0 -331.5 80t-116.5 226q0 100 64 173t180 99 q-42 19 -70.5 59t-28.5 93q0 60 32 105t101 87q-85 35 -138.5 119t-53.5 192q0 180 108 277.5t306 97.5q86 0 155 -20h379zM199 -184q0 -89 75 -135t215 -46q209 0 309.5 62.5t100.5 169.5q0 89 -55 123.5t-207 34.5h-199q-113 0 -176 -54t-63 -155zM289 745q0 -115 65 -174 t181 -59q243 0 243 236q0 247 -246 247q-117 0 -180 -63t-63 -187zM548 1241q-140 0 -218 68.5t-87 199.5h104q6 -49 26.5 -77t57 -41t121.5 -13q101 0 149 32t58 99h104q-10 -126 -93.5 -197t-221.5 -71z" glyph-name="gbreve" horiz-adv-x="1122" unicode="ğ"/>
<glyph d="M844 766h497v-711q-116 -37 -236 -56t-278 -19q-332 0 -517 197.5t-185 553.5q0 228 91.5 399.5t263.5 262t403 90.5q234 0 436 -86l-66 -150q-198 84 -381 84q-267 0 -417 -159t-150 -441q0 -296 144.5 -449t424.5 -153q152 0 297 35v450h-327v152zM774 1731 q0 57 28 83.5t70 26.5q40 0 69 -27t29 -83t-29 -83.5t-69 -27.5q-42 0 -70 27.5t-28 83.5z" glyph-name="Gdot" horiz-adv-x="1491" unicode="Ġ"/>
<glyph d="M1073 1096v-105l-203 -24q28 -35 50 -91.5t22 -127.5q0 -161 -110 -257t-302 -96q-49 0 -92 8q-106 -56 -106 -141q0 -45 37 -66.5t127 -21.5h194q178 0 273.5 -75t95.5 -218q0 -182 -146 -277.5t-426 -95.5q-215 0 -331.5 80t-116.5 226q0 100 64 173t180 99 q-42 19 -70.5 59t-28.5 93q0 60 32 105t101 87q-85 35 -138.5 119t-53.5 192q0 180 108 277.5t306 97.5q86 0 155 -20h379zM199 -184q0 -89 75 -135t215 -46q209 0 309.5 62.5t100.5 169.5q0 89 -55 123.5t-207 34.5h-199q-113 0 -176 -54t-63 -155zM289 745q0 -115 65 -174 t181 -59q243 0 243 236q0 247 -246 247q-117 0 -180 -63t-63 -187zM449 1393q0 57 28 83.5t70 26.5q40 0 69 -27t29 -83t-29 -83.5t-69 -27.5q-42 0 -70 27.5t-28 83.5z" glyph-name="gdot" horiz-adv-x="1122" unicode="ġ"/>
<glyph d="M844 766h497v-711q-116 -37 -236 -56t-278 -19q-332 0 -517 197.5t-185 553.5q0 228 91.5 399.5t263.5 262t403 90.5q234 0 436 -86l-66 -150q-198 84 -381 84q-267 0 -417 -159t-150 -441q0 -296 144.5 -449t424.5 -153q152 0 297 35v450h-327v152zM664 -428 q28 64 53.5 157t32.5 146h168v-18q-11 -51 -60 -147.5t-104 -162.5h-90v25z" glyph-name="Gcommaaccent" horiz-adv-x="1491" unicode="Ģ"/>
<glyph d="M1073 1096v-105l-203 -24q28 -35 50 -91.5t22 -127.5q0 -161 -110 -257t-302 -96q-49 0 -92 8q-106 -56 -106 -141q0 -45 37 -66.5t127 -21.5h194q178 0 273.5 -75t95.5 -218q0 -182 -146 -277.5t-426 -95.5q-215 0 -331.5 80t-116.5 226q0 100 64 173t180 99 q-42 19 -70.5 59t-28.5 93q0 60 32 105t101 87q-85 35 -138.5 119t-53.5 192q0 180 108 277.5t306 97.5q86 0 155 -20h379zM199 -184q0 -89 75 -135t215 -46q209 0 309.5 62.5t100.5 169.5q0 89 -55 123.5t-207 34.5h-199q-113 0 -176 -54t-63 -155zM289 745q0 -115 65 -174 t181 -59q243 0 243 236q0 247 -246 247q-117 0 -180 -63t-63 -187zM707 1544q-29 -61 -55.5 -157.5t-32.5 -145.5h-166v19q14 61 63.5 156.5t98.5 152.5h92v-25z" glyph-name="gcommaaccent" horiz-adv-x="1122" unicode="ģ"/>
<glyph d="M1311 0h-170v688h-770v-688h-170v1462h170v-622h770v622h170v-1462zM418 1602q127 136 178 200t74 105h166q22 -42 76.5 -108.5t179.5 -196.5v-23h-119q-88 55 -221 186q-136 -134 -219 -186h-115v23z" glyph-name="Hcircumflex" horiz-adv-x="1511" unicode="Ĥ"/>
<glyph d="M926 0v709q0 134 -61 200t-191 66q-173 0 -252.5 -94t-79.5 -308v-573h-166v1556h166v-471q0 -85 -8 -141h10q49 79 139.5 124.5t206.5 45.5q201 0 301.5 -95.5t100.5 -303.5v-715h-166zM299 1657q127 136 178 200t74 105h166q22 -42 76.5 -108.5t179.5 -196.5v-23h-119 q-88 55 -221 186q-136 -134 -219 -186h-115v23z" glyph-name="hcircumflex" horiz-adv-x="1257" unicode="ĥ"/>
<glyph d="M201 1214v248h170v-248h770v248h170v-248h200v-141h-200v-1073h-170v688h-770v-688h-170v1073h-201v141h201zM1141 840v233h-770v-233h770z" glyph-name="Hbar" horiz-adv-x="1511" unicode="Ħ"/>
<glyph d="M926 0v670q0 134 -61 200t-191 66q-174 0 -253 -93t-79 -306v-537h-166v1243h-156v127h156v186h166v-186h449v-127h-449v-196q0 -84 -8 -140h10q49 79 139.5 124.5t206.5 45.5q201 0 301.5 -95.5t100.5 -305.5v-676h-166z" glyph-name="hbar" horiz-adv-x="1257" unicode="ħ"/>
<glyph d="M201 0v1462h170v-1462h-170zM439 1581q-43 0 -84 18.5t-80.5 41t-76 41t-70.5 18.5q-50 0 -75.5 -30t-39.5 -91h-98q13 121 70.5 189.5t148.5 68.5q46 0 89 -18.5t82 -41t75 -41t68 -18.5q49 0 73 29.5t39 91.5h99q-13 -121 -69.5 -189.5t-150.5 -68.5z" glyph-name="Itilde" horiz-adv-x="571" unicode="Ĩ"/>
<glyph d="M342 0h-166v1096h166v-1096zM412 1243q-43 0 -84 18.5t-80.5 41t-76 41t-70.5 18.5q-50 0 -75.5 -30t-39.5 -91h-98q13 121 70.5 189.5t148.5 68.5q46 0 89 -18.5t82 -41t75 -41t68 -18.5q49 0 73 29.5t39 91.5h99q-13 -121 -69.5 -189.5t-150.5 -68.5z" glyph-name="itilde" horiz-adv-x="518" unicode="ĩ"/>
<glyph d="M201 0v1462h170v-1462h-170zM-13 1716h600v-137h-600v137z" glyph-name="Imacron" horiz-adv-x="571" unicode="Ī"/>
<glyph d="M342 0h-166v1096h166v-1096zM-38 1378h600v-137h-600v137z" glyph-name="imacron" horiz-adv-x="518" unicode="ī"/>
<glyph d="M201 0v1462h170v-1462h-170zM280 1579q-140 0 -218 68.5t-87 199.5h104q6 -49 26.5 -77t57 -41t121.5 -13q101 0 149 32t58 99h104q-10 -126 -93.5 -197t-221.5 -71z" glyph-name="Ibreve" horiz-adv-x="571" unicode="Ĭ"/>
<glyph d="M342 0h-166v1096h166v-1096zM253 1241q-140 0 -218 68.5t-87 199.5h104q6 -49 26.5 -77t57 -41t121.5 -13q101 0 149 32t58 99h104q-10 -126 -93.5 -197t-221.5 -71z" glyph-name="ibreve" horiz-adv-x="518" unicode="ĭ"/>
<glyph d="M201 0v1462h170v-1462h-170zM227 -238q0 -94 94 -94q42 0 97 13v-109q-65 -18 -125 -18q-207 0 -207 188q0 70 43 137.5t115 120.5h120q-68 -66 -102.5 -120.5t-34.5 -117.5z" glyph-name="Iogonek" horiz-adv-x="571" unicode="Į"/>
<glyph d="M342 0h-166v1096h166v-1096zM162 1393q0 57 28 83.5t70 26.5q40 0 69 -27t29 -83t-29 -83.5t-69 -27.5q-42 0 -70 27.5t-28 83.5zM194 -238q0 -94 94 -94q42 0 97 13v-109q-65 -18 -125 -18q-207 0 -207 188q0 70 43 137.5t115 120.5h120q-68 -66 -102.5 -120.5 t-34.5 -117.5z" glyph-name="iogonek" horiz-adv-x="518" unicode="į"/>
<glyph d="M201 0v1462h170v-1462h-170zM187 1731q0 57 28 83.5t70 26.5q40 0 69 -27t29 -83t-29 -83.5t-69 -27.5q-42 0 -70 27.5t-28 83.5z" glyph-name="Idotaccent" horiz-adv-x="571" unicode="İ"/>
<glyph d="M342 0h-166v1096h166v-1096z" glyph-name="dotlessi" horiz-adv-x="518" unicode="ı"/>
<glyph d="M201 0v1462h170v-1462h-170zM559 -385q-94 0 -148 27v145q71 -20 148 -20q99 0 150.5 60t51.5 173v1462h170v-1448q0 -190 -96 -294.5t-276 -104.5z" glyph-name="IJ" horiz-adv-x="1118" unicode="Ĳ"/>
<glyph d="M342 0h-166v1096h166v-1096zM162 1393q0 57 28 83.5t70 26.5q40 0 69 -27t29 -83t-29 -83.5t-69 -27.5q-42 0 -70 27.5t-28 83.5zM561 -492q-95 0 -154 25v135q69 -20 136 -20q78 0 114.5 42.5t36.5 129.5v1276h166v-1264q0 -324 -299 -324zM680 1393q0 57 28 83.5 t70 26.5q40 0 69 -27t29 -83t-29 -83.5t-69 -27.5q-42 0 -70 27.5t-28 83.5z" glyph-name="ij" horiz-adv-x="1036" unicode="ĳ"/>
<glyph d="M-12 -385q-94 0 -148 27v145q71 -20 148 -20q99 0 150.5 60t51.5 173v1462h170v-1448q0 -190 -96 -294.5t-276 -104.5zM-61 1602q127 136 178 200t74 105h166q22 -42 76.5 -108.5t179.5 -196.5v-23h-119q-88 55 -221 186q-136 -134 -219 -186h-115v23z" glyph-name="Jcircumflex" horiz-adv-x="547" unicode="Ĵ"/>
<glyph d="M43 -492q-95 0 -154 25v135q69 -20 136 -20q78 0 114.5 42.5t36.5 129.5v1276h166v-1264q0 -324 -299 -324zM-83 1264q127 136 178 200t74 105h166q22 -42 76.5 -108.5t179.5 -196.5v-23h-119q-88 55 -221 186q-136 -134 -219 -186h-115v23z" glyph-name="jcircumflex" horiz-adv-x="518" unicode="ĵ"/>
<glyph d="M1257 0h-200l-533 709l-153 -136v-573h-170v1462h170v-725l663 725h201l-588 -635zM506 -428q28 64 53.5 157t32.5 146h168v-18q-11 -51 -60 -147.5t-104 -162.5h-90v25z" glyph-name="Kcommaaccent" horiz-adv-x="1257" unicode="Ķ"/>
<glyph d="M340 561q43 61 131 160l354 375h197l-444 -467l475 -629h-201l-387 518l-125 -108v-410h-164v1556h164v-825q0 -55 -8 -170h8zM412 -428q28 64 53.5 157t32.5 146h168v-18q-11 -51 -60 -147.5t-104 -162.5h-90v25z" glyph-name="kcommaaccent" horiz-adv-x="1075" unicode="ķ"/>
<glyph d="M815 1094h207l-414 -482l443 -612h-201l-361 504l-135 -113v-391h-178v1094h178v-283q0 -166 -12 -279z" glyph-name="kgreenlandic" horiz-adv-x="1061" unicode="ĸ"/>
<glyph d="M201 0v1462h170v-1308h645v-154h-815zM236 1604q48 62 103.5 150t87.5 153h202v-21q-44 -65 -131 -160t-151 -147h-111v25z" glyph-name="Lacute" horiz-adv-x="1063" unicode="Ĺ"/>
<glyph d="M342 0h-166v1556h166v-1556zM163 1661q48 62 103.5 150t87.5 153h202v-21q-44 -65 -131 -160t-151 -147h-111v25z" glyph-name="lacute" horiz-adv-x="518" unicode="ĺ"/>
<glyph d="M201 0v1462h170v-1308h645v-154h-815zM418 -428q28 64 53.5 157t32.5 146h168v-18q-11 -51 -60 -147.5t-104 -162.5h-90v25z" glyph-name="Lcommaaccent" horiz-adv-x="1063" unicode="Ļ"/>
<glyph d="M342 0h-166v1556h166v-1556zM89 -428q28 64 53.5 157t32.5 146h168v-18q-11 -51 -60 -147.5t-104 -162.5h-90v25z" glyph-name="lcommaaccent" horiz-adv-x="518" unicode="ļ"/>
<glyph d="M201 0v1462h170v-1308h645v-154h-815zM678 1160q19 55 38.5 138.5t29.5 164.5h168v-18q-11 -51 -55 -145t-91 -164h-90v24z" glyph-name="Lcaron" horiz-adv-x="1063" unicode="Ľ"/>
<glyph d="M342 0h-166v1556h166v-1556zM436 1253q19 55 38.5 138.5t29.5 164.5h168v-18q-11 -51 -55 -145t-91 -164h-90v24z" glyph-name="lcaron" horiz-adv-x="518" unicode="ľ"/>
<glyph d="M201 0v1462h170v-1308h645v-154h-815zM678 728q0 57 28 83.5t70 26.5q40 0 69 -27t29 -83t-29 -83.5t-69 -27.5q-42 0 -70 27.5t-28 83.5z" glyph-name="Ldot" horiz-adv-x="1063" unicode="Ŀ"/>
<glyph d="M342 0h-166v1556h166v-1556zM484 681q0 57 28 83.5t70 26.5q40 0 69 -27t29 -83t-29 -83.5t-69 -27.5q-42 0 -70 27.5t-28 83.5z" glyph-name="ldot" horiz-adv-x="643" unicode="ŀ"/>
<glyph d="M201 0v508l-105 -59l-67 114l172 101v798h170v-698l297 174l67 -121l-364 -211v-452h645v-154h-815z" glyph-name="Lslash" horiz-adv-x="1071" unicode="Ł"/>
<glyph d="M342 864l137 94l72 -112l-209 -141v-705h-166v596l-110 -72l-70 113l180 119v800h166v-692z" glyph-name="lslash" horiz-adv-x="535" unicode="ł"/>
<glyph d="M1343 0h-194l-799 1227h-8q16 -216 16 -396v-831h-157v1462h192l797 -1222h8q-2 27 -9 173.5t-5 209.5v839h159v-1462zM651 1604q48 62 103.5 150t87.5 153h202v-21q-44 -65 -131 -160t-151 -147h-111v25z" glyph-name="Nacute" horiz-adv-x="1544" unicode="Ń"/>
<glyph d="M926 0v709q0 134 -61 200t-191 66q-172 0 -252 -93t-80 -307v-575h-166v1096h135l27 -150h8q51 81 143 125.5t205 44.5q198 0 298 -95.5t100 -305.5v-715h-166zM514 1266q48 62 103.5 150t87.5 153h202v-21q-44 -65 -131 -160t-151 -147h-111v25z" glyph-name="nacute" horiz-adv-x="1257" unicode="ń"/>
<glyph d="M1343 0h-194l-799 1227h-8q16 -216 16 -396v-831h-157v1462h192l797 -1222h8q-2 27 -9 173.5t-5 209.5v839h159v-1462zM574 -428q28 64 53.5 157t32.5 146h168v-18q-11 -51 -60 -147.5t-104 -162.5h-90v25z" glyph-name="Ncommaaccent" horiz-adv-x="1544" unicode="Ņ"/>
<glyph d="M926 0v709q0 134 -61 200t-191 66q-172 0 -252 -93t-80 -307v-575h-166v1096h135l27 -150h8q51 81 143 125.5t205 44.5q198 0 298 -95.5t100 -305.5v-715h-166zM455 -428q28 64 53.5 157t32.5 146h168v-18q-11 -51 -60 -147.5t-104 -162.5h-90v25z" glyph-name="ncommaaccent" horiz-adv-x="1257" unicode="ņ"/>
<glyph d="M1343 0h-194l-799 1227h-8q16 -216 16 -396v-831h-157v1462h192l797 -1222h8q-2 27 -9 173.5t-5 209.5v839h159v-1462zM434 1907h115q114 -74 219 -189q130 130 221 189h119v-25l-66 -68q-144 -148 -190 -235h-166q-23 41 -74 104t-178 199v25z" glyph-name="Ncaron" horiz-adv-x="1544" unicode="Ň"/>
<glyph d="M926 0v709q0 134 -61 200t-191 66q-172 0 -252 -93t-80 -307v-575h-166v1096h135l27 -150h8q51 81 143 125.5t205 44.5q198 0 298 -95.5t100 -305.5v-715h-166zM299 1569h115q114 -74 219 -189q130 130 221 189h119v-25l-66 -68q-144 -148 -190 -235h-166q-23 41 -74 104 t-178 199v25z" glyph-name="ncaron" horiz-adv-x="1257" unicode="ň"/>
<glyph d="M1061 0v709q0 134 -61 200t-191 66q-172 0 -252 -93t-80 -307v-575h-166v1096h135l27 -150h8q51 81 143 125.5t205 44.5q198 0 298 -95.5t100 -305.5v-715h-166zM285 1462l15 -22q-26 -100 -75 -232.5t-102 -246.5h-122q70 285 102 501h182z" glyph-name="napostrophe" horiz-adv-x="1395" unicode="ŉ"/>
<glyph d="M969 -385q-98 0 -152 27v145q71 -20 154 -20q105 0 158 61t53 172l-832 1227h-8q16 -264 16 -422v-805h-157v1462h192l797 -1202h8q-14 149 -14 373v829h159v-1448q0 -195 -96.5 -297t-277.5 -102z" glyph-name="Eng" horiz-adv-x="1544" unicode="Ŋ"/>
<glyph d="M805 -492q-86 0 -141 25v135q60 -20 122 -20q140 0 140 172v889q0 134 -61 200t-191 66q-172 0 -252 -93t-80 -307v-575h-166v1096h135l27 -150h10q52 82 142 126t200 44q203 0 302.5 -95.5t99.5 -305.5v-883q0 -154 -70 -239t-217 -85z" glyph-name="eng" horiz-adv-x="1257" unicode="ŋ"/>
<glyph d="M1470 733q0 -351 -177.5 -552t-493.5 -201q-323 0 -498.5 197.5t-175.5 557.5q0 357 176 553.5t500 196.5q315 0 492 -200t177 -552zM305 733q0 -297 126.5 -450.5t367.5 -153.5q243 0 367 153t124 451q0 295 -123.5 447.5t-365.5 152.5q-243 0 -369.5 -153.5 t-126.5 -446.5zM500 1716h600v-137h-600v137z" glyph-name="Omacron" horiz-adv-x="1595" unicode="Ō"/>
<glyph d="M1122 549q0 -268 -135 -418.5t-373 -150.5q-147 0 -261 69t-176 198t-62 302q0 268 134 417.5t372 149.5q230 0 365.5 -153t135.5 -414zM287 549q0 -210 84 -320t247 -110t247.5 109.5t84.5 320.5q0 209 -84.5 317.5t-249.5 108.5q-163 0 -246 -107t-83 -319zM319 1378 h600v-137h-600v137z" glyph-name="omacron" horiz-adv-x="1237" unicode="ō"/>
<glyph d="M1470 733q0 -351 -177.5 -552t-493.5 -201q-323 0 -498.5 197.5t-175.5 557.5q0 357 176 553.5t500 196.5q315 0 492 -200t177 -552zM305 733q0 -297 126.5 -450.5t367.5 -153.5q243 0 367 153t124 451q0 295 -123.5 447.5t-365.5 152.5q-243 0 -369.5 -153.5 t-126.5 -446.5zM791 1579q-140 0 -218 68.5t-87 199.5h104q6 -49 26.5 -77t57 -41t121.5 -13q101 0 149 32t58 99h104q-10 -126 -93.5 -197t-221.5 -71z" glyph-name="Obreve" horiz-adv-x="1595" unicode="Ŏ"/>
<glyph d="M1122 549q0 -268 -135 -418.5t-373 -150.5q-147 0 -261 69t-176 198t-62 302q0 268 134 417.5t372 149.5q230 0 365.5 -153t135.5 -414zM287 549q0 -210 84 -320t247 -110t247.5 109.5t84.5 320.5q0 209 -84.5 317.5t-249.5 108.5q-163 0 -246 -107t-83 -319zM612 1241 q-140 0 -218 68.5t-87 199.5h104q6 -49 26.5 -77t57 -41t121.5 -13q101 0 149 32t58 99h104q-10 -126 -93.5 -197t-221.5 -71z" glyph-name="obreve" horiz-adv-x="1237" unicode="ŏ"/>
<glyph d="M1470 733q0 -351 -177.5 -552t-493.5 -201q-323 0 -498.5 197.5t-175.5 557.5q0 357 176 553.5t500 196.5q315 0 492 -200t177 -552zM305 733q0 -297 126.5 -450.5t367.5 -153.5q243 0 367 153t124 451q0 295 -123.5 447.5t-365.5 152.5q-243 0 -369.5 -153.5 t-126.5 -446.5zM507 1604q36 48 91 141t86 162h186v-21q-37 -63 -122.5 -161t-143.5 -146h-97v25zM864 1604q49 68 99.5 156.5t76.5 146.5h186v-21q-37 -63 -122.5 -161t-143.5 -146h-96v25z" glyph-name="Ohungarumlaut" horiz-adv-x="1595" unicode="Ő"/>
<glyph d="M1122 549q0 -268 -135 -418.5t-373 -150.5q-147 0 -261 69t-176 198t-62 302q0 268 134 417.5t372 149.5q230 0 365.5 -153t135.5 -414zM287 549q0 -210 84 -320t247 -110t247.5 109.5t84.5 320.5q0 209 -84.5 317.5t-249.5 108.5q-163 0 -246 -107t-83 -319zM321 1266 q36 48 91 141t86 162h186v-21q-37 -63 -122.5 -161t-143.5 -146h-97v25zM678 1266q49 68 99.5 156.5t76.5 146.5h186v-21q-37 -63 -122.5 -161t-143.5 -146h-96v25z" glyph-name="ohungarumlaut" horiz-adv-x="1237" unicode="ő"/>
<glyph d="M1767 0h-768q-102 -20 -194 -20q-327 0 -503.5 196.5t-176.5 558.5q0 360 174 555t494 195q102 0 192 -23h782v-151h-589v-471h551v-150h-551v-538h589v-152zM811 1333q-249 0 -377.5 -152.5t-128.5 -447.5q0 -297 128.5 -450.5t375.5 -153.5q112 0 199 33v1141 q-87 30 -197 30z" glyph-name="OE" horiz-adv-x="1890" unicode="Œ"/>
<glyph d="M1430 -20q-293 0 -418 235q-62 -116 -166.5 -175.5t-241.5 -59.5q-223 0 -357 152.5t-134 416.5q0 265 131 415t366 150q131 0 233.5 -59.5t164.5 -173.5q58 112 154 172.5t222 60.5q201 0 320 -132.5t119 -358.5v-105h-729q8 -393 338 -393q94 0 174.5 17.5t167.5 56.5 v-148q-88 -39 -164 -55t-180 -16zM287 549q0 -211 76 -320.5t243 -109.5q163 0 239.5 106.5t76.5 315.5q0 221 -77.5 327.5t-242.5 106.5q-166 0 -240.5 -108t-74.5 -318zM1382 975q-127 0 -199.5 -82t-84.5 -240h544q0 158 -66 240t-194 82z" glyph-name="oe" horiz-adv-x="1929" unicode="œ"/>
<glyph d="M371 608v-608h-170v1462h401q269 0 397.5 -103t128.5 -310q0 -290 -294 -392l397 -657h-201l-354 608h-305zM371 754h233q180 0 264 71.5t84 214.5q0 145 -85.5 209t-274.5 64h-221v-559zM514 1604q48 62 103.5 150t87.5 153h202v-21q-44 -65 -131 -160t-151 -147h-111 v25z" glyph-name="Racute" horiz-adv-x="1266" unicode="Ŕ"/>
<glyph d="M676 1116q73 0 131 -12l-23 -154q-68 15 -120 15q-133 0 -227.5 -108t-94.5 -269v-588h-166v1096h137l19 -203h8q61 107 147 165t189 58zM357 1266q48 62 103.5 150t87.5 153h202v-21q-44 -65 -131 -160t-151 -147h-111v25z" glyph-name="racute" horiz-adv-x="836" unicode="ŕ"/>
<glyph d="M371 608v-608h-170v1462h401q269 0 397.5 -103t128.5 -310q0 -290 -294 -392l397 -657h-201l-354 608h-305zM371 754h233q180 0 264 71.5t84 214.5q0 145 -85.5 209t-274.5 64h-221v-559zM494 -428q28 64 53.5 157t32.5 146h168v-18q-11 -51 -60 -147.5t-104 -162.5h-90 v25z" glyph-name="Rcommaaccent" horiz-adv-x="1266" unicode="Ŗ"/>
<glyph d="M676 1116q73 0 131 -12l-23 -154q-68 15 -120 15q-133 0 -227.5 -108t-94.5 -269v-588h-166v1096h137l19 -203h8q61 107 147 165t189 58zM96 -428q28 64 53.5 157t32.5 146h168v-18q-11 -51 -60 -147.5t-104 -162.5h-90v25z" glyph-name="rcommaaccent" horiz-adv-x="836" unicode="ŗ"/>
<glyph d="M371 608v-608h-170v1462h401q269 0 397.5 -103t128.5 -310q0 -290 -294 -392l397 -657h-201l-354 608h-305zM371 754h233q180 0 264 71.5t84 214.5q0 145 -85.5 209t-274.5 64h-221v-559zM295 1907h115q114 -74 219 -189q130 130 221 189h119v-25l-66 -68 q-144 -148 -190 -235h-166q-23 41 -74 104t-178 199v25z" glyph-name="Rcaron" horiz-adv-x="1266" unicode="Ř"/>
<glyph d="M676 1116q73 0 131 -12l-23 -154q-68 15 -120 15q-133 0 -227.5 -108t-94.5 -269v-588h-166v1096h137l19 -203h8q61 107 147 165t189 58zM130 1569h115q114 -74 219 -189q130 130 221 189h119v-25l-66 -68q-144 -148 -190 -235h-166q-23 41 -74 104t-178 199v25z" glyph-name="rcaron" horiz-adv-x="836" unicode="ř"/>
<glyph d="M1026 389q0 -193 -140 -301t-380 -108q-260 0 -400 67v164q90 -38 196 -60t210 -22q170 0 256 64.5t86 179.5q0 76 -30.5 124.5t-102 89.5t-217.5 93q-204 73 -291.5 173t-87.5 261q0 169 127 269t336 100q218 0 401 -80l-53 -148q-181 76 -352 76q-135 0 -211 -58 t-76 -161q0 -76 28 -124.5t94.5 -89t203.5 -89.5q230 -82 316.5 -176t86.5 -244zM473 1604q48 62 103.5 150t87.5 153h202v-21q-44 -65 -131 -160t-151 -147h-111v25z" glyph-name="Sacute" horiz-adv-x="1124" unicode="Ś"/>
<glyph d="M883 299q0 -153 -114 -236t-320 -83q-218 0 -340 69v154q79 -40 169.5 -63t174.5 -23q130 0 200 41.5t70 126.5q0 64 -55.5 109.5t-216.5 107.5q-153 57 -217.5 99.5t-96 96.5t-31.5 129q0 134 109 211.5t299 77.5q177 0 346 -72l-59 -135q-165 68 -299 68 q-118 0 -178 -37t-60 -102q0 -44 22.5 -75t72.5 -59t192 -81q195 -71 263.5 -143t68.5 -181zM371 1266q48 62 103.5 150t87.5 153h202v-21q-44 -65 -131 -160t-151 -147h-111v25z" glyph-name="sacute" horiz-adv-x="977" unicode="ś"/>
<glyph d="M1026 389q0 -193 -140 -301t-380 -108q-260 0 -400 67v164q90 -38 196 -60t210 -22q170 0 256 64.5t86 179.5q0 76 -30.5 124.5t-102 89.5t-217.5 93q-204 73 -291.5 173t-87.5 261q0 169 127 269t336 100q218 0 401 -80l-53 -148q-181 76 -352 76q-135 0 -211 -58 t-76 -161q0 -76 28 -124.5t94.5 -89t203.5 -89.5q230 -82 316.5 -176t86.5 -244zM246 1602q127 136 178 200t74 105h166q22 -42 76.5 -108.5t179.5 -196.5v-23h-119q-88 55 -221 186q-136 -134 -219 -186h-115v23z" glyph-name="Scircumflex" horiz-adv-x="1124" unicode="Ŝ"/>
<glyph d="M883 299q0 -153 -114 -236t-320 -83q-218 0 -340 69v154q79 -40 169.5 -63t174.5 -23q130 0 200 41.5t70 126.5q0 64 -55.5 109.5t-216.5 107.5q-153 57 -217.5 99.5t-96 96.5t-31.5 129q0 134 109 211.5t299 77.5q177 0 346 -72l-59 -135q-165 68 -299 68 q-118 0 -178 -37t-60 -102q0 -44 22.5 -75t72.5 -59t192 -81q195 -71 263.5 -143t68.5 -181zM163 1264q127 136 178 200t74 105h166q22 -42 76.5 -108.5t179.5 -196.5v-23h-119q-88 55 -221 186q-136 -134 -219 -186h-115v23z" glyph-name="scircumflex" horiz-adv-x="977" unicode="ŝ"/>
<glyph d="M1026 389q0 -193 -140 -301t-380 -108q-260 0 -400 67v164q90 -38 196 -60t210 -22q170 0 256 64.5t86 179.5q0 76 -30.5 124.5t-102 89.5t-217.5 93q-204 73 -291.5 173t-87.5 261q0 169 127 269t336 100q218 0 401 -80l-53 -148q-181 76 -352 76q-135 0 -211 -58 t-76 -161q0 -76 28 -124.5t94.5 -89t203.5 -89.5q230 -82 316.5 -176t86.5 -244zM731 -289q0 -97 -76.5 -150t-226.5 -53q-51 0 -96 9v106q45 -8 104 -8q79 0 119.5 20t40.5 74q0 43 -39.5 69.5t-148.5 43.5l88 178h110l-55 -115q180 -39 180 -174z" glyph-name="Scedilla" horiz-adv-x="1124" unicode="Ş"/>
<glyph d="M883 299q0 -153 -114 -236t-320 -83q-218 0 -340 69v154q79 -40 169.5 -63t174.5 -23q130 0 200 41.5t70 126.5q0 64 -55.5 109.5t-216.5 107.5q-153 57 -217.5 99.5t-96 96.5t-31.5 129q0 134 109 211.5t299 77.5q177 0 346 -72l-59 -135q-165 68 -299 68 q-118 0 -178 -37t-60 -102q0 -44 22.5 -75t72.5 -59t192 -81q195 -71 263.5 -143t68.5 -181zM649 -289q0 -97 -76.5 -150t-226.5 -53q-51 0 -96 9v106q45 -8 104 -8q79 0 119.5 20t40.5 74q0 43 -39.5 69.5t-148.5 43.5l88 178h110l-55 -115q180 -39 180 -174z" glyph-name="scedilla" horiz-adv-x="977" unicode="ş"/>
<glyph d="M1026 389q0 -193 -140 -301t-380 -108q-260 0 -400 67v164q90 -38 196 -60t210 -22q170 0 256 64.5t86 179.5q0 76 -30.5 124.5t-102 89.5t-217.5 93q-204 73 -291.5 173t-87.5 261q0 169 127 269t336 100q218 0 401 -80l-53 -148q-181 76 -352 76q-135 0 -211 -58 t-76 -161q0 -76 28 -124.5t94.5 -89t203.5 -89.5q230 -82 316.5 -176t86.5 -244zM240 1907h115q114 -74 219 -189q130 130 221 189h119v-25l-66 -68q-144 -148 -190 -235h-166q-23 41 -74 104t-178 199v25z" glyph-name="Scaron" horiz-adv-x="1124" unicode="Š"/>
<glyph d="M883 299q0 -153 -114 -236t-320 -83q-218 0 -340 69v154q79 -40 169.5 -63t174.5 -23q130 0 200 41.5t70 126.5q0 64 -55.5 109.5t-216.5 107.5q-153 57 -217.5 99.5t-96 96.5t-31.5 129q0 134 109 211.5t299 77.5q177 0 346 -72l-59 -135q-165 68 -299 68 q-118 0 -178 -37t-60 -102q0 -44 22.5 -75t72.5 -59t192 -81q195 -71 263.5 -143t68.5 -181zM165 1569h115q114 -74 219 -189q130 130 221 189h119v-25l-66 -68q-144 -148 -190 -235h-166q-23 41 -74 104t-178 199v25z" glyph-name="scaron" horiz-adv-x="977" unicode="š"/>
<glyph d="M651 0h-170v1311h-463v151h1096v-151h-463v-1311zM755 -289q0 -97 -76.5 -150t-226.5 -53q-51 0 -96 9v106q45 -8 104 -8q79 0 119.5 20t40.5 74q0 43 -39.5 69.5t-148.5 43.5l88 178h110l-55 -115q180 -39 180 -174z" glyph-name="Tcedilla" horiz-adv-x="1133" unicode="Ţ"/>
<glyph d="M530 117q44 0 85 6.5t65 13.5v-127q-27 -13 -79.5 -21.5t-94.5 -8.5q-318 0 -318 335v652h-157v80l157 69l70 234h96v-254h318v-129h-318v-645q0 -99 47 -152t129 -53zM633 -289q0 -97 -76.5 -150t-226.5 -53q-51 0 -96 9v106q45 -8 104 -8q79 0 119.5 20t40.5 74 q0 43 -39.5 69.5t-148.5 43.5l88 178h110l-55 -115q180 -39 180 -174z" glyph-name="tcedilla" horiz-adv-x="723" unicode="ţ"/>
<glyph d="M651 0h-170v1311h-463v151h1096v-151h-463v-1311zM232 1907h115q114 -74 219 -189q130 130 221 189h119v-25l-66 -68q-144 -148 -190 -235h-166q-23 41 -74 104t-178 199v25z" glyph-name="Tcaron" horiz-adv-x="1133" unicode="Ť"/>
<glyph d="M530 117q44 0 85 6.5t65 13.5v-127q-27 -13 -79.5 -21.5t-94.5 -8.5q-318 0 -318 335v652h-157v80l157 69l70 234h96v-254h318v-129h-318v-645q0 -99 47 -152t129 -53zM491 1253q19 55 38.5 138.5t29.5 164.5h168v-18q-11 -51 -55 -145t-91 -164h-90v24z" glyph-name="tcaron" horiz-adv-x="723" unicode="ť"/>
<glyph d="M481 815v496h-463v151h1096v-151h-463v-496h310v-141h-310v-674h-170v674h-313v141h313z" glyph-name="Tbar" horiz-adv-x="1133" unicode="Ŧ"/>
<glyph d="M535 117q85 0 145 20v-127q-32 -14 -85 -22t-95 -8q-312 0 -312 348v254h-141v129h141v256h-157v80l157 69l70 234h96v-254h318v-129h-318v-256h301v-129h-301v-244q0 -221 181 -221z" glyph-name="tbar" horiz-adv-x="723" unicode="ŧ"/>
<glyph d="M1305 1462v-946q0 -250 -151 -393t-415 -143t-408.5 144t-144.5 396v942h170v-954q0 -183 100 -281t294 -98q185 0 285 98.5t100 282.5v952h170zM899 1581q-43 0 -84 18.5t-80.5 41t-76 41t-70.5 18.5q-50 0 -75.5 -30t-39.5 -91h-98q13 121 70.5 189.5t148.5 68.5 q46 0 89 -18.5t82 -41t75 -41t68 -18.5q49 0 73 29.5t39 91.5h99q-13 -121 -69.5 -189.5t-150.5 -68.5z" glyph-name="Utilde" horiz-adv-x="1491" unicode="Ũ"/>
<glyph d="M332 1096v-711q0 -134 61 -200t191 -66q172 0 251.5 94t79.5 307v576h166v-1096h-137l-24 147h-9q-51 -81 -141.5 -124t-206.5 -43q-200 0 -299.5 95t-99.5 304v717h168zM779 1243q-43 0 -84 18.5t-80.5 41t-76 41t-70.5 18.5q-50 0 -75.5 -30t-39.5 -91h-98 q13 121 70.5 189.5t148.5 68.5q46 0 89 -18.5t82 -41t75 -41t68 -18.5q49 0 73 29.5t39 91.5h99q-13 -121 -69.5 -189.5t-150.5 -68.5z" glyph-name="utilde" horiz-adv-x="1257" unicode="ũ"/>
<glyph d="M1305 1462v-946q0 -250 -151 -393t-415 -143t-408.5 144t-144.5 396v942h170v-954q0 -183 100 -281t294 -98q185 0 285 98.5t100 282.5v952h170zM446 1716h600v-137h-600v137z" glyph-name="Umacron" horiz-adv-x="1491" unicode="Ū"/>
<glyph d="M332 1096v-711q0 -134 61 -200t191 -66q172 0 251.5 94t79.5 307v576h166v-1096h-137l-24 147h-9q-51 -81 -141.5 -124t-206.5 -43q-200 0 -299.5 95t-99.5 304v717h168zM326 1378h600v-137h-600v137z" glyph-name="umacron" horiz-adv-x="1257" unicode="ū"/>
<glyph d="M1305 1462v-946q0 -250 -151 -393t-415 -143t-408.5 144t-144.5 396v942h170v-954q0 -183 100 -281t294 -98q185 0 285 98.5t100 282.5v952h170zM737 1579q-140 0 -218 68.5t-87 199.5h104q6 -49 26.5 -77t57 -41t121.5 -13q101 0 149 32t58 99h104q-10 -126 -93.5 -197 t-221.5 -71z" glyph-name="Ubreve" horiz-adv-x="1491" unicode="Ŭ"/>
<glyph d="M332 1096v-711q0 -134 61 -200t191 -66q172 0 251.5 94t79.5 307v576h166v-1096h-137l-24 147h-9q-51 -81 -141.5 -124t-206.5 -43q-200 0 -299.5 95t-99.5 304v717h168zM616 1241q-140 0 -218 68.5t-87 199.5h104q6 -49 26.5 -77t57 -41t121.5 -13q101 0 149 32t58 99 h104q-10 -126 -93.5 -197t-221.5 -71z" glyph-name="ubreve" horiz-adv-x="1257" unicode="ŭ"/>
<glyph d="M1305 1462v-946q0 -250 -151 -393t-415 -143t-408.5 144t-144.5 396v942h170v-954q0 -183 100 -281t294 -98q185 0 285 98.5t100 282.5v952h170zM969 1796q0 -98 -61.5 -157.5t-163.5 -59.5q-101 0 -161 58.5t-60 156.5t60.5 155.5t160.5 57.5q101 0 163 -59.5t62 -151.5 zM861 1794q0 56 -33 86.5t-84 30.5t-84 -30.5t-33 -86.5t30 -86.5t87 -30.5q52 0 84.5 30.5t32.5 86.5z" glyph-name="Uring" horiz-adv-x="1491" unicode="Ů"/>
<glyph d="M332 1096v-711q0 -134 61 -200t191 -66q172 0 251.5 94t79.5 307v576h166v-1096h-137l-24 147h-9q-51 -81 -141.5 -124t-206.5 -43q-200 0 -299.5 95t-99.5 304v717h168zM848 1458q0 -98 -61.5 -157.5t-163.5 -59.5q-101 0 -161 58.5t-60 156.5t60.5 155.5t160.5 57.5 q101 0 163 -59.5t62 -151.5zM740 1456q0 56 -33 86.5t-84 30.5t-84 -30.5t-33 -86.5t30 -86.5t87 -30.5q52 0 84.5 30.5t32.5 86.5z" glyph-name="uring" horiz-adv-x="1257" unicode="ů"/>
<glyph d="M1305 1462v-946q0 -250 -151 -393t-415 -143t-408.5 144t-144.5 396v942h170v-954q0 -183 100 -281t294 -98q185 0 285 98.5t100 282.5v952h170zM456 1604q36 48 91 141t86 162h186v-21q-37 -63 -122.5 -161t-143.5 -146h-97v25zM813 1604q49 68 99.5 156.5t76.5 146.5 h186v-21q-37 -63 -122.5 -161t-143.5 -146h-96v25z" glyph-name="Uhungarumlaut" horiz-adv-x="1491" unicode="Ű"/>
<glyph d="M332 1096v-711q0 -134 61 -200t191 -66q172 0 251.5 94t79.5 307v576h166v-1096h-137l-24 147h-9q-51 -81 -141.5 -124t-206.5 -43q-200 0 -299.5 95t-99.5 304v717h168zM335 1266q36 48 91 141t86 162h186v-21q-37 -63 -122.5 -161t-143.5 -146h-97v25zM692 1266 q49 68 99.5 156.5t76.5 146.5h186v-21q-37 -63 -122.5 -161t-143.5 -146h-96v25z" glyph-name="uhungarumlaut" horiz-adv-x="1257" unicode="ű"/>
<glyph d="M1305 1462v-946q0 -250 -151 -393t-415 -143t-408.5 144t-144.5 396v942h170v-954q0 -183 100 -281t294 -98q185 0 285 98.5t100 282.5v952h170zM723 -238q0 -94 94 -94q42 0 97 13v-109q-65 -18 -125 -18q-207 0 -207 188q0 70 43 137.5t115 120.5h120 q-68 -66 -102.5 -120.5t-34.5 -117.5z" glyph-name="Uogonek" horiz-adv-x="1491" unicode="Ų"/>
<glyph d="M332 1096v-711q0 -134 61 -200t191 -66q172 0 251.5 94t79.5 307v576h166v-1096h-137l-24 147h-9q-51 -81 -141.5 -124t-206.5 -43q-200 0 -299.5 95t-99.5 304v717h168zM934 -238q0 -94 94 -94q42 0 97 13v-109q-65 -18 -125 -18q-207 0 -207 188q0 70 43 137.5 t115 120.5h120q-68 -66 -102.5 -120.5t-34.5 -117.5z" glyph-name="uogonek" horiz-adv-x="1257" unicode="ų"/>
<glyph d="M1477 0h-168l-295 979q-21 65 -47 164t-27 119q-22 -132 -70 -289l-286 -973h-168l-389 1462h180l231 -903q48 -190 70 -344q27 183 80 358l262 889h180l275 -897q48 -155 81 -350q19 142 72 346l230 901h180zM608 1602q127 136 178 200t74 105h166q22 -42 76.5 -108.5 t179.5 -196.5v-23h-119q-88 55 -221 186q-136 -134 -219 -186h-115v23z" glyph-name="Wcircumflex" horiz-adv-x="1896" unicode="Ŵ"/>
<glyph d="M1071 0l-201 643q-19 59 -71 268h-8q-40 -175 -70 -270l-207 -641h-192l-299 1096h174q106 -413 161.5 -629t63.5 -291h8q11 57 35.5 147.5t42.5 143.5l201 629h180l196 -629q56 -172 76 -289h8q4 36 21.5 111t208.5 807h172l-303 -1096h-197zM461 1264q127 136 178 200 t74 105h166q22 -42 76.5 -108.5t179.5 -196.5v-23h-119q-88 55 -221 186q-136 -134 -219 -186h-115v23z" glyph-name="wcircumflex" horiz-adv-x="1593" unicode="ŵ"/>
<glyph d="M573 731l390 731h184l-488 -895v-567h-172v559l-487 903h186zM236 1602q127 136 178 200t74 105h166q22 -42 76.5 -108.5t179.5 -196.5v-23h-119q-88 55 -221 186q-136 -134 -219 -186h-115v23z" glyph-name="Ycircumflex" horiz-adv-x="1147" unicode="Ŷ"/>
<glyph d="M2 1096h178l240 -625q79 -214 98 -309h8q13 51 54.5 174.5t271.5 759.5h178l-471 -1248q-70 -185 -163.5 -262.5t-229.5 -77.5q-76 0 -150 17v133q55 -12 123 -12q171 0 244 192l61 156zM185 1264q127 136 178 200t74 105h166q22 -42 76.5 -108.5t179.5 -196.5v-23h-119 q-88 55 -221 186q-136 -134 -219 -186h-115v23z" glyph-name="ycircumflex" horiz-adv-x="1032" unicode="ŷ"/>
<glyph d="M573 731l390 731h184l-488 -895v-567h-172v559l-487 903h186zM294 1731q0 52 26.5 75t63.5 23q38 0 65.5 -23t27.5 -75q0 -50 -27.5 -74.5t-65.5 -24.5q-37 0 -63.5 24.5t-26.5 74.5zM675 1731q0 52 26.5 75t63.5 23t64.5 -23t27.5 -75q0 -50 -27.5 -74.5t-64.5 -24.5 t-63.5 24.5t-26.5 74.5z" glyph-name="Ydieresis" horiz-adv-x="1147" unicode="Ÿ"/>
<glyph d="M1087 0h-1005v133l776 1176h-752v153h959v-133l-776 -1175h798v-154zM459 1604q48 62 103.5 150t87.5 153h202v-21q-44 -65 -131 -160t-151 -147h-111v25z" glyph-name="Zacute" horiz-adv-x="1169" unicode="Ź"/>
<glyph d="M877 0h-795v113l598 854h-561v129h743v-129l-590 -838h605v-129zM369 1266q48 62 103.5 150t87.5 153h202v-21q-44 -65 -131 -160t-151 -147h-111v25z" glyph-name="zacute" horiz-adv-x="958" unicode="ź"/>
<glyph d="M1087 0h-1005v133l776 1176h-752v153h959v-133l-776 -1175h798v-154zM486 1731q0 57 28 83.5t70 26.5q40 0 69 -27t29 -83t-29 -83.5t-69 -27.5q-42 0 -70 27.5t-28 83.5z" glyph-name="Zdotaccent" horiz-adv-x="1169" unicode="Ż"/>
<glyph d="M877 0h-795v113l598 854h-561v129h743v-129l-590 -838h605v-129zM385 1393q0 57 28 83.5t70 26.5q40 0 69 -27t29 -83t-29 -83.5t-69 -27.5q-42 0 -70 27.5t-28 83.5z" glyph-name="zdotaccent" horiz-adv-x="958" unicode="ż"/>
<glyph d="M1087 0h-1005v133l776 1176h-752v153h959v-133l-776 -1175h798v-154zM249 1907h115q114 -74 219 -189q130 130 221 189h119v-25l-66 -68q-144 -148 -190 -235h-166q-23 41 -74 104t-178 199v25z" glyph-name="Zcaron" horiz-adv-x="1169" unicode="Ž"/>
<glyph d="M877 0h-795v113l598 854h-561v129h743v-129l-590 -838h605v-129zM146 1569h115q114 -74 219 -189q130 130 221 189h119v-25l-66 -68q-144 -148 -190 -235h-166q-23 41 -74 104t-178 199v25z" glyph-name="zcaron" horiz-adv-x="958" unicode="ž"/>
<glyph d="M342 0h-166v1180q0 387 359 387q96 0 196 -37l-43 -133q-87 30 -160 30q-97 0 -141.5 -61.5t-44.5 -183.5v-1182z" glyph-name="longs" horiz-adv-x="655" unicode="ſ"/>
<glyph d="M328 -492q-69 0 -133 19v139q70 -18 131 -18q95 0 133.5 51t38.5 164v973h-222v75l222 60v139q0 195 81 284t263 89q85 0 205 -43l-22 -64l-21 -65q-102 32 -162 32q-98 0 -138 -52.5t-40 -176.5v-149h282v-129h-278v-969q0 -184 -79 -271.5t-261 -87.5z" glyph-name="florin" horiz-adv-x="1182" unicode="ƒ"/>
<glyph d="M1468 733q0 -354 -177.5 -553.5t-491.5 -199.5q-323 0 -498.5 196.5t-175.5 558.5q0 360 176.5 555t499.5 195q325 0 504 -215q50 12 79 45.5t42.5 84.5t13.5 156h182l14 -22q-29 -155 -94.5 -241.5t-169.5 -125.5q96 -176 96 -434zM305 733q0 -298 125 -451t369 -153 q243 0 366 152.5t123 451.5q0 295 -122.5 447.5t-364.5 152.5q-243 0 -369.5 -151.5t-126.5 -448.5z" glyph-name="Ohorn" horiz-adv-x="1597" unicode="Ơ"/>
<glyph d="M1122 549q0 -268 -135 -418.5t-373 -150.5q-147 0 -261 69t-176 198t-62 302q0 268 134 417.5t372 149.5q217 0 354 -141q51 15 80 47.5t42 82t13 159.5h180l15 -23q-31 -156 -91.5 -243.5t-162.5 -125.5q71 -138 71 -323zM287 549q0 -211 79 -320.5t252 -109.5 q175 0 253.5 109.5t78.5 320.5q0 210 -79.5 318t-254.5 108q-173 0 -251 -108t-78 -318z" glyph-name="ohorn" horiz-adv-x="1247" unicode="ơ"/>
<glyph d="M1305 1462v-198q58 8 93 39t50.5 87t15.5 166h181l14 -22q-33 -182 -119 -274t-235 -117v-627q0 -258 -143.5 -397t-407.5 -139q-268 0 -418 143.5t-150 396.5v942h170v-954q0 -183 102 -281t300 -98q184 0 280.5 96.5t96.5 284.5v952h170z" glyph-name="Uhorn" horiz-adv-x="1573" unicode="Ư"/>
<glyph d="M332 1094v-709q0 -134 61 -200t191 -66q172 0 251.5 94t79.5 307v574h166v-121q82 11 119 75t37 218h178l15 -23q-32 -186 -120 -281.5t-229 -109.5v-852h-137l-24 147h-9q-52 -82 -142.5 -124.5t-201.5 -42.5q-203 0 -303 95t-100 304v715h168z" glyph-name="uhorn" horiz-adv-x="1362" unicode="ư"/>
<glyph d="M43 -492q-95 0 -154 25v135q69 -20 136 -20q78 0 114.5 42.5t36.5 129.5v1276h166v-1264q0 -324 -299 -324zM-75 1569h115q114 -74 219 -189q130 130 221 189h119v-25l-66 -68q-144 -148 -190 -235h-166q-23 41 -74 104t-178 199v25z" glyph-name="uni01F0" horiz-adv-x="518" unicode="ǰ"/>
<glyph d="M872 1430q0 -133 -104 -189l532 -1241h-174l-176 401h-610l-166 -401h-174l532 1239q-106 52 -106 188q0 101 61 158t160 57q100 0 162.5 -58.5t62.5 -153.5zM899 555l-178 432q-25 58 -72 203q-14 -48 -38 -115.5t-33 -91.5l-177 -428h498zM553 1712q49 59 100 133.5 t74 116.5h203v-16q-32 -46 -116 -126.5t-150 -125.5h-111v18zM764 1427q0 57 -33 87t-84 30t-84 -30t-33 -87q0 -55 30 -85.5t87 -30.5q53 0 85 30.5t32 85.5z" glyph-name="Aringacute" horiz-adv-x="1300" unicode="Ǻ"/>
<glyph d="M471 1753v16q46 42 99 102t75 91h260v-12q-21 -24 -103 -76.5t-210 -120.5h-121zM850 0l-33 156h-8q-82 -103 -163.5 -139.5t-203.5 -36.5q-163 0 -255.5 84t-92.5 239q0 332 537 348l180 6v68q0 130 -59.5 191t-192.5 61q-96 0 -179.5 -26t-154.5 -58l-55 127 q84 43 188 68.5t205 25.5q209 0 309.5 -87t100.5 -279v-748h-123zM475 117q155 0 243.5 85t88.5 238v99l-166 -7q-198 -7 -285.5 -61.5t-87.5 -169.5q0 -90 54.5 -137t152.5 -47zM803 1458q0 -98 -61.5 -157.5t-163.5 -59.5q-101 0 -161.5 58t-60.5 157q0 98 60.5 155.5 t161.5 57.5t163 -59.5t62 -151.5zM694 1456q0 56 -32.5 86.5t-83.5 30.5t-84 -30.5t-33 -86.5t30 -86.5t87 -30.5q52 0 84 30.5t32 86.5z" glyph-name="aringacute" unicode="ǻ"/>
<glyph d="M1665 0h-750v465h-514l-227 -465h-176l698 1462h969v-151h-580v-471h541v-150h-541v-538h580v-152zM469 618h446v693h-118zM981 1604q48 62 103.5 150t87.5 153h202v-21q-44 -65 -131 -160t-151 -147h-111v25z" glyph-name="AEacute" horiz-adv-x="1788" unicode="Ǽ"/>
<glyph d="M94 303q0 161 124 250.5t378 97.5l184 6v68q0 129 -58 190.5t-177 61.5q-144 0 -307 -84l-52 127q74 41 173.5 67.5t197.5 26.5q130 0 212.5 -43.5t123.5 -138.5q53 88 138.5 136t195.5 48q192 0 308 -133.5t116 -355.5v-107h-701q8 -395 322 -395q91 0 169.5 17.5 t162.5 56.5v-148q-86 -38 -160.5 -54.5t-175.5 -16.5q-289 0 -414 233q-81 -127 -179.5 -180t-232.5 -53q-163 0 -255.5 85t-92.5 238zM268 301q0 -95 53.5 -139.5t141.5 -44.5q145 0 229 84.5t84 238.5v99l-158 -7q-186 -8 -268 -62.5t-82 -168.5zM1225 977 q-121 0 -190.5 -83t-80.5 -241h519q0 156 -64 240t-184 84zM782 1266q48 62 103.5 150t87.5 153h202v-21q-44 -65 -131 -160t-151 -147h-111v25z" glyph-name="aeacute" horiz-adv-x="1757" unicode="ǽ"/>
<glyph d="M1470 733q0 -351 -177.5 -552t-493.5 -201q-235 0 -383 100l-101 -141l-120 79l108 154q-178 198 -178 563q0 357 176 553.5t500 196.5q209 0 366 -94l97 135l120 -80l-106 -148q192 -202 192 -565zM1290 733q0 272 -110 426l-672 -948q115 -82 291 -82q243 0 367 153 t124 451zM305 733q0 -262 101 -416l669 943q-106 73 -274 73q-243 0 -369.5 -153.5t-126.5 -446.5zM674 1604q48 62 103.5 150t87.5 153h202v-21q-44 -65 -131 -160t-151 -147h-111v25z" glyph-name="Oslashacute" horiz-adv-x="1595" unicode="Ǿ"/>
<glyph d="M1122 549q0 -268 -135 -418.5t-373 -150.5q-154 0 -266 69l-84 -117l-114 78l94 131q-129 152 -129 408q0 268 134 417.5t372 149.5q154 0 270 -76l84 119l117 -76l-97 -133q127 -152 127 -401zM287 549q0 -171 53 -273l465 646q-75 53 -189 53q-163 0 -246 -107 t-83 -319zM950 549q0 164 -51 264l-465 -643q71 -51 184 -51q163 0 247.5 109.5t84.5 320.5zM479 1266q48 62 103.5 150t87.5 153h202v-21q-44 -65 -131 -160t-151 -147h-111v25z" glyph-name="oslashacute" horiz-adv-x="1237" unicode="ǿ"/>
<glyph d="M1026 389q0 -193 -140 -301t-380 -108q-260 0 -400 67v164q90 -38 196 -60t210 -22q170 0 256 64.5t86 179.5q0 76 -30.5 124.5t-102 89.5t-217.5 93q-204 73 -291.5 173t-87.5 261q0 169 127 269t336 100q218 0 401 -80l-53 -148q-181 76 -352 76q-135 0 -211 -58 t-76 -161q0 -76 28 -124.5t94.5 -89t203.5 -89.5q230 -82 316.5 -176t86.5 -244zM375 -428q28 64 53.5 157t32.5 146h168v-18q-11 -51 -60 -147.5t-104 -162.5h-90v25z" glyph-name="Scommaaccent" horiz-adv-x="1124" unicode="Ș"/>
<glyph d="M883 299q0 -153 -114 -236t-320 -83q-218 0 -340 69v154q79 -40 169.5 -63t174.5 -23q130 0 200 41.5t70 126.5q0 64 -55.5 109.5t-216.5 107.5q-153 57 -217.5 99.5t-96 96.5t-31.5 129q0 134 109 211.5t299 77.5q177 0 346 -72l-59 -135q-165 68 -299 68 q-118 0 -178 -37t-60 -102q0 -44 22.5 -75t72.5 -59t192 -81q195 -71 263.5 -143t68.5 -181zM298 -428q28 64 53.5 157t32.5 146h168v-18q-11 -51 -60 -147.5t-104 -162.5h-90v25z" glyph-name="scommaaccent" horiz-adv-x="977" unicode="ș"/>
<glyph d="M651 0h-170v1311h-463v151h1096v-151h-463v-1311zM394 -428q28 64 53.5 157t32.5 146h168v-18q-11 -51 -60 -147.5t-104 -162.5h-90v25z" glyph-name="Tcommaaccent" horiz-adv-x="1133" unicode="Ț"/>
<glyph d="M530 117q44 0 85 6.5t65 13.5v-127q-27 -13 -79.5 -21.5t-94.5 -8.5q-318 0 -318 335v652h-157v80l157 69l70 234h96v-254h318v-129h-318v-645q0 -99 47 -152t129 -53zM243 -428q28 64 53.5 157t32.5 146h168v-18q-11 -51 -60 -147.5t-104 -162.5h-90v25z" glyph-name="tcommaaccent" horiz-adv-x="723" unicode="ț"/>
<glyph d="M43 -492q-95 0 -154 25v135q69 -20 136 -20q78 0 114.5 42.5t36.5 129.5v1276h166v-1264q0 -324 -299 -324z" glyph-name="dotlessj" horiz-adv-x="518" unicode="ȷ"/>
<glyph d="M309 1462l15 -22q-26 -100 -75 -232.5t-102 -246.5h-122q70 285 102 501h182z" glyph-name="uni02BC" horiz-adv-x="348" unicode="ʼ"/>
<glyph d="M268 1264q127 136 178 200t74 105h166q22 -42 76.5 -108.5t179.5 -196.5v-23h-119q-88 55 -221 186q-136 -134 -219 -186h-115v23z" glyph-name="circumflex" horiz-adv-x="1212" unicode="ˆ"/>
<glyph d="M268 1569h115q114 -74 219 -189q130 130 221 189h119v-25l-66 -68q-144 -148 -190 -235h-166q-23 41 -74 104t-178 199v25z" glyph-name="caron" horiz-adv-x="1212" unicode="ˇ"/>
<glyph d="M301 1378h600v-137h-600v137z" glyph-name="macron" horiz-adv-x="1202" unicode="ˉ"/>
<glyph d="M598 1241q-140 0 -218 68.5t-87 199.5h104q6 -49 26.5 -77t57 -41t121.5 -13q101 0 149 32t58 99h104q-10 -126 -93.5 -197t-221.5 -71z" glyph-name="breve" horiz-adv-x="1212" unicode="˘"/>
<glyph d="M162 1393q0 57 28 83.5t70 26.5q40 0 69 -27t29 -83t-29 -83.5t-69 -27.5q-42 0 -70 27.5t-28 83.5z" glyph-name="dotaccent" horiz-adv-x="518" unicode="˙"/>
<glyph d="M813 1458q0 -98 -61.5 -157.5t-163.5 -59.5q-101 0 -161 58.5t-60 156.5t60.5 155.5t160.5 57.5q101 0 163 -59.5t62 -151.5zM705 1456q0 56 -33 86.5t-84 30.5t-84 -30.5t-33 -86.5t30 -86.5t87 -30.5q52 0 84.5 30.5t32.5 86.5z" glyph-name="ring" horiz-adv-x="1182" unicode="˚"/>
<glyph d="M178 -238q0 -94 94 -94q42 0 97 13v-109q-65 -18 -125 -18q-207 0 -207 188q0 70 43 137.5t115 120.5h120q-68 -66 -102.5 -120.5t-34.5 -117.5z" glyph-name="ogonek" horiz-adv-x="403" unicode="˛"/>
<glyph d="M788 1243q-43 0 -84 18.5t-80.5 41t-76 41t-70.5 18.5q-50 0 -75.5 -30t-39.5 -91h-98q13 121 70.5 189.5t148.5 68.5q46 0 89 -18.5t82 -41t75 -41t68 -18.5q49 0 73 29.5t39 91.5h99q-13 -121 -69.5 -189.5t-150.5 -68.5z" glyph-name="tilde" horiz-adv-x="1212" unicode="˜"/>
<glyph d="M231 1266q36 48 91 141t86 162h186v-21q-37 -63 -122.5 -161t-143.5 -146h-97v25zM588 1266q49 68 99.5 156.5t76.5 146.5h186v-21q-37 -63 -122.5 -161t-143.5 -146h-96v25z" glyph-name="hungarumlaut" horiz-adv-x="1182" unicode="˝"/>
<glyph d="M565 -338q0 -97 -62.5 -157t-164.5 -60q-101 0 -161 58.5t-60 156.5t60 156.5t161 58.5t164 -59t63 -154zM455 -340q0 57 -33 87t-84 30t-84 -30t-33 -87q0 -56 30 -86.5t87 -30.5q53 0 85 30.5t32 86.5z" glyph-name="uni02F3" horiz-adv-x="682" unicode="˳"/>
<glyph d="M-548 1241h-110q-65 52 -154 148t-129 159v21h203q32 -69 89 -159.5t101 -143.5v-25z" glyph-name="uni0300" horiz-adv-x="0" unicode="̀"/>
<glyph d="M-755 1266q48 62 103.5 150t87.5 153h202v-21q-44 -65 -131 -160t-151 -147h-111v25z" glyph-name="uni0301" horiz-adv-x="0" unicode="́"/>
<glyph d="M-475 1243q-43 0 -84 18.5t-80.5 41t-76 41t-70.5 18.5q-50 0 -75.5 -30t-39.5 -91h-98q13 121 70.5 189.5t148.5 68.5q46 0 89 -18.5t82 -41t75 -41t68 -18.5q49 0 73 29.5t39 91.5h99q-13 -121 -69.5 -189.5t-150.5 -68.5z" glyph-name="uni0303" horiz-adv-x="0" unicode="̃"/>
<glyph d="M-397 1495q0 -140 -166 -174l-10 -113h-105l-12 176q86 14 125 39t39 68t-33.5 63.5t-106.5 20.5q-62 0 -94 -6v100q38 10 107 10q256 0 256 -184z" glyph-name="hook" horiz-adv-x="0" unicode="̉"/>
<glyph d="M-332 1241h-96q-52 42 -140.5 143t-125.5 164v21h186q28 -61 77.5 -148t98.5 -155v-25zM-688 1241h-96q-56 44 -143 144t-124 163v21h187q28 -61 77.5 -148t98.5 -155v-25z" glyph-name="uni030F" horiz-adv-x="0" unicode="̏"/>
<glyph d="M-709 -242q0 57 29.5 84t71.5 27q40 0 69 -27t29 -84q0 -55 -29 -82.5t-69 -27.5q-42 0 -71.5 27.5t-29.5 82.5z" glyph-name="dotbelow" horiz-adv-x="0" unicode="̣"/>
<glyph d="M508 1270q27 72 53.5 185.5t38.5 195.5h184v-23q-18 -74 -72.5 -192.5t-103.5 -194.5h-100v29z" glyph-name="tonos" horiz-adv-x="1182" unicode="΄"/>
<glyph d="M512 1413q65 169 96 303h189v-20q-33 -67 -93.5 -156.5t-111.5 -150.5h-80v24zM283 1393q0 52 26 75t64 23q41 0 65.5 -26t24.5 -72q0 -50 -27.5 -74.5t-62.5 -24.5q-38 0 -64 24.5t-26 74.5zM719 1393q0 52 26 75t64 23q41 0 65.5 -26t24.5 -72q0 -50 -27.5 -74.5 t-62.5 -24.5q-38 0 -64 24.5t-26 74.5z" glyph-name="dieresistonos" horiz-adv-x="1182" unicode="΅"/>
<glyph d="M1120 0l-182 465h-586l-180 -465h-172l578 1468h143l575 -1468h-176zM885 618l-170 453q-33 86 -68 211q-22 -96 -63 -211l-172 -453h473zM28 1165q27 72 53.5 185.5t38.5 195.5h184v-23q-18 -74 -72.5 -192.5t-103.5 -194.5h-100v29z" glyph-name="Alphatonos" horiz-adv-x="1296" unicode="Ά"/>
<glyph d="M152 723q0 66 31 100.5t87 34.5q58 0 90.5 -34.5t32.5 -100.5q0 -65 -33 -100t-90 -35q-51 0 -84.5 31.5t-33.5 103.5z" glyph-name="anoteleia" horiz-adv-x="545" unicode="·"/>
<glyph d="M1141 0h-815v1462h815v-151h-645v-471h606v-150h-606v-538h645v-152zM-44 1165q27 72 53.5 185.5t38.5 195.5h184v-23q-18 -74 -72.5 -192.5t-103.5 -194.5h-100v29z" glyph-name="Epsilontonos" horiz-adv-x="1266" unicode="Έ"/>
<glyph d="M1461 0h-170v688h-770v-688h-170v1462h170v-622h770v622h170v-1462zM-44 1165q27 72 53.5 185.5t38.5 195.5h184v-23q-18 -74 -72.5 -192.5t-103.5 -194.5h-100v29z" glyph-name="Etatonos" horiz-adv-x="1661" unicode="Ή"/>
<glyph d="M371 0v1462h170v-1462h-170zM-28 1165q27 72 53.5 185.5t38.5 195.5h184v-23q-18 -74 -72.5 -192.5t-103.5 -194.5h-100v29z" glyph-name="Iotatonos" horiz-adv-x="741" unicode="Ί"/>
<glyph d="M1538 733q0 -351 -177.5 -552t-493.5 -201q-323 0 -498.5 197.5t-175.5 557.5q0 357 176 553.5t500 196.5q315 0 492 -200t177 -552zM373 733q0 -297 126.5 -450.5t367.5 -153.5q243 0 367 153t124 451q0 295 -123.5 447.5t-365.5 152.5q-243 0 -369.5 -153.5 t-126.5 -446.5zM-28 1165q27 72 53.5 185.5t38.5 195.5h184v-23q-18 -74 -72.5 -192.5t-103.5 -194.5h-100v29z" glyph-name="Omicrontonos" horiz-adv-x="1665" unicode="Ό"/>
<glyph d="M839 731l390 731h184l-488 -895v-567h-172v559l-487 903h186zM-44 1165q27 72 53.5 185.5t38.5 195.5h184v-23q-18 -74 -72.5 -192.5t-103.5 -194.5h-100v29z" glyph-name="Upsilontonos" horiz-adv-x="1413" unicode="Ύ"/>
<glyph d="M864 1333q-238 0 -363 -128.5t-125 -381.5q0 -225 86.5 -391.5t266.5 -298.5v-133h-586v152h364q-151 118 -231 293t-80 378q0 310 177 486t491 176q315 0 492 -173.5t177 -486.5q0 -207 -79 -380t-230 -293h363v-152h-586v133q183 134 267.5 301t84.5 389 q0 252 -124.5 381t-364.5 129zM-28 1165q27 72 53.5 185.5t38.5 195.5h184v-23q-18 -74 -72.5 -192.5t-103.5 -194.5h-100v29z" glyph-name="Omegatonos" horiz-adv-x="1665" unicode="Ώ"/>
<glyph d="M334 1096v-774q0 -104 36.5 -154.5t123.5 -50.5q37 0 87.5 6.5t77.5 13.5v-127q-31 -13 -83.5 -21.5t-102.5 -8.5q-160 0 -232.5 84t-72.5 253v779h166zM206 1413q65 169 96 303h189v-20q-33 -67 -93.5 -156.5t-111.5 -150.5h-80v24zM-23 1393q0 52 26 75t64 23 q41 0 65.5 -26t24.5 -72q0 -50 -27.5 -74.5t-62.5 -24.5q-38 0 -64 24.5t-26 74.5zM413 1393q0 52 26 75t64 23q41 0 65.5 -26t24.5 -72q0 -50 -27.5 -74.5t-62.5 -24.5q-38 0 -64 24.5t-26 74.5z" glyph-name="iotadieresistonos" horiz-adv-x="694" unicode="ΐ"/>
<glyph d="M1120 0l-182 465h-586l-180 -465h-172l578 1468h143l575 -1468h-176zM885 618l-170 453q-33 86 -68 211q-22 -96 -63 -211l-172 -453h473z" glyph-name="Alpha" horiz-adv-x="1296" unicode="Α"/>
<glyph d="M201 1462h413q291 0 421 -87t130 -275q0 -130 -72.5 -214.5t-211.5 -109.5v-10q333 -57 333 -350q0 -196 -132.5 -306t-370.5 -110h-510v1462zM371 836h280q180 0 259 56.5t79 190.5q0 123 -88 177.5t-280 54.5h-250v-479zM371 692v-547h305q177 0 266.5 68.5t89.5 214.5 q0 136 -91.5 200t-278.5 64h-291z" glyph-name="Beta" horiz-adv-x="1327" unicode="Β"/>
<glyph d="M1016 1462v-153h-645v-1309h-170v1462h815z" glyph-name="Gamma" horiz-adv-x="1065" unicode="Γ"/>
<glyph d="M39 104l463 1358h166l465 -1360v-102h-1094v104zM584 1268q-61 -225 -101 -346l-260 -770h721l-258 761q-68 202 -102 355z" glyph-name="uni0394" horiz-adv-x="1171" unicode="Δ"/>
<glyph d="M1016 0h-815v1462h815v-151h-645v-471h606v-150h-606v-538h645v-152z" glyph-name="Epsilon" unicode="Ε"/>
<glyph d="M1087 0h-1005v133l776 1176h-752v153h959v-133l-776 -1175h798v-154z" glyph-name="Zeta" horiz-adv-x="1169" unicode="Ζ"/>
<glyph d="M1311 0h-170v688h-770v-688h-170v1462h170v-622h770v622h170v-1462z" glyph-name="Eta" horiz-adv-x="1511" unicode="Η"/>
<glyph d="M483 819h629v-149h-629v149zM1470 733q0 -351 -177.5 -552t-493.5 -201q-323 0 -498.5 197.5t-175.5 557.5q0 357 176 553.5t500 196.5q315 0 492 -200t177 -552zM305 733q0 -296 125 -450t369 -154q243 0 367 152t124 452q0 298 -123.5 449t-365.5 151 q-245 0 -370.5 -153t-125.5 -447z" glyph-name="Theta" horiz-adv-x="1595" unicode="Θ"/>
<glyph d="M201 0v1462h170v-1462h-170z" glyph-name="Iota" horiz-adv-x="571" unicode="Ι"/>
<glyph d="M1257 0h-200l-533 709l-153 -136v-573h-170v1462h170v-725l663 725h201l-588 -635z" glyph-name="Kappa" horiz-adv-x="1257" unicode="Κ"/>
<glyph d="M1235 0h-182l-330 928q-87 252 -109 342q-33 -139 -104 -340l-328 -930h-182l528 1462h177z" glyph-name="Lambda" horiz-adv-x="1235" unicode="Λ"/>
<glyph d="M848 0l-496 1296h-8q14 -154 14 -366v-930h-157v1462h256l463 -1206h8l467 1206h254v-1462h-170v942q0 162 14 352h-8l-500 -1294h-137z" glyph-name="Mu" horiz-adv-x="1849" unicode="Μ"/>
<glyph d="M1343 0h-194l-799 1227h-8q16 -216 16 -396v-831h-157v1462h192l797 -1222h8q-2 27 -9 173.5t-5 209.5v839h159v-1462z" glyph-name="Nu" horiz-adv-x="1544" unicode="Ν"/>
<glyph d="M195 840h743v-150h-743v150zM113 1462h907v-151h-907v151zM1061 152v-152h-989v152h989z" glyph-name="Xi" horiz-adv-x="1133" unicode="Ξ"/>
<glyph d="M1470 733q0 -351 -177.5 -552t-493.5 -201q-323 0 -498.5 197.5t-175.5 557.5q0 357 176 553.5t500 196.5q315 0 492 -200t177 -552zM305 733q0 -297 126.5 -450.5t367.5 -153.5q243 0 367 153t124 451q0 295 -123.5 447.5t-365.5 152.5q-243 0 -369.5 -153.5 t-126.5 -446.5z" glyph-name="Omicron" horiz-adv-x="1595" unicode="Ο"/>
<glyph d="M1292 0h-170v1311h-751v-1311h-170v1462h1091v-1462z" glyph-name="Pi" horiz-adv-x="1493" unicode="Π"/>
<glyph d="M1128 1036q0 -222 -151.5 -341.5t-433.5 -119.5h-172v-575h-170v1462h379q548 0 548 -426zM371 721h153q226 0 327 73t101 234q0 145 -95 216t-296 71h-190v-594z" glyph-name="Rho" horiz-adv-x="1233" unicode="Ρ"/>
<glyph d="M74 0v141l481 623l-469 555v143h971v-153h-676l-96 2l460 -545l-481 -614h852v-152h-1042z" glyph-name="Sigma" horiz-adv-x="1161" unicode="Σ"/>
<glyph d="M651 0h-170v1311h-463v151h1096v-151h-463v-1311z" glyph-name="Tau" horiz-adv-x="1133" unicode="Τ"/>
<glyph d="M573 731l390 731h184l-488 -895v-567h-172v559l-487 903h186z" glyph-name="Upsilon" horiz-adv-x="1147" unicode="Υ"/>
<glyph d="M731 1483h172v-180h70q171 0 296.5 -68t192 -192t66.5 -283q0 -166 -74.5 -295.5t-204 -194.5t-305.5 -65h-41v-225h-172v225h-45q-176 0 -305 66t-202 196t-73 291q0 158 67.5 282t193.5 193.5t297 69.5h67v180zM903 348h25q201 0 312.5 109.5t111.5 304.5 q0 185 -103 290t-288 105h-58v-809zM731 1157h-57q-182 0 -286.5 -106t-104.5 -289q0 -197 111 -305.5t313 -108.5h24v809z" glyph-name="Phi" horiz-adv-x="1634" unicode="Φ"/>
<glyph d="M1174 0h-193l-393 643l-400 -643h-180l486 764l-453 698h188l363 -579l366 579h181l-453 -692z" glyph-name="Chi" horiz-adv-x="1182" unicode="Χ"/>
<glyph d="M899 0h-170v446h-45q-176 0 -303.5 61t-199.5 184.5t-72 287.5v483h174v-479q0 -188 103.5 -288.5t315.5 -100.5h27v868h170v-868h29q211 0 314.5 99t103.5 286v483h176v-481q0 -165 -72 -288.5t-201.5 -185t-304.5 -61.5h-45v-446z" glyph-name="Psi" horiz-adv-x="1630" unicode="Ψ"/>
<glyph d="M801 1333q-238 0 -363 -128.5t-125 -381.5q0 -225 86.5 -391.5t266.5 -298.5v-133h-586v152h364q-151 118 -231 293t-80 378q0 310 177 486t491 176q315 0 492 -173.5t177 -486.5q0 -207 -79 -380t-230 -293h363v-152h-586v133q183 134 267.5 301t84.5 389 q0 252 -124.5 381t-364.5 129z" glyph-name="uni03A9" horiz-adv-x="1602" unicode="Ω"/>
<glyph d="M201 0v1462h170v-1462h-170zM5 1731q0 52 26.5 75t63.5 23q38 0 65.5 -23t27.5 -75q0 -50 -27.5 -74.5t-65.5 -24.5q-37 0 -63.5 24.5t-26.5 74.5zM386 1731q0 52 26.5 75t63.5 23t64.5 -23t27.5 -75q0 -50 -27.5 -74.5t-64.5 -24.5t-63.5 24.5t-26.5 74.5z" glyph-name="Iotadieresis" horiz-adv-x="571" unicode="Ϊ"/>
<glyph d="M573 731l390 731h184l-488 -895v-567h-172v559l-487 903h186zM292 1731q0 52 26.5 75t63.5 23q38 0 65.5 -23t27.5 -75q0 -50 -27.5 -74.5t-65.5 -24.5q-37 0 -63.5 24.5t-26.5 74.5zM673 1731q0 52 26.5 75t63.5 23t64.5 -23t27.5 -75q0 -50 -27.5 -74.5t-64.5 -24.5 t-63.5 24.5t-26.5 74.5z" glyph-name="Upsilondieresis" horiz-adv-x="1147" unicode="Ϋ"/>
<glyph d="M592 119q169 0 244 97.5t75 315.5v15q0 229 -76 328.5t-245 99.5q-303 0 -303 -432q0 -212 73.5 -318t231.5 -106zM567 -20q-214 0 -333 148.5t-119 416.5q0 274 122 422.5t347 148.5q121 0 201.5 -42t134.5 -126h12q24 92 65 148h129q-21 -66 -35 -189t-14 -239v-439 q0 -114 84 -114q29 0 62 10v-119q-46 -26 -111 -26q-81 0 -125.5 40.5t-62.5 126.5h-13q-59 -86 -142.5 -126.5t-201.5 -40.5zM537 1270q27 72 53.5 185.5t38.5 195.5h184v-23q-18 -74 -72.5 -192.5t-103.5 -194.5h-100v29z" glyph-name="alphatonos" horiz-adv-x="1251" unicode="ά"/>
<glyph d="M715 641v-141h-148q-311 0 -311 -195q0 -90 73.5 -139t219.5 -49q84 0 167 19.5t183 66.5v-148q-137 -75 -358 -75q-210 0 -330.5 84.5t-120.5 232.5q0 98 55 163.5t185 106.5v11q-98 28 -151.5 91.5t-53.5 155.5q0 133 112 212t304 79q97 0 179.5 -16.5t182.5 -61.5 l-63 -133q-94 42 -159 56t-144 14q-250 0 -250 -162q0 -172 317 -172h111zM452 1270q27 72 53.5 185.5t38.5 195.5h184v-23q-18 -74 -72.5 -192.5t-103.5 -194.5h-100v29z" glyph-name="epsilontonos" horiz-adv-x="973" unicode="έ"/>
<glyph d="M926 -492v1201q0 134 -61 200t-191 66q-172 0 -252 -93t-80 -307v-575h-166v1096h135l27 -150h8q51 81 143 125.5t205 44.5q198 0 298 -95.5t100 -305.5v-1207h-166zM567 1270q27 72 53.5 185.5t38.5 195.5h184v-23q-18 -74 -72.5 -192.5t-103.5 -194.5h-100v29z" glyph-name="etatonos" horiz-adv-x="1257" unicode="ή"/>
<glyph d="M334 1096v-774q0 -104 36.5 -154.5t123.5 -50.5q37 0 87.5 6.5t77.5 13.5v-127q-31 -13 -83.5 -21.5t-102.5 -8.5q-160 0 -232.5 84t-72.5 253v779h166zM192 1270q27 72 53.5 185.5t38.5 195.5h184v-23q-18 -74 -72.5 -192.5t-103.5 -194.5h-100v29z" glyph-name="iotatonos" horiz-adv-x="694" unicode="ί"/>
<glyph d="M627 -20q-231 0 -347 125t-116 391v600h166v-592q0 -192 79 -289.5t232 -97.5q167 0 247.5 119t80.5 370q0 130 -14 242t-48 248h166q36 -144 50 -251t14 -247q0 -318 -129 -468t-381 -150zM571 1413q65 169 96 303h189v-20q-33 -67 -93.5 -156.5t-111.5 -150.5h-80v24z M342 1393q0 52 26 75t64 23q41 0 65.5 -26t24.5 -72q0 -50 -27.5 -74.5t-62.5 -24.5q-38 0 -64 24.5t-26 74.5zM778 1393q0 52 26 75t64 23q41 0 65.5 -26t24.5 -72q0 -50 -27.5 -74.5t-62.5 -24.5q-38 0 -64 24.5t-26 74.5z" glyph-name="upsilondieresistonos" horiz-adv-x="1247" unicode="ΰ"/>
<glyph d="M592 119q169 0 244 97.5t75 315.5v15q0 229 -76 328.5t-245 99.5q-303 0 -303 -432q0 -212 73.5 -318t231.5 -106zM567 -20q-214 0 -333 148.5t-119 416.5q0 274 122 422.5t347 148.5q121 0 201.5 -42t134.5 -126h12q24 92 65 148h129q-21 -66 -35 -189t-14 -239v-439 q0 -114 84 -114q29 0 62 10v-119q-46 -26 -111 -26q-81 0 -125.5 40.5t-62.5 126.5h-13q-59 -86 -142.5 -126.5t-201.5 -40.5z" glyph-name="alpha" horiz-adv-x="1251" unicode="α"/>
<glyph d="M659 1567q220 0 344.5 -104t124.5 -287q0 -294 -313 -345v-8q377 -42 377 -409q0 -209 -132 -321.5t-370 -112.5q-109 0 -189 15.5t-159 53.5v-541h-166v1588q0 225 126.5 348t356.5 123zM657 1427q-158 0 -236.5 -86t-78.5 -251v-887q93 -49 173.5 -67.5t166.5 -18.5 q171 0 257.5 75t86.5 232t-95 239t-272 82h-112v142h92q155 0 236 73.5t81 210.5q0 123 -78 189.5t-221 66.5z" glyph-name="beta" horiz-adv-x="1286" unicode="β"/>
<glyph d="M532 -492h-180q0 96 32 243t75 261l-449 1084h172l240 -584q94 -235 113 -338h8q5 30 25.5 101t42 135.5t255.5 685.5h172l-405 -1069q-48 -124 -74.5 -270t-26.5 -249z" glyph-name="gamma" horiz-adv-x="1049" unicode="γ"/>
<glyph d="M545 936q-140 78 -198 157.5t-58 178.5q0 130 97 206t261 76q103 0 197.5 -22.5t220.5 -85.5l-72 -135q-112 62 -191.5 84t-160.5 22q-85 0 -133.5 -39.5t-48.5 -105.5q0 -71 53.5 -126.5t220.5 -146.5q210 -115 298.5 -235.5t88.5 -284.5q0 -235 -136 -367t-372 -132 q-227 0 -363 124t-136 334q0 177 113 307.5t319 190.5zM948 479q0 128 -61.5 219.5t-202.5 165.5q-206 -53 -301.5 -161.5t-95.5 -268.5q0 -144 89 -229.5t236 -85.5q162 0 249 93t87 267z" glyph-name="delta" horiz-adv-x="1188" unicode="δ"/>
<glyph d="M715 641v-141h-148q-311 0 -311 -195q0 -90 73.5 -139t219.5 -49q84 0 167 19.5t183 66.5v-148q-137 -75 -358 -75q-210 0 -330.5 84.5t-120.5 232.5q0 98 55 163.5t185 106.5v11q-98 28 -151.5 91.5t-53.5 155.5q0 133 112 212t304 79q97 0 179.5 -16.5t182.5 -61.5 l-63 -133q-94 42 -159 56t-144 14q-250 0 -250 -162q0 -172 317 -172h111z" glyph-name="epsilon" horiz-adv-x="973" unicode="ε"/>
<glyph d="M176 1415v141h752v-129q-215 -180 -359 -341.5t-213 -306t-69 -310.5q0 -98 29.5 -157t92 -95.5t234.5 -73.5q149 -31 217 -85.5t68 -145.5q0 -149 -127 -313h-166q125 161 125 268q0 56 -55.5 86.5t-198.5 56.5q-203 36 -297 145.5t-94 303.5q0 114 29.5 218t85.5 201.5 t156.5 212t342.5 332.5q-40 -8 -311 -8h-242z" glyph-name="zeta" horiz-adv-x="989" unicode="ζ"/>
<glyph d="M926 -492v1201q0 134 -61 200t-191 66q-172 0 -252 -93t-80 -307v-575h-166v1096h135l27 -150h8q51 81 143 125.5t205 44.5q198 0 298 -95.5t100 -305.5v-1207h-166z" glyph-name="eta" horiz-adv-x="1257" unicode="η"/>
<glyph d="M1098 780q0 -406 -122 -603t-372 -197q-240 0 -364.5 201.5t-124.5 598.5q0 407 122.5 603t366.5 196t369 -202.5t125 -596.5zM604 119q164 0 242 152.5t84 459.5h-647q4 -304 79 -458t242 -154zM604 1440q-161 0 -236 -143.5t-85 -424.5h645q-11 281 -87 424.5 t-237 143.5z" glyph-name="theta" horiz-adv-x="1212" unicode="θ"/>
<glyph d="M334 1096v-774q0 -104 36.5 -154.5t123.5 -50.5q37 0 87.5 6.5t77.5 13.5v-127q-31 -13 -83.5 -21.5t-102.5 -8.5q-160 0 -232.5 84t-72.5 253v779h166z" glyph-name="iota" horiz-adv-x="694" unicode="ι"/>
<glyph d="M815 1094h207l-414 -482l443 -612h-201l-361 504l-135 -113v-391h-178v1094h178v-283q0 -166 -12 -279z" glyph-name="kappa" horiz-adv-x="1061" unicode="κ"/>
<glyph d="M-14 0l473 1079l-58 162q-30 85 -55 120t-58.5 53t-82.5 18q-58 0 -115 -13v133q68 17 131 17q91 0 151.5 -30t104.5 -95t98 -217l363 -1012q19 -49 40 -74.5t56 -25.5q27 0 60 10v-121q-48 -24 -109 -24q-74 0 -115.5 38t-70.5 121l-156 436q-84 240 -106 336h-9 q-28 -116 -116 -325l-254 -586h-172z" glyph-name="lambda" horiz-adv-x="1094" unicode="λ"/>
<glyph d="M342 381q0 -262 254 -262q171 0 250.5 94.5t79.5 306.5v576h166v-1096h-136l-26 147h-10q-111 -167 -340 -167q-150 0 -238 92h-10q10 -84 10 -244v-320h-166v1588h166v-715z" glyph-name="uni03BC" horiz-adv-x="1268" unicode="μ"/>
<glyph d="M0 1096h172l219 -590q26 -67 67.5 -186t57.5 -181h8q177 175 256.5 397.5t79.5 559.5h166q0 -363 -103.5 -617t-328.5 -479h-186z" glyph-name="nu" horiz-adv-x="1110" unicode="ν"/>
<glyph d="M854 754h-178q-176 0 -282.5 -89t-106.5 -231q0 -80 25 -129t72.5 -79.5t115 -48.5t151.5 -36q142 -29 209.5 -84t67.5 -145q0 -65 -27 -139.5t-94 -173.5h-156q53 71 86 144.5t33 125.5q0 55 -57.5 85.5t-200.5 55.5q-200 34 -299.5 134t-99.5 276q0 140 79 245t207 144 v12q-217 64 -217 281q0 117 69.5 196t235.5 129q-128 -12 -243 -12h-68v141h698v-131h-51q-130 0 -242 -40t-175.5 -112t-63.5 -167q0 -115 83.5 -169t258.5 -54h170v-129z" glyph-name="xi" horiz-adv-x="973" unicode="ξ"/>
<glyph d="M1122 549q0 -268 -135 -418.5t-373 -150.5q-147 0 -261 69t-176 198t-62 302q0 268 134 417.5t372 149.5q230 0 365.5 -153t135.5 -414zM287 549q0 -210 84 -320t247 -110t247.5 109.5t84.5 320.5q0 209 -84.5 317.5t-249.5 108.5q-163 0 -246 -107t-83 -319z" glyph-name="omicron" horiz-adv-x="1237" unicode="ο"/>
<glyph d="M1149 117q38 0 86 18v-131q-43 -24 -127 -24q-219 0 -219 253v721h-477v-954h-166v954h-221v74l143 68h1100v-142h-213v-708q0 -74 25.5 -101.5t68.5 -27.5z" glyph-name="pi" horiz-adv-x="1331" unicode="π"/>
<glyph d="M1122 549q0 -271 -128 -420t-361 -149q-179 0 -299 94h-8q8 -61 8 -273v-293h-168v1055q0 266 125.5 409.5t359.5 143.5q219 0 345 -151.5t126 -415.5zM643 975q-158 0 -233.5 -103.5t-75.5 -312.5v-338q122 -102 305 -102q159 0 235 104t76 326q0 214 -72 320t-235 106z " glyph-name="rho" horiz-adv-x="1237" unicode="ρ"/>
<glyph d="M287 522q0 -135 29.5 -201t101 -106t231.5 -74q148 -32 213.5 -85.5t65.5 -143.5q0 -66 -27 -142t-94 -171h-156q54 70 87.5 144t33.5 124q0 40 -25.5 63.5t-80.5 42.5t-152 37q-204 37 -301.5 164t-97.5 346q0 286 138 441t386 155q79 0 158 -16.5t133 -40.5l-53 -141 q-130 51 -244 51q-176 0 -261 -109t-85 -338z" glyph-name="sigma1" horiz-adv-x="987" unicode="ς"/>
<glyph d="M1120 508q0 -157 -61.5 -277.5t-176 -185.5t-268.5 -65q-235 0 -367 144t-132 398q0 574 592 574h499v-142h-264q178 -167 178 -446zM287 522q0 -194 85 -298.5t246 -104.5q159 0 244.5 98.5t85.5 280.5q0 270 -174 456h-65q-222 0 -322 -104t-100 -328z" glyph-name="sigma" horiz-adv-x="1255" unicode="σ"/>
<glyph d="M915 1096v-142h-432v-618q0 -223 205 -223q47 0 96 6.5t76 13.5v-125q-35 -15 -90.5 -24t-103.5 -9q-181 0 -266 85t-85 255v639h-297v74l148 68h749z" glyph-name="tau" horiz-adv-x="969" unicode="τ"/>
<glyph d="M627 -20q-231 0 -347 125t-116 391v600h166v-592q0 -192 79 -289.5t232 -97.5q167 0 247.5 119t80.5 370q0 130 -14 242t-48 248h166q36 -144 50 -251t14 -247q0 -318 -129 -468t-381 -150z" glyph-name="upsilon" horiz-adv-x="1247" unicode="υ"/>
<glyph d="M643 -492v474q-260 11 -394 156.5t-134 416.5q0 296 207 549l131 -90q-89 -117 -129.5 -229t-40.5 -236q0 -395 360 -430v620q0 187 83 282t232 95q180 0 289 -146.5t109 -396.5q0 -178 -68 -308.5t-192 -202.5t-289 -80v-474h-164zM1184 571q0 185 -62 294.5t-164 109.5 q-73 0 -112 -60t-39 -174v-622q179 16 278 134t99 318z" glyph-name="phi" horiz-adv-x="1470" unicode="φ"/>
<glyph d="M178 1102q54 0 93 -21.5t70 -67t75 -157.5l145 -369l318 609h180l-428 -772l190 -484q48 -122 89 -159t104 -37q45 0 90 8v-129q-60 -15 -119 -15q-115 0 -185.5 59t-129.5 218l-150 387l-362 -664h-178l464 836l-172 444q-38 99 -73 139t-78 40q-37 0 -64 -11v129 q49 17 121 17z" glyph-name="chi" horiz-adv-x="1118" unicode="χ"/>
<glyph d="M858 1554v-1431q188 15 289.5 130.5t101.5 319.5q0 120 -13 237.5t-50 285.5h166q63 -272 63 -516q0 -276 -142.5 -429t-414.5 -169v-474h-164v474q-264 9 -397 154t-133 417v543h166v-549q0 -195 90 -304t274 -122v1433h164z" glyph-name="psi" horiz-adv-x="1542" unicode="ψ"/>
<glyph d="M500 -20q-182 0 -283.5 148t-101.5 402q0 156 27.5 284.5t95.5 281.5h172q-68 -156 -96.5 -283.5t-28.5 -284.5q0 -193 60 -301t167 -108q94 0 146.5 71.5t52.5 196.5v311h161v-311q0 -128 53 -198t146 -70q107 0 167 108t60 301q0 151 -27.5 281t-96.5 287h172 q65 -146 93.5 -277.5t28.5 -288.5q0 -252 -101.5 -401t-283.5 -149q-220 0 -288 182h-9q-65 -182 -286 -182z" glyph-name="omega" horiz-adv-x="1583" unicode="ω"/>
<glyph d="M334 1096v-774q0 -104 36.5 -154.5t123.5 -50.5q37 0 87.5 6.5t77.5 13.5v-127q-31 -13 -83.5 -21.5t-102.5 -8.5q-160 0 -232.5 84t-72.5 253v779h166zM9 1393q0 52 26.5 75t63.5 23q38 0 65.5 -23t27.5 -75q0 -50 -27.5 -74.5t-65.5 -24.5q-37 0 -63.5 24.5t-26.5 74.5 zM390 1393q0 52 26.5 75t63.5 23t64.5 -23t27.5 -75q0 -50 -27.5 -74.5t-64.5 -24.5t-63.5 24.5t-26.5 74.5z" glyph-name="iotadieresis" horiz-adv-x="694" unicode="ϊ"/>
<glyph d="M627 -20q-231 0 -347 125t-116 391v600h166v-592q0 -192 79 -289.5t232 -97.5q167 0 247.5 119t80.5 370q0 130 -14 242t-48 248h166q36 -144 50 -251t14 -247q0 -318 -129 -468t-381 -150zM366 1393q0 52 26.5 75t63.5 23q38 0 65.5 -23t27.5 -75q0 -50 -27.5 -74.5 t-65.5 -24.5q-37 0 -63.5 24.5t-26.5 74.5zM747 1393q0 52 26.5 75t63.5 23t64.5 -23t27.5 -75q0 -50 -27.5 -74.5t-64.5 -24.5t-63.5 24.5t-26.5 74.5z" glyph-name="upsilondieresis" horiz-adv-x="1247" unicode="ϋ"/>
<glyph d="M1122 549q0 -268 -135 -418.5t-373 -150.5q-147 0 -261 69t-176 198t-62 302q0 268 134 417.5t372 149.5q230 0 365.5 -153t135.5 -414zM287 549q0 -210 84 -320t247 -110t247.5 109.5t84.5 320.5q0 209 -84.5 317.5t-249.5 108.5q-163 0 -246 -107t-83 -319zM541 1270 q27 72 53.5 185.5t38.5 195.5h184v-23q-18 -74 -72.5 -192.5t-103.5 -194.5h-100v29z" glyph-name="omicrontonos" horiz-adv-x="1237" unicode="ό"/>
<glyph d="M627 -20q-231 0 -347 125t-116 391v600h166v-592q0 -192 79 -289.5t232 -97.5q167 0 247.5 119t80.5 370q0 130 -14 242t-48 248h166q36 -144 50 -251t14 -247q0 -318 -129 -468t-381 -150zM547 1270q27 72 53.5 185.5t38.5 195.5h184v-23q-18 -74 -72.5 -192.5 t-103.5 -194.5h-100v29z" glyph-name="upsilontonos" horiz-adv-x="1247" unicode="ύ"/>
<glyph d="M500 -20q-182 0 -283.5 148t-101.5 402q0 156 27.5 284.5t95.5 281.5h172q-68 -156 -96.5 -283.5t-28.5 -284.5q0 -193 60 -301t167 -108q94 0 146.5 71.5t52.5 196.5v311h161v-311q0 -128 53 -198t146 -70q107 0 167 108t60 301q0 151 -27.5 281t-96.5 287h172 q65 -146 93.5 -277.5t28.5 -288.5q0 -252 -101.5 -401t-283.5 -149q-220 0 -288 182h-9q-65 -182 -286 -182zM709 1270q27 72 53.5 185.5t38.5 195.5h184v-23q-18 -74 -72.5 -192.5t-103.5 -194.5h-100v29z" glyph-name="omegatonos" horiz-adv-x="1583" unicode="ώ"/>
<glyph d="M1110 846q4 -46 4 -111q0 -353 -144 -554t-403 -201q-393 0 -393 344q0 57 16 180q15 122 15 145q0 47 -18 64.5t-50 17.5q-25 0 -52 -7.5t-42 -16.5l-33 118q83 39 178 39q88 0 134.5 -46.5t46.5 -139.5q0 -35 -15 -166q-16 -132 -16 -190q0 -207 233 -207 q375 0 375 624q0 63 -4 107q-223 2 -378.5 54.5t-235.5 146.5t-80 225q0 144 91 225.5t259 81.5q208 0 336 -153.5t170 -450.5h143v-129h-137zM934 975q-28 211 -119.5 339t-214.5 128q-93 0 -141.5 -47.5t-48.5 -122.5q0 -141 137.5 -218t386.5 -79z" glyph-name="uni03D1" horiz-adv-x="1274" unicode="ϑ"/>
<glyph d="M569 717q122 291 192.5 446.5t109 209.5t84.5 78t104 24q48 0 88 -15v-135q-26 6 -57 6q-40 0 -69.5 -28t-72.5 -108.5t-105 -206.5t-112.5 -244t-81.5 -203v-541h-172v559l-477 903h186z" glyph-name="uni03D2" horiz-adv-x="1157" unicode="ϒ"/>
<glyph d="M553 -20q-186 0 -285.5 115.5t-99.5 355.5t135 503h-285v74l142 68h1495v-142h-250q117 -252 117 -503q0 -240 -100 -355.5t-285 -115.5q-221 0 -289 182h-8q-68 -182 -287 -182zM467 954q-63 -132 -96 -261t-33 -232q0 -174 54 -258t171 -84q93 0 147 71.5t54 196.5v188 h162v-188q0 -122 53.5 -195t146.5 -73q117 0 171.5 84.5t54.5 257.5q0 254 -111 493h-774z" glyph-name="uni03D6" horiz-adv-x="1720" unicode="ϖ"/>
<glyph d="M1016 0h-815v1462h815v-151h-645v-471h606v-150h-606v-538h645v-152zM746 1579h-110q-65 52 -154 148t-129 159v21h203q32 -69 89 -159.5t101 -143.5v-25z" glyph-name="uni0400" unicode="Ѐ"/>
<glyph d="M1016 0h-815v1462h815v-151h-645v-471h606v-150h-606v-538h645v-152zM348 1731q0 52 26.5 75t63.5 23q38 0 65.5 -23t27.5 -75q0 -50 -27.5 -74.5t-65.5 -24.5q-37 0 -63.5 24.5t-26.5 74.5zM729 1731q0 52 26.5 75t63.5 23t64.5 -23t27.5 -75q0 -50 -27.5 -74.5 t-64.5 -24.5t-63.5 24.5t-26.5 74.5z" glyph-name="afii10023" unicode="Ё"/>
<glyph d="M975 -20q-96 0 -150 22v150q55 -19 146 -19q101 0 153 62t52 174v131q0 128 -65.5 184.5t-205.5 56.5h-381v-741h-170v1311h-336v151h951v-151h-445v-418h396q205 0 315.5 -95.5t110.5 -273.5v-143q0 -190 -98 -295.5t-273 -105.5z" glyph-name="afii10051" horiz-adv-x="1503" unicode="Ђ"/>
<glyph d="M1016 1462v-153h-645v-1309h-170v1462h815zM483 1604q48 62 103.5 150t87.5 153h202v-21q-44 -65 -131 -160t-151 -147h-111v25z" glyph-name="afii10052" horiz-adv-x="1065" unicode="Ѓ"/>
<glyph d="M834 1331q-226 0 -360.5 -125t-164.5 -366h723v-150h-727q10 -274 143.5 -416.5t382.5 -142.5q162 0 363 55v-149q-161 -57 -387 -57q-332 0 -507 194t-175 559q0 351 188.5 551.5t522.5 200.5q237 0 415 -88l-71 -148q-169 82 -346 82z" glyph-name="afii10053" horiz-adv-x="1309" unicode="Є"/>
<glyph d="M1026 389q0 -193 -140 -301t-380 -108q-260 0 -400 67v164q90 -38 196 -60t210 -22q170 0 256 64.5t86 179.5q0 76 -30.5 124.5t-102 89.5t-217.5 93q-204 73 -291.5 173t-87.5 261q0 169 127 269t336 100q218 0 401 -80l-53 -148q-181 76 -352 76q-135 0 -211 -58 t-76 -161q0 -76 28 -124.5t94.5 -89t203.5 -89.5q230 -82 316.5 -176t86.5 -244z" glyph-name="afii10054" horiz-adv-x="1124" unicode="Ѕ"/>
<glyph d="M201 0v1462h170v-1462h-170z" glyph-name="afii10055" horiz-adv-x="571" unicode="І"/>
<glyph d="M201 0v1462h170v-1462h-170zM5 1731q0 52 26.5 75t63.5 23q38 0 65.5 -23t27.5 -75q0 -50 -27.5 -74.5t-65.5 -24.5q-37 0 -63.5 24.5t-26.5 74.5zM386 1731q0 52 26.5 75t63.5 23t64.5 -23t27.5 -75q0 -50 -27.5 -74.5t-64.5 -24.5t-63.5 24.5t-26.5 74.5z" glyph-name="afii10056" horiz-adv-x="571" unicode="Ї"/>
<glyph d="M-12 -385q-94 0 -148 27v145q71 -20 148 -20q99 0 150.5 60t51.5 173v1462h170v-1448q0 -190 -96 -294.5t-276 -104.5z" glyph-name="afii10057" horiz-adv-x="547" unicode="Ј"/>
<glyph d="M1827 426q0 -206 -137.5 -316t-397.5 -110h-327v1311h-365q-57 -440 -99 -701t-82 -386.5t-109.5 -186t-176.5 -60.5q-69 0 -133 25v143q50 -26 113 -26q48 0 80.5 31t54 82.5t49 176.5t61.5 348t99 705h678v-624h122q570 0 570 -412zM1135 147h133q198 0 289.5 69.5 t91.5 209.5q0 138 -96 200t-316 62h-102v-541z" glyph-name="afii10058" horiz-adv-x="1903" unicode="Љ"/>
<glyph d="M1876 426q0 -206 -136 -316t-397 -110h-329v688h-643v-688h-170v1462h170v-622h643v622h172v-624h121q569 0 569 -412zM1186 147h133q196 0 288.5 69.5t92.5 209.5q0 137 -96.5 199.5t-315.5 62.5h-102v-541z" glyph-name="afii10059" horiz-adv-x="1952" unicode="Њ"/>
<glyph d="M524 893h400q205 0 313.5 -94t108.5 -275v-524h-170v502q0 126 -62.5 182.5t-202.5 56.5h-387v-741h-170v1311h-336v151h1014v-151h-508v-418z" glyph-name="afii10060" horiz-adv-x="1503" unicode="Ћ"/>
<glyph d="M1253 0h-206l-676 741v-741h-170v1462h170v-708l659 708h195l-647 -710zM555 1604q48 62 103.5 150t87.5 153h202v-21q-44 -65 -131 -160t-151 -147h-111v25z" glyph-name="afii10061" horiz-adv-x="1253" unicode="Ќ"/>
<glyph d="M203 1462h159v-813q0 -225 -14 -407h8l820 1220h186v-1462h-160v805q0 201 17 422h-9l-821 -1227h-186v1462zM890 1579h-110q-65 52 -154 148t-129 159v21h203q32 -69 89 -159.5t101 -143.5v-25z" glyph-name="uni040D" horiz-adv-x="1561" unicode="Ѝ"/>
<glyph d="M293 -20q-111 0 -195 30v166q93 -43 189 -43q110 0 176.5 50.5t132.5 189.5l-569 1089h188l432 -831q25 -49 39 -96h8q28 84 39 106l359 821h180l-467 -1046q-84 -187 -151.5 -272t-152 -124.5t-208.5 -39.5zM652 1579q-185 0 -270 71.5t-95 235.5h156q9 -104 54.5 -145 t158.5 -41q103 0 152.5 44t60.5 142h157q-12 -158 -101 -232.5t-273 -74.5z" glyph-name="afii10062" horiz-adv-x="1272" unicode="Ў"/>
<glyph d="M1292 0h-465v-381h-176v381h-450v1462h170v-1308h751v1308h170v-1462z" glyph-name="afii10145" horiz-adv-x="1493" unicode="Џ"/>
<glyph d="M1120 0l-182 465h-586l-180 -465h-172l578 1468h143l575 -1468h-176zM885 618l-170 453q-33 86 -68 211q-22 -96 -63 -211l-172 -453h473z" glyph-name="afii10017" horiz-adv-x="1296" unicode="А"/>
<glyph d="M1149 426q0 -218 -129.5 -322t-390.5 -104h-428v1462h862v-151h-692v-473h227q193 0 314 -44.5t179 -131.5t58 -236zM371 147h239q190 0 276.5 65t86.5 214q0 142 -88 202t-307 60h-207v-541z" glyph-name="afii10018" horiz-adv-x="1255" unicode="Б"/>
<glyph d="M201 1462h413q291 0 421 -87t130 -275q0 -130 -72.5 -214.5t-211.5 -109.5v-10q333 -57 333 -350q0 -196 -132.5 -306t-370.5 -110h-510v1462zM371 836h280q180 0 259 56.5t79 190.5q0 123 -88 177.5t-280 54.5h-250v-479zM371 692v-547h305q177 0 266.5 68.5t89.5 214.5 q0 136 -91.5 200t-278.5 64h-291z" glyph-name="afii10019" horiz-adv-x="1327" unicode="В"/>
<glyph d="M1016 1462v-153h-645v-1309h-170v1462h815z" glyph-name="afii10020" horiz-adv-x="1065" unicode="Г"/>
<glyph d="M1354 -381h-162v381h-1016v-381h-162v535h113q154 259 263.5 630t121.5 678h657v-1308h185v-535zM999 154v1155h-333q-18 -242 -121 -581.5t-240 -573.5h694z" glyph-name="afii10021" horiz-adv-x="1399" unicode="Д"/>
<glyph d="M1016 0h-815v1462h815v-151h-645v-471h606v-150h-606v-538h645v-152z" glyph-name="afii10022" unicode="Е"/>
<glyph d="M598 752l-575 710h190l569 -708v708h164v-708l570 708h190l-576 -708l594 -754h-196l-582 741v-741h-164v741l-581 -741h-199z" glyph-name="afii10024" horiz-adv-x="1729" unicode="Ж"/>
<glyph d="M1049 1120q0 -144 -91.5 -234t-252.5 -114v-8q183 -25 277.5 -115t94.5 -235q0 -205 -153 -319.5t-432 -114.5q-255 0 -418 79v158q96 -46 207.5 -71t214.5 -25q198 0 299.5 75t101.5 216q0 134 -112.5 203t-335.5 69h-218v143h209q205 0 317.5 73.5t112.5 205.5 q0 107 -81 171t-218 64q-110 0 -199 -25t-206 -99l-84 114q101 75 226.5 113.5t260.5 38.5q225 0 352.5 -98.5t127.5 -264.5z" glyph-name="afii10025" horiz-adv-x="1190" unicode="З"/>
<glyph d="M203 1462h159v-813q0 -225 -14 -407h8l820 1220h186v-1462h-160v805q0 201 17 422h-9l-821 -1227h-186v1462z" glyph-name="afii10026" horiz-adv-x="1561" unicode="И"/>
<glyph d="M203 1462h159v-813q0 -225 -14 -407h8l820 1220h186v-1462h-160v805q0 201 17 422h-9l-821 -1227h-186v1462zM809 1579q-185 0 -270 71.5t-95 235.5h156q9 -104 54.5 -145t158.5 -41q103 0 152.5 44t60.5 142h157q-12 -158 -101 -232.5t-273 -74.5z" glyph-name="afii10027" horiz-adv-x="1561" unicode="Й"/>
<glyph d="M1253 0h-206l-676 741v-741h-170v1462h170v-708l659 708h195l-647 -710z" glyph-name="afii10028" horiz-adv-x="1253" unicode="К"/>
<glyph d="M1241 0h-170v1311h-475l-31 -240q-61 -479 -107.5 -700.5t-122.5 -308.5t-202 -85q-74 0 -133 25v143q54 -26 113 -26q53 0 92.5 43.5t70 151t77 408t102.5 740.5h786v-1462z" glyph-name="afii10029" horiz-adv-x="1442" unicode="Л"/>
<glyph d="M848 0l-496 1296h-8q14 -154 14 -366v-930h-157v1462h256l463 -1206h8l467 1206h254v-1462h-170v942q0 162 14 352h-8l-500 -1294h-137z" glyph-name="afii10030" horiz-adv-x="1849" unicode="М"/>
<glyph d="M1311 0h-170v688h-770v-688h-170v1462h170v-622h770v622h170v-1462z" glyph-name="afii10031" horiz-adv-x="1511" unicode="Н"/>
<glyph d="M1470 733q0 -351 -177.5 -552t-493.5 -201q-323 0 -498.5 197.5t-175.5 557.5q0 357 176 553.5t500 196.5q315 0 492 -200t177 -552zM305 733q0 -297 126.5 -450.5t367.5 -153.5q243 0 367 153t124 451q0 295 -123.5 447.5t-365.5 152.5q-243 0 -369.5 -153.5 t-126.5 -446.5z" glyph-name="afii10032" horiz-adv-x="1595" unicode="О"/>
<glyph d="M1292 0h-170v1311h-751v-1311h-170v1462h1091v-1462z" glyph-name="afii10033" horiz-adv-x="1493" unicode="П"/>
<glyph d="M1128 1036q0 -222 -151.5 -341.5t-433.5 -119.5h-172v-575h-170v1462h379q548 0 548 -426zM371 721h153q226 0 327 73t101 234q0 145 -95 216t-296 71h-190v-594z" glyph-name="afii10034" horiz-adv-x="1233" unicode="Р"/>
<glyph d="M827 1331q-241 0 -380.5 -160.5t-139.5 -439.5q0 -287 134.5 -443.5t383.5 -156.5q153 0 349 55v-149q-152 -57 -375 -57q-323 0 -498.5 196t-175.5 557q0 226 84.5 396t244 262t375.5 92q230 0 402 -84l-72 -146q-166 78 -332 78z" glyph-name="afii10035" horiz-adv-x="1292" unicode="С"/>
<glyph d="M651 0h-170v1311h-463v151h1096v-151h-463v-1311z" glyph-name="afii10036" horiz-adv-x="1133" unicode="Т"/>
<glyph d="M293 -20q-111 0 -195 30v166q93 -43 189 -43q110 0 176.5 50.5t132.5 189.5l-569 1089h188l432 -831q25 -49 39 -96h8q28 84 39 106l359 821h180l-467 -1046q-84 -187 -151.5 -272t-152 -124.5t-208.5 -39.5z" glyph-name="afii10037" horiz-adv-x="1272" unicode="У"/>
<glyph d="M731 1483h172v-180h70q171 0 296.5 -68t192 -192t66.5 -283q0 -166 -74.5 -295.5t-204 -194.5t-305.5 -65h-41v-225h-172v225h-45q-176 0 -305 66t-202 196t-73 291q0 158 67.5 282t193.5 193.5t297 69.5h67v180zM903 348h25q201 0 312.5 109.5t111.5 304.5 q0 185 -103 290t-288 105h-58v-809zM731 1157h-57q-182 0 -286.5 -106t-104.5 -289q0 -197 111 -305.5t313 -108.5h24v809z" glyph-name="afii10038" horiz-adv-x="1634" unicode="Ф"/>
<glyph d="M1174 0h-193l-393 643l-400 -643h-180l486 764l-453 698h188l363 -579l366 579h181l-453 -692z" glyph-name="afii10039" horiz-adv-x="1182" unicode="Х"/>
<glyph d="M1292 154h172v-535h-161v381h-1102v1462h170v-1308h751v1308h170v-1308z" glyph-name="afii10040" horiz-adv-x="1509" unicode="Ц"/>
<glyph d="M1223 0h-170v604q-149 -53 -248 -72.5t-205 -19.5q-207 0 -318.5 95t-111.5 274v581h170v-561q0 -121 63.5 -179t206.5 -58q97 0 185.5 14.5t257.5 69.5v714h170v-1462z" glyph-name="afii10041" horiz-adv-x="1423" unicode="Ч"/>
<glyph d="M1913 0h-1712v1462h170v-1308h600v1308h170v-1308h600v1308h172v-1462z" glyph-name="afii10042" horiz-adv-x="2114" unicode="Ш"/>
<glyph d="M201 0v1462h170v-1308h583v1308h172v-1308h584v1308h170v-1308h172v-535h-162v381h-1689z" glyph-name="afii10043" horiz-adv-x="2116" unicode="Щ"/>
<glyph d="M1303 426q0 -206 -129.5 -316t-378.5 -110h-441v1311h-336v151h506v-624h244q261 0 398 -102.5t137 -309.5zM524 147h252q181 0 265.5 69.5t84.5 209.5q0 136 -87.5 199t-290.5 63h-224v-541z" glyph-name="afii10044" horiz-adv-x="1409" unicode="Ъ"/>
<glyph d="M201 0v1462h170v-624h239q261 0 398 -102.5t137 -309.5q0 -206 -129.5 -316t-378.5 -110h-436zM371 145h247q181 0 266 70.5t85 210.5q0 137 -89.5 198.5t-289.5 61.5h-219v-541zM1546 0h-170v1462h170v-1462z" glyph-name="afii10045" horiz-adv-x="1747" unicode="Ы"/>
<glyph d="M1210 426q0 -203 -135.5 -314.5t-386.5 -111.5h-487v1462h170v-624h291q267 0 407.5 -105.5t140.5 -306.5zM371 147h299q364 0 364 279q0 135 -93.5 198.5t-299.5 63.5h-270v-541z" glyph-name="afii10046" horiz-adv-x="1317" unicode="Ь"/>
<glyph d="M467 1331q-172 0 -334 -76l-72 144q172 84 408 84q217 0 373.5 -88t237.5 -251t81 -384q0 -376 -182 -578t-524 -202q-227 0 -383 57v149q83 -21 169 -38t185 -17q271 0 409 144.5t146 416.5h-719v152h717q-22 229 -157.5 358t-354.5 129z" glyph-name="afii10047" horiz-adv-x="1290" unicode="Э"/>
<glyph d="M2023 733q0 -354 -170.5 -553.5t-474.5 -199.5q-301 0 -471.5 183.5t-181.5 524.5h-354v-688h-170v1462h170v-622h356q23 311 191.5 478t455.5 167q307 0 478 -200.5t171 -551.5zM903 733q0 -296 119 -450t350 -154q234 0 352.5 153t118.5 451t-117.5 449t-349.5 151 q-233 0 -353 -152.5t-120 -447.5z" glyph-name="afii10048" horiz-adv-x="2150" unicode="Ю"/>
<glyph d="M635 610l-383 -610h-201l410 639q-161 51 -234 154.5t-73 261.5q0 196 135.5 301.5t410.5 105.5h402v-1462h-170v610h-297zM932 1315h-227q-183 0 -278 -63t-95 -205q0 -291 379 -291h221v559z" glyph-name="afii10049" horiz-adv-x="1303" unicode="Я"/>
<glyph d="M850 0l-33 156h-8q-82 -103 -163.5 -139.5t-203.5 -36.5q-163 0 -255.5 84t-92.5 239q0 332 531 348l186 6v68q0 129 -55.5 190.5t-177.5 61.5q-137 0 -310 -84l-51 127q81 44 177.5 69t193.5 25q196 0 290.5 -87t94.5 -279v-748h-123zM475 117q155 0 243.5 85t88.5 238 v99l-166 -7q-198 -7 -285.5 -61.5t-87.5 -169.5q0 -90 54.5 -137t152.5 -47z" glyph-name="afii10065" unicode="а"/>
<glyph d="M119 657q0 360 106 561.5t336 251.5q286 61 504 99l31 -146q-347 -58 -496 -92q-145 -33 -217.5 -156t-79.5 -335h12q62 84 160 132t205 48q202 0 315 -131t113 -363q0 -257 -131 -401.5t-365 -144.5q-231 0 -362 177t-131 500zM627 119q305 0 305 389q0 371 -277 371 q-76 0 -146.5 -31.5t-129 -83.5t-90.5 -107q0 -263 83 -400.5t255 -137.5z" glyph-name="afii10066" horiz-adv-x="1221" unicode="б"/>
<glyph d="M1065 821q0 -107 -61.5 -162.5t-172.5 -74.5v-9q140 -19 204.5 -82t64.5 -174q0 -153 -112.5 -236t-328.5 -83h-483v1096h481q408 0 408 -275zM934 330q0 89 -67.5 129.5t-223.5 40.5h-301v-361h305q287 0 287 191zM903 805q0 80 -61.5 113.5t-186.5 33.5h-313v-309h281 q154 0 217 38t63 124z" glyph-name="afii10067" horiz-adv-x="1165" unicode="в"/>
<glyph d="M836 954h-494v-954h-166v1096h660v-142z" glyph-name="afii10068" horiz-adv-x="877" unicode="г"/>
<glyph d="M1128 -379h-161v379h-766v-379h-160v522h86q134 182 210 427t79 526h555v-953h157v-522zM811 143v822h-246q-13 -222 -85.5 -449.5t-180.5 -372.5h512z" glyph-name="afii10069" horiz-adv-x="1171" unicode="д"/>
<glyph d="M639 -20q-243 0 -383.5 148t-140.5 411q0 265 130.5 421t350.5 156q206 0 326 -135.5t120 -357.5v-105h-755q5 -193 97.5 -293t260.5 -100q177 0 350 74v-148q-88 -38 -166.5 -54.5t-189.5 -16.5zM594 977q-132 0 -210.5 -86t-92.5 -238h573q0 157 -70 240.5t-200 83.5z " glyph-name="afii10070" horiz-adv-x="1149" unicode="е"/>
<glyph d="M676 1094h153v-531l453 531h182l-458 -531l497 -563h-192l-482 555v-555h-153v555l-481 -555h-191l496 563l-457 531h182l451 -531v531z" glyph-name="afii10072" horiz-adv-x="1507" unicode="ж"/>
<glyph d="M385 641q311 0 311 172q0 162 -252 162q-77 0 -140 -14t-165 -56l-59 135q170 76 371 76q189 0 298 -77.5t109 -211.5q0 -184 -205 -241v-8q126 -37 184 -105.5t58 -171.5q0 -152 -122.5 -236.5t-338.5 -84.5q-237 0 -366 71v152q183 -86 370 -86q144 0 217.5 49.5 t73.5 142.5q0 191 -311 191h-152v141h119z" glyph-name="afii10073" horiz-adv-x="989" unicode="з"/>
<glyph d="M332 1096v-695l-7 -182l-3 -57l593 934h207v-1096h-155v670l3 132l5 130l-592 -932h-207v1096h156z" glyph-name="afii10074" horiz-adv-x="1298" unicode="и"/>
<glyph d="M332 1096v-695l-7 -182l-3 -57l593 934h207v-1096h-155v670l3 132l5 130l-592 -932h-207v1096h156zM645 1241q-185 0 -270 71.5t-95 235.5h156q9 -104 54.5 -145t158.5 -41q103 0 152.5 44t60.5 142h157q-12 -158 -101 -232.5t-273 -74.5z" glyph-name="afii10075" horiz-adv-x="1298" unicode="й"/>
<glyph d="M815 1096h182l-473 -529l512 -567h-194l-500 555v-555h-166v1096h166v-533z" glyph-name="afii10076" horiz-adv-x="1063" unicode="к"/>
<glyph d="M993 0h-168v954h-329q-27 -356 -75 -565t-124.5 -306t-194.5 -97q-54 0 -86 12v123q22 -6 50 -6q115 0 183 243t103 738h641v-1096z" glyph-name="afii10077" horiz-adv-x="1169" unicode="л"/>
<glyph d="M745 160l31 93l43 118l297 723h211v-1094h-147v905l-20 -58l-58 -153l-283 -694h-139l-283 696q-53 134 -73 209v-905h-148v1094h203l287 -695q43 -110 79 -239z" glyph-name="afii10078" horiz-adv-x="1505" unicode="м"/>
<glyph d="M342 1096v-459h614v459h166v-1096h-166v494h-614v-494h-166v1096h166z" glyph-name="afii10079" horiz-adv-x="1298" unicode="н"/>
<glyph d="M1122 549q0 -268 -135 -418.5t-373 -150.5q-147 0 -261 69t-176 198t-62 302q0 268 134 417.5t372 149.5q230 0 365.5 -153t135.5 -414zM287 549q0 -210 84 -320t247 -110t247.5 109.5t84.5 320.5q0 209 -84.5 317.5t-249.5 108.5q-163 0 -246 -107t-83 -319z" glyph-name="afii10080" horiz-adv-x="1237" unicode="о"/>
<glyph d="M342 0h-166v1096h920v-1096h-168v952h-586v-952z" glyph-name="afii10081" horiz-adv-x="1272" unicode="п"/>
<glyph d="M686 -20q-107 0 -195.5 39.5t-148.5 121.5h-12q12 -96 12 -182v-451h-166v1588h135l23 -150h8q64 90 149 130t195 40q218 0 336.5 -149t118.5 -418q0 -270 -120.5 -419.5t-334.5 -149.5zM662 975q-168 0 -243 -93t-77 -296v-37q0 -231 77 -330.5t247 -99.5 q142 0 222.5 115t80.5 317q0 205 -80.5 314.5t-226.5 109.5z" glyph-name="afii10082" horiz-adv-x="1255" unicode="р"/>
<glyph d="M614 -20q-238 0 -368.5 146.5t-130.5 414.5q0 275 132.5 425t377.5 150q79 0 158 -17t124 -40l-51 -141q-55 22 -120 36.5t-115 14.5q-334 0 -334 -426q0 -202 81.5 -310t241.5 -108q137 0 281 59v-147q-110 -57 -277 -57z" glyph-name="afii10083" horiz-adv-x="975" unicode="с"/>
<glyph d="M915 954h-356v-954h-166v954h-352v142h874v-142z" glyph-name="afii10084" horiz-adv-x="956" unicode="т"/>
<glyph d="M2 1096h178l240 -625q79 -214 98 -309h8q13 51 54.5 174.5t271.5 759.5h178l-471 -1248q-70 -185 -163.5 -262.5t-229.5 -77.5q-76 0 -150 17v133q55 -12 123 -12q171 0 244 192l61 156z" glyph-name="afii10085" horiz-adv-x="1032" unicode="у"/>
<glyph d="M1350 549q0 -249 -141.5 -396.5t-395.5 -168.5v-476h-164v476q-248 19 -392 170t-144 395q0 249 143.5 396t398.5 167v444h158v-444q251 -23 394 -173t143 -390zM287 549q0 -192 88 -301t280 -127v852q-185 -17 -276.5 -120.5t-91.5 -303.5zM1178 549q0 383 -365 422 v-850q190 19 277.5 128t87.5 300z" glyph-name="afii10086" horiz-adv-x="1464" unicode="ф"/>
<glyph d="M440 561l-381 535h189l289 -420l288 420h187l-381 -535l401 -561h-188l-307 444l-310 -444h-188z" glyph-name="afii10087" horiz-adv-x="1073" unicode="х"/>
<glyph d="M1245 -379h-166v379h-903v1096h166v-953h582v953h166v-953h155v-522z" glyph-name="afii10088" horiz-adv-x="1282" unicode="ц"/>
<glyph d="M322 1096v-400q0 -192 219 -192q91 0 174 28t188 95v469h166v-1096h-166v496q-105 -72 -194.5 -101.5t-202.5 -29.5q-164 0 -257 86t-93 233v412h166z" glyph-name="afii10089" horiz-adv-x="1245" unicode="ч"/>
<glyph d="M993 143h486v953h168v-1096h-1471v1096h166v-953h485v953h166v-953z" glyph-name="afii10090" horiz-adv-x="1823" unicode="ш"/>
<glyph d="M993 143h486v951h166v-951h157v-520h-168v377h-1458v1094h166v-951h485v951h166v-951z" glyph-name="afii10091" horiz-adv-x="1837" unicode="щ"/>
<glyph d="M557 643h313q224 0 331.5 -77t107.5 -232q0 -166 -111.5 -250t-331.5 -84h-475v954h-350v142h516v-453zM1145 324q0 93 -62 134.5t-219 41.5h-307v-361h313q275 0 275 185z" glyph-name="afii10092" horiz-adv-x="1423" unicode="ъ"/>
<glyph d="M342 643h299q209 0 309.5 -77.5t100.5 -231.5q0 -165 -106.5 -249.5t-313.5 -84.5h-455v1096h166v-453zM1401 0h-166v1096h166v-1096zM342 500v-361h281q264 0 264 185q0 92 -61 134t-208 42h-276z" glyph-name="afii10093" horiz-adv-x="1577" unicode="ы"/>
<glyph d="M342 643h338q420 0 420 -309q0 -162 -109.5 -248t-320.5 -86h-494v1096h166v-453zM342 500v-361h320q132 0 202 46t70 139q0 91 -64.5 133.5t-212.5 42.5h-315z" glyph-name="afii10094" horiz-adv-x="1212" unicode="ь"/>
<glyph d="M342 -20q-167 0 -285 57v147q60 -23 130 -41t161 -18q174 0 268.5 93t104.5 278h-555v141h553q-16 172 -100.5 252t-245.5 80q-103 0 -254 -54l-47 140q55 26 137 43.5t162 17.5q256 0 389 -146.5t133 -422.5q0 -269 -144.5 -418t-406.5 -149z" glyph-name="afii10095" horiz-adv-x="1008" unicode="э"/>
<glyph d="M1587 549q0 -269 -128.5 -419t-352.5 -150q-213 0 -338 133.5t-139 380.5h-287v-494h-166v1096h166v-459h289q20 228 146 353.5t333 125.5q220 0 348.5 -152.5t128.5 -414.5zM801 549q0 -211 73 -320.5t234 -109.5q158 0 232.5 106.5t74.5 323.5q0 210 -73 318t-234 108 t-234 -108t-73 -318z" glyph-name="afii10096" horiz-adv-x="1702" unicode="ю"/>
<glyph d="M231 0h-194l315 463q-127 28 -194.5 108.5t-67.5 202.5q0 150 101 236t282 86h488v-1096h-166v438h-277zM252 772q0 -190 276 -190h267v370h-301q-242 0 -242 -180z" glyph-name="afii10097" horiz-adv-x="1137" unicode="я"/>
<glyph d="M639 -20q-243 0 -383.5 148t-140.5 411q0 265 130.5 421t350.5 156q206 0 326 -135.5t120 -357.5v-105h-755q5 -193 97.5 -293t260.5 -100q177 0 350 74v-148q-88 -38 -166.5 -54.5t-189.5 -16.5zM594 977q-132 0 -210.5 -86t-92.5 -238h573q0 157 -70 240.5t-200 83.5z M713 1241h-110q-65 52 -154 148t-129 159v21h203q32 -69 89 -159.5t101 -143.5v-25z" glyph-name="uni0450" horiz-adv-x="1149" unicode="ѐ"/>
<glyph d="M639 -20q-243 0 -383.5 148t-140.5 411q0 265 130.5 421t350.5 156q206 0 326 -135.5t120 -357.5v-105h-755q5 -193 97.5 -293t260.5 -100q177 0 350 74v-148q-88 -38 -166.5 -54.5t-189.5 -16.5zM594 977q-132 0 -210.5 -86t-92.5 -238h573q0 157 -70 240.5t-200 83.5z M317 1393q0 52 26.5 75t63.5 23q38 0 65.5 -23t27.5 -75q0 -50 -27.5 -74.5t-65.5 -24.5q-37 0 -63.5 24.5t-26.5 74.5zM698 1393q0 52 26.5 75t63.5 23t64.5 -23t27.5 -75q0 -50 -27.5 -74.5t-64.5 -24.5t-63.5 24.5t-26.5 74.5z" glyph-name="afii10071" horiz-adv-x="1149" unicode="ё"/>
<glyph d="M815 -492q-79 0 -131 25v137q58 -20 113 -20q129 0 129 170v850q0 134 -61 200t-191 66q-173 0 -251.5 -94t-78.5 -305v-537h-168v1243h-156v127h156v186h166v-186h401v-127h-401v-196q0 -84 -8 -140h10q49 79 139.5 124.5t206.5 45.5q201 0 301.5 -95.5t100.5 -305.5 v-842q0 -156 -68.5 -241t-208.5 -85z" glyph-name="afii10099" horiz-adv-x="1257" unicode="ђ"/>
<glyph d="M836 954h-494v-954h-166v1096h660v-142zM378 1266q48 62 103.5 150t87.5 153h202v-21q-44 -65 -131 -160t-151 -147h-111v25z" glyph-name="afii10100" horiz-adv-x="877" unicode="ѓ"/>
<glyph d="M633 -20q-248 0 -383 145.5t-135 417.5q0 275 137.5 424t388.5 149q82 0 161 -16t136 -41l-49 -141q-143 51 -252 51q-164 0 -249 -81.5t-101 -250.5h553v-141h-555q9 -190 94 -280.5t252 -90.5q140 0 291 59v-147q-116 -57 -289 -57z" glyph-name="afii10101" horiz-adv-x="1008" unicode="є"/>
<glyph d="M883 299q0 -153 -114 -236t-320 -83q-218 0 -340 69v154q79 -40 169.5 -63t174.5 -23q130 0 200 41.5t70 126.5q0 64 -55.5 109.5t-216.5 107.5q-153 57 -217.5 99.5t-96 96.5t-31.5 129q0 134 109 211.5t299 77.5q177 0 346 -72l-59 -135q-165 68 -299 68 q-118 0 -178 -37t-60 -102q0 -44 22.5 -75t72.5 -59t192 -81q195 -71 263.5 -143t68.5 -181z" glyph-name="afii10102" horiz-adv-x="977" unicode="ѕ"/>
<glyph d="M342 0h-166v1096h166v-1096zM162 1393q0 57 28 83.5t70 26.5q40 0 69 -27t29 -83t-29 -83.5t-69 -27.5q-42 0 -70 27.5t-28 83.5z" glyph-name="afii10103" horiz-adv-x="518" unicode="і"/>
<glyph d="M342 0h-166v1096h166v-1096zM-20 1393q0 52 26.5 75t63.5 23q38 0 65.5 -23t27.5 -75q0 -50 -27.5 -74.5t-65.5 -24.5q-37 0 -63.5 24.5t-26.5 74.5zM361 1393q0 52 26.5 75t63.5 23t64.5 -23t27.5 -75q0 -50 -27.5 -74.5t-64.5 -24.5t-63.5 24.5t-26.5 74.5z" glyph-name="afii10104" horiz-adv-x="518" unicode="ї"/>
<glyph d="M43 -492q-95 0 -154 25v135q69 -20 136 -20q78 0 114.5 42.5t36.5 129.5v1276h166v-1264q0 -324 -299 -324zM162 1393q0 57 28 83.5t70 26.5q40 0 69 -27t29 -83t-29 -83.5t-69 -27.5q-42 0 -70 27.5t-28 83.5z" glyph-name="afii10105" horiz-adv-x="518" unicode="ј"/>
<glyph d="M944 643h244q211 0 312.5 -77.5t101.5 -231.5q0 -334 -437 -334h-411v954h-258q-40 -518 -130.5 -743t-261.5 -225q-56 0 -88 12v123q22 -6 50 -6q115 0 183 243t103 738h592v-453zM1436 324q0 91 -62.5 133.5t-220.5 42.5h-231v-361h237q277 0 277 185z" glyph-name="afii10106" horiz-adv-x="1714" unicode="љ"/>
<glyph d="M1024 1094v-453h256q217 0 318.5 -76.5t101.5 -230.5q0 -334 -434 -334h-416v494h-502v-494h-172v1094h172v-457h506v457h170zM1020 500v-361h240q276 0 276 185q0 92 -64 134t-217 42h-235z" glyph-name="afii10107" horiz-adv-x="1815" unicode="њ"/>
<glyph d="M926 0v670q0 134 -61 200t-191 66q-174 0 -253 -93t-79 -306v-537h-166v1243h-156v127h156v186h166v-186h449v-127h-449v-196q0 -84 -8 -140h10q49 79 139.5 124.5t206.5 45.5q201 0 301.5 -95.5t100.5 -305.5v-676h-166z" glyph-name="afii10108" horiz-adv-x="1257" unicode="ћ"/>
<glyph d="M815 1096h182l-473 -529l512 -567h-194l-500 555v-555h-166v1096h166v-533zM444 1266q48 62 103.5 150t87.5 153h202v-21q-44 -65 -131 -160t-151 -147h-111v25z" glyph-name="afii10109" horiz-adv-x="1063" unicode="ќ"/>
<glyph d="M332 1096v-695l-7 -182l-3 -57l593 934h207v-1096h-155v670l3 132l5 130l-592 -932h-207v1096h156zM750 1241h-110q-65 52 -154 148t-129 159v21h203q32 -69 89 -159.5t101 -143.5v-25z" glyph-name="uni045D" horiz-adv-x="1298" unicode="ѝ"/>
<glyph d="M2 1096h178l240 -625q79 -214 98 -309h8q13 51 54.5 174.5t271.5 759.5h178l-471 -1248q-70 -185 -163.5 -262.5t-229.5 -77.5q-76 0 -150 17v133q55 -12 123 -12q171 0 244 192l61 156zM511 1241q-185 0 -270 71.5t-95 235.5h156q9 -104 54.5 -145t158.5 -41 q103 0 152.5 44t60.5 142h157q-12 -158 -101 -232.5t-273 -74.5z" glyph-name="afii10110" horiz-adv-x="1032" unicode="ў"/>
<glyph d="M559 0h-383v1094h166v-951h586v951h166v-1094h-369v-377h-166v377z" glyph-name="afii10193" horiz-adv-x="1272" unicode="џ"/>
<glyph d="M1444 1327q-60 0 -107 -20.5t-92 -51.5l-69 146q126 80 276 80q228 0 356.5 -188t128.5 -527q0 -371 -141.5 -578.5t-396.5 -207.5q-108 0 -194 22.5t-169 73.5h-8q-80 -50 -164.5 -73t-191.5 -23q-256 0 -397.5 205.5t-141.5 580.5q0 339 127.5 527t355.5 188 q153 0 277 -80l-70 -146q-45 31 -91.5 51.5t-106.5 20.5q-147 0 -229.5 -148.5t-82.5 -414.5q0 -301 103.5 -468t290.5 -167q139 0 241 76v457h170v-457q102 -76 244 -76q187 0 290 165.5t103 469.5q0 267 -82.5 415t-228.5 148z" glyph-name="uni0460" horiz-adv-x="2071" unicode="Ѡ"/>
<glyph d="M807 457q-10 -26 -20 -51.5t-189 -405.5h-213l-385 1096h172l246 -695q32 -93 78 -282h8q19 53 56 134.5t179 373.5l-172 469h178q265 -769 287.5 -841t32.5 -116h8q173 184 249.5 401.5t76.5 555.5h166q0 -362 -97.5 -614.5t-316.5 -481.5h-182l-125 346q-33 92 -37 111 z" glyph-name="uni0461" horiz-adv-x="1677" unicode="ѡ"/>
<glyph d="M23 1274h319v282h172v-282h418v-148h-418v-288h201q561 0 561 -412q0 -208 -132.5 -317t-393.5 -109h-408v1126h-319v148zM514 145h213q192 0 282.5 68.5t90.5 212.5q0 138 -93 199t-311 61h-182v-541z" glyph-name="uni0462" horiz-adv-x="1382" unicode="Ѣ"/>
<glyph d="M424 1096h344v-140h-344v-315h319q437 0 437 -307q0 -166 -111.5 -250t-331.5 -84h-479v956h-235v140h235v223h166v-223zM424 500v-361h305q287 0 287 185q0 92 -67.5 134t-223.5 42h-301z" glyph-name="uni0463" horiz-adv-x="1294" unicode="ѣ"/>
<glyph d="M1423 1331q-227 0 -357 -125t-161 -366h703v-150h-707q8 -273 140.5 -416t379.5 -143q154 0 348 55v-149q-152 -57 -374 -57q-319 0 -492.5 184t-181.5 524h-350v-688h-170v1462h170v-622h356q30 307 214.5 474t488.5 169q213 0 395 -92l-72 -146q-100 48 -178.5 67 t-151.5 19z" glyph-name="uni0464" horiz-adv-x="1882" unicode="Ѥ"/>
<glyph d="M1143 -20q-235 0 -369 133t-145 381h-287v-494h-166v1096h166v-461h289q24 235 158.5 358t357.5 123q81 0 158 -16t131 -41l-50 -141q-138 51 -239 51q-163 0 -246.5 -82t-99.5 -252h536v-141h-538q9 -188 93.5 -278.5t248.5 -90.5q61 0 120.5 11t157.5 48v-147 q-110 -57 -276 -57z" glyph-name="uni0465" horiz-adv-x="1507" unicode="ѥ"/>
<glyph d="M920 682h-148v-682h-156v682h-149l-289 -682h-178l616 1462h158l615 -1462h-183zM530 831h332l-82 207q-56 144 -86 244q-24 -98 -88 -262z" glyph-name="uni0466" horiz-adv-x="1389" unicode="Ѧ"/>
<glyph d="M680 1096l465 -1096h-172l-207 489h-113v-489h-151v489h-115l-205 -489h-172l465 1096h205zM442 629h271q-43 108 -71 177t-62 175h-9q-28 -92 -129 -352z" glyph-name="uni0467" horiz-adv-x="1155" unicode="ѧ"/>
<glyph d="M1413 688h-143v-688h-154v688h-147l-285 -688h-186l290 688h-417v-688h-170v1462h170v-622h481l262 622h158l614 -1462h-188zM1032 840h318q-118 309 -132 352t-26 90q-19 -67 -36.5 -119t-123.5 -323z" glyph-name="uni0468" horiz-adv-x="1886" unicode="Ѩ"/>
<glyph d="M1094 1096l462 -1096h-170l-208 494h-113v-494h-152v494h-110l-209 -494h-172l209 494h-289v-494h-166v1096h166v-461h350l197 461h205zM993 981h-8q-10 -34 -26 -81.5t-105 -264.5h268z" glyph-name="uni0469" horiz-adv-x="1569" unicode="ѩ"/>
<glyph d="M1321 1462v-133l-422 -495q118 -6 195 -42t127 -105.5t100 -233.5l133 -453h-174l-137 457q-35 111 -69 159t-84.5 67t-139.5 19h-27v-702h-170v702h-26q-91 0 -140.5 -19.5t-82 -67t-64.5 -158.5l-135 -457h-185l136 453q47 159 96.5 230t124 107.5t192.5 43.5l-411 495 v133h1163zM1116 1309h-758l379 -455z" glyph-name="uni046A" horiz-adv-x="1477" unicode="Ѫ"/>
<glyph d="M1163 1096v-105l-338 -352q87 -7 142.5 -31t92 -64t61 -92.5t179.5 -451.5h-172l-133 336q-34 87 -63 122.5t-71 49.5t-118 14h-10v-522h-153v522h-11q-75 0 -116 -13t-69 -45t-67 -126l-135 -338h-170l131 336q24 61 48 113.5t60.5 92t91.5 64.5t142 33l-335 352v105 h1013zM950 956h-588l293 -319z" glyph-name="uni046B" horiz-adv-x="1315" unicode="ѫ"/>
<glyph d="M1853 1462v-133l-419 -498q120 -6 196.5 -42t127 -108t95.5 -228l136 -453h-168l-138 457q-31 104 -66 153.5t-87.5 69.5t-147.5 20h-24v-700h-172v700h-25q-94 0 -144 -20t-83 -67.5t-66 -155.5l-135 -457h-178l135 446q55 184 111 242h-430v-688h-170v1462h170v-622 h727l-408 489v133h1163zM1651 1309h-758l379 -457z" glyph-name="uni046C" horiz-adv-x="1995" unicode="Ѭ"/>
<glyph d="M1585 1096v-105l-338 -354q88 -7 143.5 -31.5t92 -63.5t60.5 -91.5t179 -450.5h-172l-133 336q-34 86 -63 121t-72 49t-117 14h-10v-520h-154v520h-10q-75 0 -117 -13.5t-69.5 -45t-65.5 -123.5l-135 -338h-170l131 336q47 120 84 160h-307v-496h-166v1096h166v-459h565 l-336 354v105h1014zM1372 956h-588l293 -313z" glyph-name="uni046D" horiz-adv-x="1733" unicode="ѭ"/>
<glyph d="M240 -137q0 -55 43.5 -80t132.5 -25q97 0 217 7q120 6 190 6q155 0 226 -39v-166q-80 51 -240 51q-68 0 -173 -5t-210 -5q-179 0 -271 62.5t-92 195.5q0 126 108.5 190.5t340.5 73.5q204 8 294.5 77t90.5 210q0 268 -448 268h-218v143h209q205 0 317.5 73.5t112.5 205.5 q0 107 -81 171t-218 64q-106 0 -199.5 -27.5t-203.5 -96.5l-86 114q168 114 358 142q-57 66 -174 187l-49 52v27h123q92 -59 223 -195q92 115 157.5 158t129.5 43q50 0 98 -14v-113q-24 10 -67 10q-44 0 -99.5 -41t-103.5 -112q178 -23 274.5 -117.5t96.5 -237.5 q0 -140 -95.5 -232t-265.5 -118v-8q186 -24 287.5 -113t101.5 -233q0 -208 -141.5 -314.5t-423.5 -115.5q-138 -5 -205 -32.5t-67 -90.5z" glyph-name="uni046E" horiz-adv-x="1192" unicode="Ѯ"/>
<glyph d="M760 1358q51 0 96 -15v-112q-24 10 -65 10q-47 0 -98.5 -39.5t-96.5 -101.5q122 -28 192 -97t70 -176q0 -184 -211 -241v-8q248 -71 248 -273q0 -148 -121 -232t-346 -87q-93 -2 -147.5 -13.5t-78.5 -32.5t-24 -65q0 -49 37.5 -70.5t126.5 -21.5q86 0 208 5l175 5 q125 0 164 -39v-143q-21 19 -63 31t-97 12l-179 -5q-130 -5 -222 -5q-144 0 -223.5 59.5t-79.5 171.5q0 116 95 178.5t275 65.5q334 4 334 194q0 97 -78 142t-237 45h-148v141h119q311 0 311 172q0 162 -252 162q-74 0 -145.5 -17t-159.5 -53l-59 135q124 55 250 70 q-92 117 -195 215v27h123q75 -52 215 -189q88 110 155 152.5t132 42.5z" glyph-name="uni046F" horiz-adv-x="989" unicode="ѯ"/>
<glyph d="M899 0h-170v446h-45q-176 0 -303.5 61t-199.5 184.5t-72 287.5v483h174v-479q0 -188 103.5 -288.5t315.5 -100.5h27v868h170v-868h29q211 0 314.5 99t103.5 286v483h176v-481q0 -165 -72 -288.5t-201.5 -185t-304.5 -61.5h-45v-446z" glyph-name="uni0470" horiz-adv-x="1630" unicode="Ѱ"/>
<glyph d="M858 1554v-1431q188 15 289.5 130.5t101.5 319.5q0 120 -13 237.5t-50 285.5h166q63 -272 63 -516q0 -276 -142.5 -429t-414.5 -169v-474h-164v474q-264 9 -397 154t-133 417v543h166v-549q0 -195 90 -304t274 -122v1433h164z" glyph-name="uni0471" horiz-adv-x="1542" unicode="ѱ"/>
<glyph d="M1470 733q0 -351 -177.5 -552t-493.5 -201q-323 0 -498.5 197.5t-175.5 557.5q0 357 176 553.5t500 196.5q315 0 492 -200t177 -552zM799 129q229 0 352.5 136.5t136.5 404.5h-981q13 -267 137.5 -404t354.5 -137zM801 1333q-224 0 -349.5 -129t-144.5 -385h979 q-17 254 -139 384t-346 130z" glyph-name="uni0472" horiz-adv-x="1597" unicode="Ѳ"/>
<glyph d="M1122 549q0 -268 -135 -418.5t-373 -150.5q-147 0 -261 69t-176 198t-62 302q0 268 134 417.5t372 149.5q230 0 365.5 -153t135.5 -414zM618 119q158 0 240 92t92 283h-663q9 -186 89 -280.5t242 -94.5zM616 975q-156 0 -235 -86.5t-92 -253.5h659q-15 168 -95.5 254 t-236.5 86z" glyph-name="uni0473" horiz-adv-x="1237" unicode="ѳ"/>
<glyph d="M1249 1335q-59 0 -98 -51.5t-96 -232.5l-328 -1051h-197l-530 1462h180l338 -938q72 -199 107 -342q32 144 102 367l162 518q59 191 101 267t97 108.5t144 32.5q42 0 121 -19v-141q-56 20 -103 20z" glyph-name="uni0474" horiz-adv-x="1282" unicode="Ѵ"/>
<glyph d="M406 0l-406 1096h174l225 -613q100 -268 119 -368h8q23 118 105 385l96 309q37 122 72.5 183.5t81 87.5t129.5 26q45 0 75 -10v-127q-29 8 -67 8q-47 0 -76 -42t-57 -134l-248 -801h-231z" glyph-name="uni0475" horiz-adv-x="1036" unicode="ѵ"/>
<glyph d="M1249 1335q-59 0 -98 -51.5t-96 -232.5l-328 -1051h-197l-530 1462h180l338 -938q72 -199 107 -342q32 144 102 367l162 518q59 191 101 267t97 108.5t144 32.5q42 0 121 -19v-141q-56 20 -103 20zM907 1579h-96q-52 42 -140.5 143t-125.5 164v21h186q28 -61 77.5 -148 t98.5 -155v-25zM551 1579h-96q-56 44 -143 144t-124 163v21h187q28 -61 77.5 -148t98.5 -155v-25z" glyph-name="uni0476" horiz-adv-x="1282" unicode="Ѷ"/>
<glyph d="M406 0l-406 1096h174l225 -613q100 -268 119 -368h8q23 118 105 385l96 309q37 122 72.5 183.5t81 87.5t129.5 26q45 0 75 -10v-127q-29 8 -67 8q-47 0 -76 -42t-57 -134l-248 -801h-231zM792 1241h-96q-52 42 -140.5 143t-125.5 164v21h186q28 -61 77.5 -148t98.5 -155 v-25zM436 1241h-96q-56 44 -143 144t-124 163v21h187q28 -61 77.5 -148t98.5 -155v-25z" glyph-name="uni0477" horiz-adv-x="1036" unicode="ѷ"/>
<glyph d="M1364 733q0 -352 -163.5 -552.5t-455.5 -200.5q-297 0 -458.5 197.5t-161.5 557.5q0 358 161.5 554t461.5 196q291 0 453.5 -200t162.5 -552zM305 733q0 -297 111.5 -450.5t328.5 -153.5q218 0 328.5 152.5t110.5 451.5q0 297 -110 448.5t-326 151.5q-218 0 -330.5 -151 t-112.5 -449zM1440 1096h176l246 -629q78 -207 98 -309h8q11 44 52.5 169.5t269.5 768.5h176l-469 -1248q-69 -182 -163 -261t-230 -79q-76 0 -150 17v133q55 -12 121 -12q94 0 152.5 51.5t93.5 140.5l61 156z" glyph-name="uni0478" horiz-adv-x="2476" unicode="Ѹ"/>
<glyph d="M1122 549q0 -268 -135 -418.5t-373 -150.5q-147 0 -261 69t-176 198t-62 302q0 268 134 417.5t372 149.5q230 0 365.5 -153t135.5 -414zM287 549q0 -210 84 -320t247 -110t247.5 109.5t84.5 320.5q0 209 -84.5 317.5t-249.5 108.5q-163 0 -246 -107t-83 -319zM1143 1096 h178l240 -625q79 -214 98 -309h8q13 51 54.5 174.5t271.5 759.5h178l-471 -1248q-70 -185 -163.5 -262.5t-229.5 -77.5q-76 0 -150 17v133q55 -12 123 -12q171 0 244 192l61 156z" glyph-name="uni0479" horiz-adv-x="2173" unicode="ѹ"/>
<glyph d="M1552 733q0 -302 -151.5 -500.5t-415.5 -242.5q-26 -111 -145 -111q-124 0 -144 111q-268 41 -419.5 238t-151.5 507q0 305 149.5 499.5t421.5 238.5q20 108 144 108q121 0 143 -108q268 -44 418.5 -242.5t150.5 -497.5zM305 733q0 -244 101 -396.5t290 -193.5 q17 48 53.5 67t90.5 19q110 0 141 -86q189 41 290 193.5t101 396.5t-101 395.5t-290 190.5q-31 -88 -141 -88q-113 0 -144 86q-189 -39 -290 -189.5t-101 -394.5z" glyph-name="uni047A" horiz-adv-x="1677" unicode="Ѻ"/>
<glyph d="M1231 549q0 -233 -112 -377.5t-316 -181.5q-9 -54 -41 -76.5t-88 -22.5q-57 0 -87.5 21.5t-39.5 77.5q-203 36 -317.5 183t-114.5 376q0 233 112 377t320 180q8 56 39 77t88 21q56 0 88 -21.5t41 -78.5q202 -38 315 -184t113 -371zM287 549q0 -177 62.5 -282t199.5 -136 q12 42 42 59t83 17q103 0 127 -74q134 31 196 136t62 280q0 352 -260 414q-13 -42 -43.5 -58t-81.5 -16q-53 0 -83 16t-42 60q-137 -31 -199.5 -135.5t-62.5 -280.5z" glyph-name="uni047B" horiz-adv-x="1346" unicode="ѻ"/>
<glyph d="M1442 1991v-121h-17q-84 0 -155 18t-131 39.5t-111 39.5t-94 18q-47 0 -77 -26t-30 -77v-16h-125v28q0 103 58 158t170 55q58 0 114 -18t115.5 -40t126 -40t144.5 -18h12zM702 129q88 0 173.5 33t146.5 96q55 -57 140.5 -93t178.5 -36q188 0 293 167t105 468 q0 267 -82.5 415t-229.5 148q-60 0 -107.5 -21.5t-90.5 -52.5l-70 146q121 82 275 82q228 0 356.5 -188t128.5 -527q0 -372 -144 -579t-403 -207q-104 0 -189 20t-161 68q-75 -45 -158.5 -66.5t-193.5 -21.5q-260 0 -402.5 206.5t-142.5 579.5q0 341 128.5 528t356.5 187 q154 0 275 -82l-70 -146q-43 31 -90 52.5t-107 21.5q-148 0 -230.5 -147.5t-82.5 -415.5q0 -303 105 -469t292 -166zM1155 1769q0 -162 -237 -223v72q120 41 120 94q0 20 -15.5 29t-33.5 17.5t-33.5 21.5t-15.5 41q0 73 92 73q56 0 89.5 -34t33.5 -91z" glyph-name="uni047C" horiz-adv-x="2046" unicode="Ѽ"/>
<glyph d="M1067 -20q-148 0 -242 65q-92 -65 -235 -65q-225 0 -350 145.5t-125 415.5q0 279 103.5 427t289.5 148q62 0 121.5 -16t99.5 -41l-57 -139q-89 51 -160 51q-116 0 -170.5 -107t-54.5 -321q0 -418 305 -418q123 0 235 80q62 -42 117.5 -61t122.5 -19q301 0 301 418 q0 214 -55 321t-170 107q-71 0 -160 -51l-57 139q40 25 99.5 41t121.5 16q187 0 290 -148.5t103 -426.5q0 -267 -123.5 -414t-349.5 -147zM1212 1681v-120h-16q-84 0 -155.5 18t-131.5 39t-110.5 39t-93.5 18q-107 0 -107 -102v-17h-125v31q0 100 57.5 155.5t169.5 55.5 q58 0 114.5 -18.5t115.5 -40t124.5 -40t143.5 -18.5h14zM926 1460q0 -161 -238 -223v72q119 40 119 96q0 20 -15 28.5t-33 17t-33 21t-15 39.5q0 74 92 74q56 0 89.5 -34t33.5 -91z" glyph-name="uni047D" horiz-adv-x="1655" unicode="ѽ"/>
<glyph d="M1419 1796v-27l-80 -172h-32l-50 103h-186l-49 -103h-33l-49 103h-188l-47 -103h-33l-80 172v27h827zM1427 1327q-60 0 -106.5 -20.5t-91.5 -51.5l-70 146q124 80 277 80q228 0 355.5 -188t127.5 -527q0 -373 -143 -579.5t-402 -206.5q-116 0 -202 24t-162 72h-9 q-78 -49 -164 -72.5t-198 -23.5q-260 0 -402.5 208t-142.5 578q0 341 128.5 528t357.5 187q150 0 276 -80l-70 -146q-45 31 -91.5 51.5t-106.5 20.5q-147 0 -229.5 -148.5t-82.5 -414.5q0 -303 105 -469t295 -166q65 0 130 19t116 57v457h170v-457q102 -76 247 -76 q188 0 294 165t106 470q0 267 -82.5 415t-229.5 148z" glyph-name="uni047E" horiz-adv-x="2015" unicode="Ѿ"/>
<glyph d="M1206 1444v-27l-82 -172h-30l-50 103h-188l-49 -103h-31l-49 103h-188l-50 -103h-30l-80 172v27h827zM807 457l-39 -95l-170 -362h-213l-385 1096h172l246 -695q39 -111 80 -282h8q12 35 29.5 75.5t203.5 432.5l-172 469h178q265 -769 287.5 -841t32.5 -116h8 q173 184 249.5 401.5t76.5 555.5h166q0 -362 -97.5 -614.5t-316.5 -481.5h-182l-125 346q-33 92 -37 111z" glyph-name="uni047F" horiz-adv-x="1677" unicode="ѿ"/>
<glyph d="M840 1331q-245 0 -389 -160t-144 -440q0 -294 133 -444t391 -150q111 0 168 23v-652h-170v472h-20q-331 0 -507.5 194t-176.5 559q0 224 87.5 395t251.5 263t380 92q237 0 407 -84l-71 -146q-171 78 -340 78z" glyph-name="uni0480" horiz-adv-x="1309" unicode="Ҁ"/>
<glyph d="M629 -20q-254 0 -384 143.5t-130 417.5q0 276 136.5 425.5t387.5 149.5q79 0 161 -17t130 -40l-49 -141q-142 51 -246 51q-177 0 -262.5 -102.5t-85.5 -323.5q0 -220 85.5 -320t256.5 -100q53 0 93 8.5t97 34.5v-658h-166v472h-24z" glyph-name="uni0481" horiz-adv-x="999" unicode="ҁ"/>
<glyph d="M514 313l-182 -317l-121 67l182 322l-287 166l66 115l289 -168l205 356l-289 166l67 117l289 -168l185 317l118 -67l-184 -320l289 -166l-68 -115l-287 166l-204 -354l286 -168l-65 -115z" glyph-name="uni0482" horiz-adv-x="1247" unicode="҂"/>
<glyph d="M391 1264q-6 -45 -27 -70t-69 -25q-51 0 -71.5 25t-20.5 78t21 73.5t75 20.5h449q6 46 27.5 70t68.5 24q51 0 73.5 -24.5t22.5 -75.5q0 -56 -22 -76t-76 -20h-451z" glyph-name="uni0483" horiz-adv-x="1141" unicode="҃"/>
<glyph d="M260 1378q120 0 270 59q149 58 230 58q111 0 169 -55.5t58 -155.5v-31h-125v17q0 102 -106 102q-43 0 -94 -18t-111.5 -39.5t-131.5 -39.5t-155 -18h-16v121h12z" glyph-name="uni0484" horiz-adv-x="1182" unicode="҄"/>
<glyph d="M479 1464q0 56 33.5 90.5t89.5 34.5q92 0 92 -76q0 -27 -15 -39.5t-33 -20.5t-33 -17t-15 -29q0 -54 119 -94v-74q-238 64 -238 225z" glyph-name="uni0485" horiz-adv-x="1182" unicode="҅"/>
<glyph d="M719 1464q0 -161 -238 -225v74q119 40 119 94q0 20 -15 29t-33 17t-33 20.5t-15 39.5q0 76 92 76q56 0 89.5 -34.5t33.5 -90.5z" glyph-name="uni0486" horiz-adv-x="1182" unicode="҆"/>
<glyph d="M1135 1231q-5 44 -35 66t-99 22q-78 0 -103 -20.5t-30 -67.5h-75q11 194 208 194q93 0 149.5 -50.5t63.5 -143.5h-79zM1135 -319q-5 44 -35 66t-99 22q-78 0 -103 -20.5t-30 -67.5h-75q5 89 55 141.5t153 52.5q92 0 149.5 -51t63.5 -143h-79zM1714 -41q-5 45 -35 66.5 t-98 21.5q-78 0 -103 -19.5t-30 -68.5h-76q5 90 55.5 142.5t153.5 52.5q92 0 149.5 -51t63.5 -144h-80zM561 -41q-5 45 -35 66.5t-98 21.5q-78 0 -103 -19.5t-30 -68.5h-76q5 90 55.5 142.5t153.5 52.5q92 0 149.5 -51t63.5 -144h-80zM1714 946q-5 45 -35 66.5t-98 21.5 q-78 0 -103 -19.5t-30 -68.5h-76q5 90 55.5 142.5t153.5 52.5q92 0 149.5 -51t63.5 -144h-80zM561 946q-5 45 -35 66.5t-98 21.5q-78 0 -103 -19.5t-30 -68.5h-76q5 90 55.5 142.5t153.5 52.5q92 0 149.5 -51t63.5 -144h-80zM1905 459q-5 44 -35 66t-98 22q-78 0 -103.5 -20 t-30.5 -68h-75q11 194 209 194q92 0 149.5 -52t63.5 -142h-80zM383 459q-5 45 -35 66.5t-98 21.5q-78 0 -103 -19.5t-30 -68.5h-76q5 90 55.5 142t153.5 52q92 0 149.5 -51t63.5 -143h-80z" glyph-name="uni0488" horiz-adv-x="2025" unicode="҈"/>
<glyph d="M1079 -35l11 -14q-17 -66 -52 -161.5t-71 -174.5h-97q53 221 70 350h139zM881 1141l-11 14q19 71 55.5 171t67.5 165h97q-52 -220 -70 -350h-139zM1567 651l14 11q71 -19 171 -55.5t165 -67.5v-97q-221 53 -350 70v139zM391 453l-14 -11q-66 17 -161.5 52t-174.5 71v97 q221 -53 350 -70v-139zM1325 1018l2 16q67 39 162 83t162 69l69 -68q-177 -110 -297 -198zM633 45l-2 -16q-155 -89 -324 -152l-69 68q177 110 297 198zM492 877l-17 2q-82 140 -151 323l67 70q123 -198 199 -297zM1464 184l17 -2q39 -69 84 -166t67 -157l-67 -70 q-31 50 -96 147.5t-103 149.5z" glyph-name="uni0489" horiz-adv-x="1958" unicode="҉"/>
<glyph d="M201 1462h161v-815q0 -118 -10 -324l-4 -83h8l820 1222h184v-1310h184l-143 -533h-197l156 381h-160v805q0 175 19 422h-9l-823 -1227h-186v1462zM780 1579q-186 0 -270 71.5t-94 235.5h155q10 -108 56.5 -147t156.5 -39q105 0 154.5 46.5t58.5 139.5h158 q-12 -159 -102.5 -233t-272.5 -74z" glyph-name="uni048A" horiz-adv-x="1577" unicode="Ҋ"/>
<glyph d="M332 1096v-662q0 -136 -10 -272l593 934h207v-953h176l-129 -520h-172l125 377h-155v672q0 158 8 262l-594 -934h-205v1096h156zM668 1241q-185 0 -270 71.5t-95 235.5h156q7 -102 52 -144t161 -42q103 0 153 45t60 141h157q-12 -158 -101 -232.5t-273 -74.5z" glyph-name="uni048B" horiz-adv-x="1317" unicode="ҋ"/>
<glyph d="M47 1276h154v186h170v-186h342v-150h-342v-288h192q586 0 586 -412q0 -210 -138 -318t-409 -108h-401v1126h-154v150zM371 145h221q379 0 379 281q0 132 -92 196t-293 64h-215v-541z" glyph-name="uni048C" horiz-adv-x="1255" unicode="Ҍ"/>
<glyph d="M342 1311h295v-129h-295v-539h320q223 0 330.5 -77t107.5 -232q0 -164 -112 -249t-333 -85h-479v1182h-156v129h156v245h166v-245zM342 500v-361h305q287 0 287 185q0 92 -66 134t-225 42h-301z" glyph-name="uni048D" horiz-adv-x="1212" unicode="ҍ"/>
<glyph d="M1145 1036q0 -127 -57.5 -227.5t-165.5 -157.5l120 -157l-100 -84l-149 192q-102 -27 -238 -27h-184v-575h-170v1462h393q274 0 412.5 -107.5t138.5 -318.5zM371 721h166q87 0 163 10l-108 141l108 82l140 -176q127 72 127 250q0 145 -97 216t-299 71h-200v-594z" glyph-name="uni048E" horiz-adv-x="1251" unicode="Ҏ"/>
<glyph d="M686 -20q-107 0 -195.5 39.5t-148.5 121.5h-12q12 -148 12 -182v-451h-166v1588h135l25 -150h8q64 90 148.5 130t193.5 40q218 0 336.5 -149t118.5 -418q0 -338 -183 -483l115 -156l-100 -80l-131 174q-71 -24 -156 -24zM662 975q-168 0 -243 -93t-77 -296v-37 q0 -231 77 -330.5t247 -99.5q47 0 88 12l-121 158l106 80l129 -170q101 103 101 352q0 215 -75 319.5t-232 104.5z" glyph-name="uni048F" horiz-adv-x="1255" unicode="ҏ"/>
<glyph d="M870 1462v301h162v-454h-661v-1309h-170v1462h669z" glyph-name="afii10050" horiz-adv-x="1079" unicode="Ґ"/>
<glyph d="M836 967h-494v-967h-166v1096h494v321h166v-450z" glyph-name="afii10098" horiz-adv-x="877" unicode="ґ"/>
<glyph d="M1032 1462v-153h-661v-510h424v-150h-424v-649h-170v649h-154v150h154v663h831z" glyph-name="uni0492" horiz-adv-x="1079" unicode="Ғ"/>
<glyph d="M834 956h-492v-344h346v-127h-346v-485h-166v485h-158v127h158v484h658v-140z" glyph-name="uni0493" horiz-adv-x="877" unicode="ғ"/>
<glyph d="M561 655q-100 0 -190 -12v-643h-170v1462h841v-153h-671v-516q90 10 211 10q320 0 490.5 -169.5t170.5 -483.5q0 -315 -143 -488.5t-402 -173.5q-83 0 -145.5 10.5t-132.5 38.5v152q123 -49 260 -49q383 0 383 510q0 245 -128 375t-374 130z" glyph-name="uni0494" horiz-adv-x="1315" unicode="Ҕ"/>
<glyph d="M582 -502q-145 0 -246 60v149q116 -63 239 -63q133 0 201 101t68 316q0 223 -89 327t-270 104q-69 0 -143 -17v-475h-166v1096h666v-142h-500v-329q82 12 141 12q272 0 403.5 -141.5t131.5 -436.5q0 -267 -114 -414t-322 -147z" glyph-name="uni0495" horiz-adv-x="1075" unicode="ҕ"/>
<glyph d="M598 752l-575 710h190l569 -708v708h164v-708l570 708h190l-576 -708l474 -600h180v-535h-162v381h-94l-582 741v-741h-164v741l-581 -741h-199z" glyph-name="uni0496" horiz-adv-x="1823" unicode="Җ"/>
<glyph d="M676 1096h153v-531l453 531h182l-458 -531l368 -422h193v-520h-162v377h-94l-482 557v-557h-153v557l-481 -557h-191l496 565l-457 531h182l451 -531v531z" glyph-name="uni0497" horiz-adv-x="1597" unicode="җ"/>
<glyph d="M1049 1120q0 -144 -91.5 -234t-252.5 -114v-8q183 -25 277.5 -115t94.5 -235q0 -205 -153 -319.5t-432 -114.5q-255 0 -418 79v158q96 -46 207.5 -71t214.5 -25q198 0 299.5 75t101.5 216q0 134 -112.5 203t-335.5 69h-218v143h209q205 0 317.5 73.5t112.5 205.5 q0 107 -81 171t-218 64q-110 0 -199 -25t-206 -99l-84 114q101 75 226.5 113.5t260.5 38.5q225 0 352.5 -98.5t127.5 -264.5zM567 -238q0 103 -139 238h123q158 -120 158 -252q0 -91 -51 -142.5t-150 -51.5q-65 0 -115 16v108q32 -10 86 -10q37 0 62.5 24t25.5 70z" glyph-name="uni0498" horiz-adv-x="1190" unicode="Ҙ"/>
<glyph d="M385 641q311 0 311 172q0 162 -252 162q-77 0 -140 -14t-165 -56l-59 135q170 76 371 76q189 0 298 -77.5t109 -211.5q0 -184 -205 -241v-8q126 -37 184 -105.5t58 -171.5q0 -152 -122.5 -236.5t-338.5 -84.5q-237 0 -366 71v152q183 -86 370 -86q144 0 217.5 49.5 t73.5 142.5q0 191 -311 191h-152v141h119zM487 -238q0 103 -139 238h123q158 -120 158 -252q0 -91 -51 -142.5t-150 -51.5q-65 0 -115 16v108q32 -10 86 -10q37 0 62.5 24t25.5 70z" glyph-name="uni0499" horiz-adv-x="989" unicode="ҙ"/>
<glyph d="M1151 154h172v-535h-162v381h-102l-535 709l-153 -136v-573h-170v1462h170v-725l663 725h201l-588 -635z" glyph-name="uni049A" horiz-adv-x="1354" unicode="Қ"/>
<glyph d="M815 1096h182l-473 -529l383 -424h178v-522h-159v379h-84l-500 555v-555h-166v1096h166v-533z" glyph-name="uni049B" horiz-adv-x="1116" unicode="қ"/>
<glyph d="M496 680l-125 -107v-573h-170v1462h170v-731l125 139v349h125v-211l411 454h203l-588 -635l610 -827h-200l-436 604v-305h-125v381z" glyph-name="uni049C" horiz-adv-x="1257" unicode="Ҝ"/>
<glyph d="M461 434l-119 121v-555h-166v1096h166v-533l119 121v330h131v-205l270 287h182l-452 -475v-107l491 -514h-194l-299 315v-221h-129v340z" glyph-name="uni049D" horiz-adv-x="1092" unicode="ҝ"/>
<glyph d="M47 1284h154v178h170v-178h221v-151h-221v-402l661 731h203l-588 -635l610 -827h-206l-527 709l-153 -134v-575h-170v1133h-154v151z" glyph-name="uni049E" horiz-adv-x="1257" unicode="Ҟ"/>
<glyph d="M20 1370h156v186h164v-186h381v-127h-381v-536l-3 -91l-3 -55h8l18 24q55 74 75 98t388 413h199l-444 -467l473 -629h-199l-387 516l-125 -106v-410h-164v1243h-156v127z" glyph-name="uni049F" horiz-adv-x="1059" unicode="ҟ"/>
<glyph d="M16 1462h508v-731l662 731h203l-588 -635l610 -827h-201l-532 709l-154 -136v-573h-170v1309h-338v153z" glyph-name="uni04A0" horiz-adv-x="1411" unicode="Ҡ"/>
<glyph d="M41 1096h514v-533l475 533h182l-473 -531l512 -565h-194l-502 555v-555h-164v956h-350v140z" glyph-name="uni04A1" horiz-adv-x="1260" unicode="ҡ"/>
<glyph d="M1311 154h162v-535h-162v381h-170v688h-770v-688h-170v1462h170v-622h770v622h170v-1308z" glyph-name="uni04A2" horiz-adv-x="1528" unicode="Ң"/>
<glyph d="M342 1096v-459h614v459h166v-953h150v-520h-166v377h-150v494h-614v-494h-166v1096h166z" glyph-name="uni04A3" horiz-adv-x="1327" unicode="ң"/>
<glyph d="M1647 1309h-336v-1309h-172v688h-768v-688h-170v1462h170v-622h768v622h508v-153z" glyph-name="uni04A4" horiz-adv-x="1665" unicode="Ҥ"/>
<glyph d="M342 1096v-459h614v459h517v-140h-351v-956h-166v494h-614v-494h-166v1096h166z" glyph-name="uni04A5" horiz-adv-x="1507" unicode="ҥ"/>
<glyph d="M1241 0h-170v1309h-700v-1309h-170v1462h1040v-671q68 12 193 12q306 0 474.5 -172t168.5 -484q0 -313 -141.5 -486t-399.5 -173q-156 0 -279 49v152q134 -49 261 -49q378 0 378 510q0 242 -115 372.5t-347 130.5q-42 0 -105.5 -3.5t-87.5 -8.5v-641z" glyph-name="uni04A6" horiz-adv-x="2185" unicode="Ҧ"/>
<glyph d="M1303 -502q-131 0 -228 60v149q109 -63 217 -63q240 0 240 417q0 223 -83 327t-255 104q-67 0 -139 -21v-471h-168v952h-545v-952h-166v1096h879v-473q75 14 141 14q246 0 377 -148.5t131 -429.5q0 -268 -104.5 -414.5t-296.5 -146.5z" glyph-name="uni04A7" horiz-adv-x="1772" unicode="ҧ"/>
<glyph d="M1464 678q0 -181 -69 -335.5t-185 -240.5q66 -30 156 -30q78 0 139 22v-153q-56 -25 -147 -25q-178 0 -326 100q-102 -36 -246 -36q-310 0 -485.5 196.5t-175.5 538.5q0 376 164.5 573t478.5 197q127 0 219 -35l-47 -145q-84 28 -174 28q-461 0 -461 -610 q0 -288 127.5 -441t362.5 -153q54 0 100 10q-86 103 -132 245t-46 302q0 244 99 377t274 133q181 0 277.5 -133t96.5 -385zM1288 672q0 177 -51.5 279t-144.5 102q-94 0 -145.5 -100.5t-51.5 -276.5q0 -140 46.5 -267t129.5 -212q102 67 159.5 194.5t57.5 280.5z" glyph-name="uni04A8" horiz-adv-x="1595" unicode="Ҩ"/>
<glyph d="M750 498q0 -94 34 -174.5t97 -133.5q68 44 109.5 123t41.5 189q0 235 -135 235q-72 0 -109.5 -62.5t-37.5 -176.5zM1108 -57q-147 0 -277 77q-96 -40 -219 -40q-149 0 -262 69.5t-174 196.5t-61 291q0 275 124 427t351 152q91 0 168 -22l-37 -138q-54 19 -133 19 q-156 0 -228.5 -104.5t-72.5 -335.5q0 -206 85 -311t249 -105q37 0 63.5 4.5t32.5 7.5q-139 148 -139 373q0 173 84 269.5t235 96.5q148 0 226.5 -94.5t78.5 -271.5q0 -125 -53.5 -229.5t-147.5 -168.5q52 -26 119 -26q66 0 115 14v-137q-39 -14 -127 -14z" glyph-name="uni04A9" horiz-adv-x="1311" unicode="ҩ"/>
<glyph d="M827 1331q-241 0 -380.5 -160.5t-139.5 -439.5q0 -287 134.5 -443.5t383.5 -156.5q153 0 349 55v-149q-152 -57 -375 -57q-323 0 -498.5 196t-175.5 557q0 226 84.5 396t244 262t375.5 92q230 0 402 -84l-72 -146q-166 78 -332 78zM772 -238q0 103 -139 238h123 q158 -120 158 -252q0 -91 -51 -142.5t-150 -51.5q-65 0 -115 16v108q32 -10 86 -10q37 0 62.5 24t25.5 70z" glyph-name="uni04AA" horiz-adv-x="1292" unicode="Ҫ"/>
<glyph d="M614 -20q-238 0 -368.5 146.5t-130.5 414.5q0 275 132.5 425t377.5 150q79 0 158 -17t124 -40l-51 -141q-55 22 -120 36.5t-115 14.5q-334 0 -334 -426q0 -202 81.5 -310t241.5 -108q137 0 281 59v-147q-110 -57 -277 -57zM610 -238q0 103 -139 238h123 q158 -120 158 -252q0 -91 -51 -142.5t-150 -51.5q-65 0 -115 16v108q32 -10 86 -10q37 0 62.5 24t25.5 70z" glyph-name="uni04AB" horiz-adv-x="975" unicode="ҫ"/>
<glyph d="M479 1309h-463v153h1098v-153h-463v-1155h162v-535h-162v381h-172v1309z" glyph-name="uni04AC" horiz-adv-x="1133" unicode="Ҭ"/>
<glyph d="M393 956h-352v140h872v-140h-354v-813h150v-520h-166v377h-150v956z" glyph-name="uni04AD" horiz-adv-x="956" unicode="ҭ"/>
<glyph d="M573 731l390 731h184l-488 -895v-567h-172v559l-487 903h186z" glyph-name="uni04AE" horiz-adv-x="1147" unicode="Ү"/>
<glyph d="M596 -492h-166v488l-430 1100h172l236 -613q83 -222 102 -319h8q33 138 103 319l233 613h172l-430 -1100v-488z" glyph-name="uni04AF" horiz-adv-x="1026" unicode="ү"/>
<glyph d="M573 731l390 731h184l-488 -895v-59h299v-152h-299v-356h-172v356h-301v152h301v51l-487 903h186z" glyph-name="uni04B0" horiz-adv-x="1147" unicode="Ұ"/>
<glyph d="M596 -129v-363h-166v363h-278v129h276l-428 1096h172l236 -613q83 -222 102 -319h8q33 138 103 319l233 613h172l-428 -1096h274v-129h-276z" glyph-name="uni04B1" horiz-adv-x="1026" unicode="ұ"/>
<glyph d="M1075 154h162v-535h-162v381h-94l-393 643l-400 -643h-180l486 764l-453 698h188l363 -579l366 579h181l-453 -692z" glyph-name="uni04B2" horiz-adv-x="1268" unicode="Ҳ"/>
<glyph d="M440 561l-381 535h189l289 -420l288 420h187l-381 -535l299 -418h149v-522h-166v379h-69l-307 444l-310 -444h-188z" glyph-name="uni04B3" horiz-adv-x="1110" unicode="ҳ"/>
<glyph d="M1534 154h170v-535h-162v381h-1100v1309h-426v153h1071v-153h-475v-1155h752v1308h170v-1308z" glyph-name="uni04B4" horiz-adv-x="1751" unicode="Ҵ"/>
<glyph d="M889 954h-361v-811h582v951h166v-951h156v-520h-166v377h-904v954h-321v140h848v-140z" glyph-name="uni04B5" horiz-adv-x="1468" unicode="ҵ"/>
<glyph d="M1223 154h161v-535h-161v381h-170v604q-149 -53 -248 -72.5t-205 -19.5q-207 0 -318.5 95t-111.5 274v581h170v-561q0 -121 63.5 -179t206.5 -58q97 0 185.5 14.5t257.5 69.5v714h170v-1308z" glyph-name="uni04B6" horiz-adv-x="1417" unicode="Ҷ"/>
<glyph d="M322 1096v-400q0 -192 219 -192q91 0 174 28t188 95v469h166v-953h150v-522h-166v379h-150v496q-105 -72 -194.5 -101.5t-202.5 -29.5q-164 0 -257 86t-93 233v412h166z" glyph-name="uni04B7" horiz-adv-x="1247" unicode="ҷ"/>
<glyph d="M629 512q-459 0 -459 369v581h170v-561q0 -119 67.5 -178t221.5 -59v348h125v-342q134 13 297 73v719h172v-1462h-172v600q-168 -65 -297 -82v-305h-125v299z" glyph-name="uni04B8" horiz-adv-x="1423" unicode="Ҹ"/>
<glyph d="M322 1096v-400q0 -186 200 -192v301h119v-291q113 24 246 113v469h166v-1096h-166v496q-128 -91 -246 -117v-248h-119v234h-22q-160 0 -252 85t-92 234v412h166z" glyph-name="uni04B9" horiz-adv-x="1229" unicode="ҹ"/>
<glyph d="M201 1462h170v-604q256 92 452 92q207 0 318.5 -95.5t111.5 -272.5v-582h-170v561q0 120 -63.5 179t-206.5 59q-107 0 -200 -17t-242 -67v-715h-170v1462z" glyph-name="uni04BA" horiz-adv-x="1423" unicode="Һ"/>
<glyph d="M922 0v397q0 193 -217 193q-88 0 -166 -24.5t-197 -98.5v-467h-166v1096h166v-498q95 69 188 100t207 31q163 0 258 -84t95 -235v-410h-168z" glyph-name="uni04BB" horiz-adv-x="1198" unicode="һ"/>
<glyph d="M61 903q0 73 27 127h145q-20 -50 -20 -110q0 -103 113 -103h34l5 43q29 298 195.5 461.5t445.5 163.5q297 0 445 -189.5t148 -558.5v-69h-1060q14 -264 144.5 -400.5t377.5 -136.5q101 0 202 15.5t242 58.5v-156q-114 -39 -224.5 -54t-240.5 -15q-314 0 -488.5 178 t-193.5 510q-142 0 -219.5 59t-77.5 176zM1004 1333q-209 0 -329 -133.5t-136 -382.5h878q0 265 -101.5 390.5t-311.5 125.5z" glyph-name="uni04BC" horiz-adv-x="1716" unicode="Ҽ"/>
<glyph d="M842 -20q-243 0 -381 143t-144 395q-266 4 -266 225q0 69 25 119h141q-20 -47 -20 -106q0 -103 106 -103h21l6 35q34 202 159 314t308 112q207 0 327.5 -132.5t120.5 -358.5v-105h-756q6 -198 92 -295.5t259 -97.5q101 0 180.5 16t177.5 58v-148q-88 -38 -166.5 -54.5 t-189.5 -16.5zM793 975q-134 0 -209.5 -82t-89.5 -240h573q0 157 -70 239.5t-204 82.5z" glyph-name="uni04BD" horiz-adv-x="1350" unicode="ҽ"/>
<glyph d="M928 -12q-258 29 -404.5 202t-165.5 478q-142 0 -219.5 59t-77.5 176q0 73 27 127h145q-20 -50 -20 -110q0 -103 113 -103h34l5 43q29 298 195.5 461.5t445.5 163.5q297 0 445 -189.5t148 -558.5v-69h-1060q14 -264 144.5 -400.5t377.5 -136.5q101 0 202 15.5t242 58.5 v-156q-176 -62 -411 -67v-363h-166v369zM1004 1333q-209 0 -329 -133.5t-136 -382.5h878q0 265 -101.5 390.5t-311.5 125.5z" glyph-name="uni04BE" horiz-adv-x="1716" unicode="Ҿ"/>
<glyph d="M725 -10q-191 31 -296.5 167.5t-111.5 360.5q-266 4 -266 225q0 69 25 119h141q-20 -47 -20 -106q0 -103 106 -103h21l6 35q34 202 159 314t308 112q207 0 327.5 -132.5t120.5 -358.5v-105h-756q6 -198 92 -295.5t259 -97.5q101 0 180.5 16t177.5 58v-148 q-142 -65 -307 -69v-359h-166v367zM793 975q-134 0 -209.5 -82t-89.5 -240h573q0 157 -70 239.5t-204 82.5z" glyph-name="uni04BF" horiz-adv-x="1350" unicode="ҿ"/>
<glyph d="M201 0v1462h170v-1462h-170z" glyph-name="uni04C0" horiz-adv-x="571" unicode="Ӏ"/>
<glyph d="M598 752l-575 710h190l569 -708v708h164v-708l570 708h190l-576 -708l594 -754h-196l-582 741v-741h-164v741l-581 -741h-199zM856 1581q-185 0 -270 71.5t-95 235.5h156q9 -104 54.5 -145t158.5 -41q103 0 152.5 44t60.5 142h157q-12 -158 -101 -232.5t-273 -74.5z" glyph-name="uni04C1" horiz-adv-x="1729" unicode="Ӂ"/>
<glyph d="M676 1094h153v-531l453 531h182l-458 -531l497 -563h-192l-482 555v-555h-153v555l-481 -555h-191l496 563l-457 531h182l451 -531v531zM748 1241q-185 0 -270 71.5t-95 235.5h156q9 -104 54.5 -145t158.5 -41q103 0 152.5 44t60.5 142h157q-12 -158 -101 -232.5 t-273 -74.5z" glyph-name="uni04C2" horiz-adv-x="1507" unicode="ӂ"/>
<glyph d="M606 635q-140 0 -235 -31v-604h-170v1462h170v-708l649 708h205l-635 -684l26 2q335 0 512 -162.5t177 -467.5q0 -314 -147.5 -488t-414.5 -174q-82 0 -144 10t-132 39v152q122 -49 274 -49q187 0 287 134.5t100 375.5q0 232 -138.5 358.5t-383.5 126.5z" glyph-name="uni04C3" horiz-adv-x="1411" unicode="Ӄ"/>
<glyph d="M340 0h-164v1096h164v-518l483 518h183l-457 -482q256 -4 382 -146t126 -409q0 -177 -55 -303t-157 -192t-235 -66q-136 0 -231 60v145q46 -25 100 -44t125 -19q135 0 211 108.5t76 308.5q0 211 -93.5 314.5t-283.5 103.5q-82 0 -174 -24v-451z" glyph-name="uni04C4" horiz-adv-x="1124" unicode="ӄ"/>
<glyph d="M1241 154h184l-143 -535h-197l156 381h-170v1311h-475l-31 -240q-61 -479 -107.5 -700.5t-122.5 -308.5t-202 -85q-74 0 -133 25v143q54 -26 113 -26q53 0 92.5 43.5t70 151t77 408t102.5 740.5h786v-1308z" glyph-name="uni04C5" horiz-adv-x="1446" unicode="Ӆ"/>
<glyph d="M991 143h176l-129 -520h-172l125 377h-166v952h-331q-28 -360 -75 -566t-123 -302t-194 -96q-58 0 -86 10v127q22 -6 50 -6q113 0 181.5 236.5t102.5 738.5h641v-951z" glyph-name="uni04C6" horiz-adv-x="1171" unicode="ӆ"/>
<glyph d="M1311 150q0 -318 -141 -490t-402 -172q-82 0 -143 9.5t-138 39.5v150q123 -49 258 -49q396 0 396 503v547h-770v-688h-170v1462h170v-622h770v622h170v-1312z" glyph-name="uni04C7" horiz-adv-x="1489" unicode="Ӈ"/>
<glyph d="M723 -502q-132 0 -225 58v149q111 -61 213 -61q125 0 184 99t59 306v445h-612v-494h-166v1096h166v-459h612v459h168v-1045q0 -268 -103.5 -410.5t-295.5 -142.5z" glyph-name="uni04C8" horiz-adv-x="1262" unicode="ӈ"/>
<glyph d="M1311 154h184l-145 -535h-197l158 381h-170v688h-770v-688h-170v1462h170v-622h770v622h170v-1308z" glyph-name="uni04C9" horiz-adv-x="1526" unicode="Ӊ"/>
<glyph d="M342 1094v-457h614v457h166v-951h176l-129 -520h-172l125 377h-166v494h-614v-494h-166v1094h166z" glyph-name="uni04CA" horiz-adv-x="1337" unicode="ӊ"/>
<glyph d="M1223 0h-170v-381h-162v535h162v450q-149 -53 -248 -72.5t-205 -19.5q-207 0 -318.5 95t-111.5 274v581h170v-561q0 -121 63.5 -179t206.5 -58q97 0 185.5 14.5t257.5 69.5v714h170v-1462z" glyph-name="uni04CB" horiz-adv-x="1423" unicode="Ӌ"/>
<glyph d="M322 1096v-400q0 -192 219 -192q91 0 174 28t188 95v469h166v-1096h-149v-379h-166v522h149v353q-105 -72 -194.5 -101.5t-202.5 -29.5q-164 0 -257 86t-93 233v412h166z" glyph-name="uni04CC" horiz-adv-x="1245" unicode="ӌ"/>
<glyph d="M848 0l-496 1296h-8l7 -127q7 -192 7 -239v-930h-157v1462h256l465 -1206h8l465 1206h254v-1308h184l-143 -535h-199l158 381h-170v942q0 132 14 352h-8l-500 -1294h-137z" glyph-name="uni04CD" horiz-adv-x="1851" unicode="Ӎ"/>
<glyph d="M745 160l31 93l43 118l297 723h211v-951h176l-129 -520h-172l125 377h-147v905l-20 -58l-58 -153l-283 -694h-139l-283 696q-53 134 -73 209v-905h-148v1094h203l297 -723q45 -110 69 -211z" glyph-name="uni04CE" horiz-adv-x="1507" unicode="ӎ"/>
<glyph d="M201 0v1462h170v-1462h-170z" glyph-name="uni04CF" horiz-adv-x="571" unicode="ӏ"/>
<glyph d="M1120 0l-182 465h-586l-180 -465h-172l578 1468h143l575 -1468h-176zM885 618l-170 453q-33 86 -68 211q-22 -96 -63 -211l-172 -453h473zM641 1579q-185 0 -270 71.5t-95 235.5h156q9 -104 54.5 -145t158.5 -41q103 0 152.5 44t60.5 142h157q-12 -158 -101 -232.5 t-273 -74.5z" glyph-name="uni04D0" horiz-adv-x="1296" unicode="Ӑ"/>
<glyph d="M850 0l-33 156h-8q-82 -103 -163.5 -139.5t-203.5 -36.5q-163 0 -255.5 84t-92.5 239q0 332 531 348l186 6v68q0 129 -55.5 190.5t-177.5 61.5q-137 0 -310 -84l-51 127q81 44 177.5 69t193.5 25q196 0 290.5 -87t94.5 -279v-748h-123zM475 117q155 0 243.5 85t88.5 238 v99l-166 -7q-198 -7 -285.5 -61.5t-87.5 -169.5q0 -90 54.5 -137t152.5 -47zM560 1241q-185 0 -270 71.5t-95 235.5h156q9 -104 54.5 -145t158.5 -41q103 0 152.5 44t60.5 142h157q-12 -158 -101 -232.5t-273 -74.5z" glyph-name="uni04D1" unicode="ӑ"/>
<glyph d="M1120 0l-182 465h-586l-180 -465h-172l578 1468h143l575 -1468h-176zM885 618l-170 453q-33 86 -68 211q-22 -96 -63 -211l-172 -453h473zM370 1731q0 52 26.5 75t63.5 23q38 0 65.5 -23t27.5 -75q0 -50 -27.5 -74.5t-65.5 -24.5q-37 0 -63.5 24.5t-26.5 74.5zM751 1731 q0 52 26.5 75t63.5 23t64.5 -23t27.5 -75q0 -50 -27.5 -74.5t-64.5 -24.5t-63.5 24.5t-26.5 74.5z" glyph-name="uni04D2" horiz-adv-x="1296" unicode="Ӓ"/>
<glyph d="M850 0l-33 156h-8q-82 -103 -163.5 -139.5t-203.5 -36.5q-163 0 -255.5 84t-92.5 239q0 332 531 348l186 6v68q0 129 -55.5 190.5t-177.5 61.5q-137 0 -310 -84l-51 127q81 44 177.5 69t193.5 25q196 0 290.5 -87t94.5 -279v-748h-123zM475 117q155 0 243.5 85t88.5 238 v99l-166 -7q-198 -7 -285.5 -61.5t-87.5 -169.5q0 -90 54.5 -137t152.5 -47zM296 1393q0 52 26.5 75t63.5 23q38 0 65.5 -23t27.5 -75q0 -50 -27.5 -74.5t-65.5 -24.5q-37 0 -63.5 24.5t-26.5 74.5zM677 1393q0 52 26.5 75t63.5 23t64.5 -23t27.5 -75q0 -50 -27.5 -74.5 t-64.5 -24.5t-63.5 24.5t-26.5 74.5z" glyph-name="uni04D3" unicode="ӓ"/>
<glyph d="M1665 0h-750v465h-514l-227 -465h-176l698 1462h969v-151h-580v-471h541v-150h-541v-538h580v-152zM469 618h446v693h-118z" glyph-name="uni04D4" horiz-adv-x="1788" unicode="Ӕ"/>
<glyph d="M94 303q0 161 124 250.5t378 97.5l184 6v68q0 129 -58 190.5t-177 61.5q-144 0 -307 -84l-52 127q74 41 173.5 67.5t197.5 26.5q130 0 212.5 -43.5t123.5 -138.5q53 88 138.5 136t195.5 48q192 0 308 -133.5t116 -355.5v-107h-701q8 -395 322 -395q91 0 169.5 17.5 t162.5 56.5v-148q-86 -38 -160.5 -54.5t-175.5 -16.5q-289 0 -414 233q-81 -127 -179.5 -180t-232.5 -53q-163 0 -255.5 85t-92.5 238zM268 301q0 -95 53.5 -139.5t141.5 -44.5q145 0 229 84.5t84 238.5v99l-158 -7q-186 -8 -268 -62.5t-82 -168.5zM1225 977 q-121 0 -190.5 -83t-80.5 -241h519q0 156 -64 240t-184 84z" glyph-name="uni04D5" horiz-adv-x="1757" unicode="ӕ"/>
<glyph d="M1016 0h-815v1462h815v-151h-645v-471h606v-150h-606v-538h645v-152zM600 1579q-185 0 -270 71.5t-95 235.5h156q9 -104 54.5 -145t158.5 -41q103 0 152.5 44t60.5 142h157q-12 -158 -101 -232.5t-273 -74.5z" glyph-name="uni04D6" unicode="Ӗ"/>
<glyph d="M639 -20q-243 0 -383.5 148t-140.5 411q0 265 130.5 421t350.5 156q206 0 326 -135.5t120 -357.5v-105h-755q5 -193 97.5 -293t260.5 -100q177 0 350 74v-148q-88 -38 -166.5 -54.5t-189.5 -16.5zM594 977q-132 0 -210.5 -86t-92.5 -238h573q0 157 -70 240.5t-200 83.5z M596 1241q-185 0 -270 71.5t-95 235.5h156q9 -104 54.5 -145t158.5 -41q103 0 152.5 44t60.5 142h157q-12 -158 -101 -232.5t-273 -74.5z" glyph-name="uni04D7" horiz-adv-x="1149" unicode="ӗ"/>
<glyph d="M664 1333q-227 0 -453 -76v158q115 38 220 54t239 16q331 0 514.5 -199.5t183.5 -556.5q0 -350 -173 -549.5t-482 -199.5q-596 0 -596 747v70h1071q-17 266 -148.5 401t-375.5 135zM713 131q210 0 334.5 134.5t140.5 381.5h-889q0 -264 102 -390t312 -126z" glyph-name="uni04D8" horiz-adv-x="1495" unicode="Ә"/>
<glyph d="M506 1116q245 0 384.5 -150t139.5 -411q0 -264 -129.5 -419.5t-347.5 -155.5q-208 0 -329.5 134t-121.5 359v105h756q-5 204 -94.5 297.5t-255.5 93.5q-98 0 -180.5 -16.5t-177.5 -57.5v147q89 40 170 57t186 17zM555 119q133 0 210 82.5t89 238.5h-573q0 -157 70.5 -239 t203.5 -82z" glyph-name="uni04D9" horiz-adv-x="1145" unicode="ә"/>
<glyph d="M664 1333q-227 0 -453 -76v158q115 38 220 54t239 16q331 0 514.5 -199.5t183.5 -556.5q0 -350 -173 -549.5t-482 -199.5q-596 0 -596 747v70h1071q-17 266 -148.5 401t-375.5 135zM713 131q210 0 334.5 134.5t140.5 381.5h-889q0 -264 102 -390t312 -126zM456 1731 q0 52 26.5 75t63.5 23q38 0 65.5 -23t27.5 -75q0 -50 -27.5 -74.5t-65.5 -24.5q-37 0 -63.5 24.5t-26.5 74.5zM837 1731q0 52 26.5 75t63.5 23t64.5 -23t27.5 -75q0 -50 -27.5 -74.5t-64.5 -24.5t-63.5 24.5t-26.5 74.5z" glyph-name="uni04DA" horiz-adv-x="1495" unicode="Ӛ"/>
<glyph d="M506 1116q245 0 384.5 -150t139.5 -411q0 -264 -129.5 -419.5t-347.5 -155.5q-208 0 -329.5 134t-121.5 359v105h756q-5 204 -94.5 297.5t-255.5 93.5q-98 0 -180.5 -16.5t-177.5 -57.5v147q89 40 170 57t186 17zM555 119q133 0 210 82.5t89 238.5h-573q0 -157 70.5 -239 t203.5 -82zM287 1393q0 52 26.5 75t63.5 23q38 0 65.5 -23t27.5 -75q0 -50 -27.5 -74.5t-65.5 -24.5q-37 0 -63.5 24.5t-26.5 74.5zM668 1393q0 52 26.5 75t63.5 23t64.5 -23t27.5 -75q0 -50 -27.5 -74.5t-64.5 -24.5t-63.5 24.5t-26.5 74.5z" glyph-name="uni04DB" horiz-adv-x="1145" unicode="ӛ"/>
<glyph d="M598 752l-575 710h190l569 -708v708h164v-708l570 708h190l-576 -708l594 -754h-196l-582 741v-741h-164v741l-581 -741h-199zM581 1731q0 52 26.5 75t63.5 23q38 0 65.5 -23t27.5 -75q0 -50 -27.5 -74.5t-65.5 -24.5q-37 0 -63.5 24.5t-26.5 74.5zM962 1731 q0 52 26.5 75t63.5 23t64.5 -23t27.5 -75q0 -50 -27.5 -74.5t-64.5 -24.5t-63.5 24.5t-26.5 74.5z" glyph-name="uni04DC" horiz-adv-x="1729" unicode="Ӝ"/>
<glyph d="M676 1094h153v-531l453 531h182l-458 -531l497 -563h-192l-482 555v-555h-153v555l-481 -555h-191l496 563l-457 531h182l451 -531v531zM471 1393q0 52 26.5 75t63.5 23q38 0 65.5 -23t27.5 -75q0 -50 -27.5 -74.5t-65.5 -24.5q-37 0 -63.5 24.5t-26.5 74.5zM852 1393 q0 52 26.5 75t63.5 23t64.5 -23t27.5 -75q0 -50 -27.5 -74.5t-64.5 -24.5t-63.5 24.5t-26.5 74.5z" glyph-name="uni04DD" horiz-adv-x="1507" unicode="ӝ"/>
<glyph d="M1049 1120q0 -144 -91.5 -234t-252.5 -114v-8q183 -25 277.5 -115t94.5 -235q0 -205 -153 -319.5t-432 -114.5q-255 0 -418 79v158q96 -46 207.5 -71t214.5 -25q198 0 299.5 75t101.5 216q0 134 -112.5 203t-335.5 69h-218v143h209q205 0 317.5 73.5t112.5 205.5 q0 107 -81 171t-218 64q-110 0 -199 -25t-206 -99l-84 114q101 75 226.5 113.5t260.5 38.5q225 0 352.5 -98.5t127.5 -264.5zM296 1731q0 52 26.5 75t63.5 23q38 0 65.5 -23t27.5 -75q0 -50 -27.5 -74.5t-65.5 -24.5q-37 0 -63.5 24.5t-26.5 74.5zM677 1731q0 52 26.5 75 t63.5 23t64.5 -23t27.5 -75q0 -50 -27.5 -74.5t-64.5 -24.5t-63.5 24.5t-26.5 74.5z" glyph-name="uni04DE" horiz-adv-x="1190" unicode="Ӟ"/>
<glyph d="M385 641q311 0 311 172q0 162 -252 162q-77 0 -140 -14t-165 -56l-59 135q170 76 371 76q189 0 298 -77.5t109 -211.5q0 -184 -205 -241v-8q126 -37 184 -105.5t58 -171.5q0 -152 -122.5 -236.5t-338.5 -84.5q-237 0 -366 71v152q183 -86 370 -86q144 0 217.5 49.5 t73.5 142.5q0 191 -311 191h-152v141h119zM201 1393q0 52 26.5 75t63.5 23q38 0 65.5 -23t27.5 -75q0 -50 -27.5 -74.5t-65.5 -24.5q-37 0 -63.5 24.5t-26.5 74.5zM582 1393q0 52 26.5 75t63.5 23t64.5 -23t27.5 -75q0 -50 -27.5 -74.5t-64.5 -24.5t-63.5 24.5t-26.5 74.5z " glyph-name="uni04DF" horiz-adv-x="989" unicode="ӟ"/>
<glyph d="M508 831q279 -9 425 -114.5t146 -298.5q0 -206 -153.5 -322t-431.5 -116q-257 0 -420 79v158q96 -46 207 -71t217 -25q199 0 300 76.5t101 220.5q0 134 -112.5 203t-335.5 69h-140v141l494 478h-690v153h903v-139z" glyph-name="uni04E0" horiz-adv-x="1194" unicode="Ӡ"/>
<glyph d="M428 463q149 -7 264 -64t178.5 -158t63.5 -237q0 -222 -148 -359t-387 -137q-234 0 -372 70v154q183 -86 383 -86q161 0 259.5 95t98.5 255q0 164 -107 249t-309 85h-121v114l453 510h-631v142h824v-123z" glyph-name="uni04E1" horiz-adv-x="1001" unicode="ӡ"/>
<glyph d="M203 1462h159v-813q0 -225 -14 -407h8l820 1220h186v-1462h-160v805q0 201 17 422h-9l-821 -1227h-186v1462zM481 1716h600v-137h-600v137z" glyph-name="uni04E2" horiz-adv-x="1561" unicode="Ӣ"/>
<glyph d="M332 1096v-695l-7 -182l-3 -57l593 934h207v-1096h-155v670l3 132l5 130l-592 -932h-207v1096h156zM350 1378h600v-137h-600v137z" glyph-name="uni04E3" horiz-adv-x="1298" unicode="ӣ"/>
<glyph d="M203 1462h159v-813q0 -225 -14 -407h8l820 1220h186v-1462h-160v805q0 201 17 422h-9l-821 -1227h-186v1462zM499 1731q0 52 26.5 75t63.5 23q38 0 65.5 -23t27.5 -75q0 -50 -27.5 -74.5t-65.5 -24.5q-37 0 -63.5 24.5t-26.5 74.5zM880 1731q0 52 26.5 75t63.5 23 t64.5 -23t27.5 -75q0 -50 -27.5 -74.5t-64.5 -24.5t-63.5 24.5t-26.5 74.5z" glyph-name="uni04E4" horiz-adv-x="1561" unicode="Ӥ"/>
<glyph d="M332 1096v-695l-7 -182l-3 -57l593 934h207v-1096h-155v670l3 132l5 130l-592 -932h-207v1096h156zM370 1393q0 52 26.5 75t63.5 23q38 0 65.5 -23t27.5 -75q0 -50 -27.5 -74.5t-65.5 -24.5q-37 0 -63.5 24.5t-26.5 74.5zM751 1393q0 52 26.5 75t63.5 23t64.5 -23 t27.5 -75q0 -50 -27.5 -74.5t-64.5 -24.5t-63.5 24.5t-26.5 74.5z" glyph-name="uni04E5" horiz-adv-x="1298" unicode="ӥ"/>
<glyph d="M1470 733q0 -351 -177.5 -552t-493.5 -201q-323 0 -498.5 197.5t-175.5 557.5q0 357 176 553.5t500 196.5q315 0 492 -200t177 -552zM305 733q0 -297 126.5 -450.5t367.5 -153.5q243 0 367 153t124 451q0 295 -123.5 447.5t-365.5 152.5q-243 0 -369.5 -153.5 t-126.5 -446.5zM518 1731q0 52 26.5 75t63.5 23q38 0 65.5 -23t27.5 -75q0 -50 -27.5 -74.5t-65.5 -24.5q-37 0 -63.5 24.5t-26.5 74.5zM899 1731q0 52 26.5 75t63.5 23t64.5 -23t27.5 -75q0 -50 -27.5 -74.5t-64.5 -24.5t-63.5 24.5t-26.5 74.5z" glyph-name="uni04E6" horiz-adv-x="1595" unicode="Ӧ"/>
<glyph d="M1122 549q0 -268 -135 -418.5t-373 -150.5q-147 0 -261 69t-176 198t-62 302q0 268 134 417.5t372 149.5q230 0 365.5 -153t135.5 -414zM287 549q0 -210 84 -320t247 -110t247.5 109.5t84.5 320.5q0 209 -84.5 317.5t-249.5 108.5q-163 0 -246 -107t-83 -319zM338 1393 q0 52 26.5 75t63.5 23q38 0 65.5 -23t27.5 -75q0 -50 -27.5 -74.5t-65.5 -24.5q-37 0 -63.5 24.5t-26.5 74.5zM719 1393q0 52 26.5 75t63.5 23t64.5 -23t27.5 -75q0 -50 -27.5 -74.5t-64.5 -24.5t-63.5 24.5t-26.5 74.5z" glyph-name="uni04E7" horiz-adv-x="1237" unicode="ӧ"/>
<glyph d="M1470 733q0 -351 -177.5 -552t-493.5 -201q-323 0 -498.5 197.5t-175.5 557.5q0 357 176 553.5t500 196.5q315 0 492 -200t177 -552zM799 129q229 0 352.5 136.5t136.5 404.5h-981q13 -267 137.5 -404t354.5 -137zM801 1333q-224 0 -349.5 -129t-144.5 -385h979 q-17 254 -139 384t-346 130z" glyph-name="uni04E8" horiz-adv-x="1597" unicode="Ө"/>
<glyph d="M1122 549q0 -268 -135 -418.5t-373 -150.5q-147 0 -261 69t-176 198t-62 302q0 268 134 417.5t372 149.5q230 0 365.5 -153t135.5 -414zM618 119q158 0 240 92t92 283h-663q9 -186 89 -280.5t242 -94.5zM616 975q-156 0 -235 -86.5t-92 -253.5h659q-15 168 -95.5 254 t-236.5 86z" glyph-name="uni04E9" horiz-adv-x="1237" unicode="ө"/>
<glyph d="M1470 733q0 -351 -177.5 -552t-493.5 -201q-323 0 -498.5 197.5t-175.5 557.5q0 357 176 553.5t500 196.5q315 0 492 -200t177 -552zM799 129q229 0 352.5 136.5t136.5 404.5h-981q13 -267 137.5 -404t354.5 -137zM801 1333q-224 0 -349.5 -129t-144.5 -385h979 q-17 254 -139 384t-346 130zM518 1731q0 52 26.5 75t63.5 23q38 0 65.5 -23t27.5 -75q0 -50 -27.5 -74.5t-65.5 -24.5q-37 0 -63.5 24.5t-26.5 74.5zM899 1731q0 52 26.5 75t63.5 23t64.5 -23t27.5 -75q0 -50 -27.5 -74.5t-64.5 -24.5t-63.5 24.5t-26.5 74.5z" glyph-name="uni04EA" horiz-adv-x="1597" unicode="Ӫ"/>
<glyph d="M1122 549q0 -268 -135 -418.5t-373 -150.5q-147 0 -261 69t-176 198t-62 302q0 268 134 417.5t372 149.5q230 0 365.5 -153t135.5 -414zM618 119q158 0 240 92t92 283h-663q9 -186 89 -280.5t242 -94.5zM616 975q-156 0 -235 -86.5t-92 -253.5h659q-15 168 -95.5 254 t-236.5 86zM336 1393q0 52 26.5 75t63.5 23q38 0 65.5 -23t27.5 -75q0 -50 -27.5 -74.5t-65.5 -24.5q-37 0 -63.5 24.5t-26.5 74.5zM717 1393q0 52 26.5 75t63.5 23t64.5 -23t27.5 -75q0 -50 -27.5 -74.5t-64.5 -24.5t-63.5 24.5t-26.5 74.5z" glyph-name="uni04EB" horiz-adv-x="1237" unicode="ӫ"/>
<glyph d="M467 1331q-172 0 -334 -76l-72 144q172 84 408 84q217 0 373.5 -88t237.5 -251t81 -384q0 -376 -182 -578t-524 -202q-227 0 -383 57v149q83 -21 169 -38t185 -17q271 0 409 144.5t146 416.5h-719v152h717q-22 229 -157.5 358t-354.5 129zM290 1731q0 52 26.5 75t63.5 23 q38 0 65.5 -23t27.5 -75q0 -50 -27.5 -74.5t-65.5 -24.5q-37 0 -63.5 24.5t-26.5 74.5zM671 1731q0 52 26.5 75t63.5 23t64.5 -23t27.5 -75q0 -50 -27.5 -74.5t-64.5 -24.5t-63.5 24.5t-26.5 74.5z" glyph-name="uni04EC" horiz-adv-x="1290" unicode="Ӭ"/>
<glyph d="M342 -20q-167 0 -285 57v147q60 -23 130 -41t161 -18q174 0 268.5 93t104.5 278h-555v141h553q-16 172 -100.5 252t-245.5 80q-103 0 -254 -54l-47 140q55 26 137 43.5t162 17.5q256 0 389 -146.5t133 -422.5q0 -269 -144.5 -418t-406.5 -149zM195 1393q0 52 26.5 75 t63.5 23q38 0 65.5 -23t27.5 -75q0 -50 -27.5 -74.5t-65.5 -24.5q-37 0 -63.5 24.5t-26.5 74.5zM576 1393q0 52 26.5 75t63.5 23t64.5 -23t27.5 -75q0 -50 -27.5 -74.5t-64.5 -24.5t-63.5 24.5t-26.5 74.5z" glyph-name="uni04ED" horiz-adv-x="1008" unicode="ӭ"/>
<glyph d="M293 -20q-111 0 -195 30v166q93 -43 189 -43q110 0 176.5 50.5t132.5 189.5l-569 1089h188l432 -831q25 -49 39 -96h8q28 84 39 106l359 821h180l-467 -1046q-84 -187 -151.5 -272t-152 -124.5t-208.5 -39.5zM348 1716h600v-137h-600v137z" glyph-name="uni04EE" horiz-adv-x="1272" unicode="Ӯ"/>
<glyph d="M2 1096h178l240 -625q79 -214 98 -309h8q13 51 54.5 174.5t271.5 759.5h178l-471 -1248q-70 -185 -163.5 -262.5t-229.5 -77.5q-76 0 -150 17v133q55 -12 123 -12q171 0 244 192l61 156zM218 1378h600v-137h-600v137z" glyph-name="uni04EF" horiz-adv-x="1032" unicode="ӯ"/>
</font>
</defs>
</svg>
